<?xml version="1.0" encoding="UTF-8"?>
<svg width="301px" height="95px" viewBox="0 0 301 95" version="1.1" xmlns="http://www.w3.org/2000/svg" xmlns:xlink="http://www.w3.org/1999/xlink">
    <!-- Generator: Sketch 63.1 (92452) - https://sketch.com -->
    <title>编组 10</title>
    <desc>Created with Sketch.</desc>
    <g id="页面-1" stroke="none" stroke-width="1" fill="none" fill-rule="evenodd">
        <g id="编组-10">
            <g id="编组-9" transform="translate(3.000000, 3.000000)">
                <g id="编组-8" fill="#EDF3FF" fill-opacity="0.8" fill-rule="nonzero" opacity="0.504191">
                    <g id="编组-5">
                        <path d="M5,0 L290,0 C292.761424,-5.07265313e-16 295,2.23857625 295,5 L295,84 C295,86.7614237 292.761424,89 290,89 L5,89 C2.23857625,89 3.38176876e-16,86.7614237 0,84 L0,5 C-3.38176876e-16,2.23857625 2.23857625,5.07265313e-16 5,0 Z" id="矩形"></path>
                    </g>
                </g>
                <polygon id="矩形" fill="#E6ECFB" fill-rule="nonzero" points="14 10 282 10 282 63 14 63"></polygon>
                <polygon id="路径-3" stroke="#FFFFFF" opacity="0.4" points="56.5035461 35.5 107.5 21.5 149.652482 36.5 108.5 51.5"></polygon>
                <polyline id="路径-4" stroke="#FFFFFF" opacity="0.4" points="106.12766 35.5 146 21.5 192.29078 21.5 239.503546 35.5 150 51.5"></polyline>
                <line x1="106.12766" y1="35.5" x2="108.5" y2="51.5" id="路径-6" stroke="#FFFFFF" opacity="0.4"></line>
                <polyline id="路径-5" stroke="#FFFFFF" opacity="0.4" points="146 21.5 194 34.5 149.652482 37 150 51.5"></polyline>
                <rect id="矩形" fill="#6882DA" fill-rule="nonzero" x="18" y="14" width="22.8085106" height="3" rx="1.5"></rect>
                <rect id="矩形-copy-16" fill="#A6B6EA" fill-rule="nonzero" x="143" y="49" width="13.3049645" height="5" rx="1.5"></rect>
                <rect id="矩形-copy-17" fill="#A6B6EA" fill-rule="nonzero" x="182.787234" y="19" width="19.0070922" height="5" rx="1.5"></rect>
                <rect id="矩形-copy-17备份" fill="#A6B6EA" fill-rule="nonzero" x="230" y="33" width="19.0070922" height="5" rx="1.5"></rect>
                <rect id="矩形-copy-17备份-2" fill="#A6B6EA" fill-rule="nonzero" x="47" y="33" width="19.0070922" height="5" rx="1.5"></rect>
                <ellipse id="椭圆形" fill="#DBDFE3" fill-rule="nonzero" cx="107.5" cy="21.5" rx="11.5" ry="2.5"></ellipse>
                <ellipse id="椭圆形" fill="#DBDFE3" fill-rule="nonzero" cx="146" cy="21.5" rx="7" ry="2.5"></ellipse>
                <ellipse id="椭圆形备份-2" fill="#DBDFE3" fill-rule="nonzero" cx="150" cy="36.5" rx="5" ry="2.5"></ellipse>
                <ellipse id="椭圆形备份-3" fill="#DBDFE3" fill-rule="nonzero" cx="194" cy="34.5" rx="7" ry="2.5"></ellipse>
                <ellipse id="椭圆形备份-4" fill="#DBDFE3" fill-rule="nonzero" cx="108.5" cy="51.5" rx="8.5" ry="2.5"></ellipse>
                <rect id="矩形" fill="#A6B6EA" fill-rule="nonzero" x="99" y="33" width="14.2553191" height="5" rx="1.5"></rect>
                <rect id="矩形" fill="#6882DA" fill-rule="nonzero" x="138" y="70" width="20" height="8" rx="2"></rect>
                <path d="M141.719865,84.9906037 C141.719865,84.9906037 141.68235,85.0033656 143.1872,84.9622439 C144.066328,85.5854495 145.346088,85.8328884 145.346088,85.8328883 L147.119914,85.8328883 L148.831452,85.8421053 C149.011241,85.8392693 149.191738,85.7740419 149.329058,85.637206 C149.505962,85.4608373 149.573882,85.202469 149.506631,84.9617064 C149.439381,84.7209439 149.247465,84.5353916 149.004871,84.4765831 L149.014072,84.3936309 L149.165548,84.3943399 C149.351381,84.3935514 149.529604,84.3203141 149.662446,84.1901496 C149.792106,84.0603832 149.86484,83.8842419 149.864574,83.7006494 C149.864308,83.517057 149.791066,83.3411276 149.661031,83.2117381 C149.533706,83.08411 149.361928,83.0109147 149.181829,83.0075479 L149.16838,82.9720982 L149.283756,82.9728072 C149.463546,82.9706802 149.644043,82.9047438 149.781362,82.768617 C149.911022,82.6388505 149.983755,82.4627092 149.98349,82.2791168 C149.983224,82.0955244 149.909981,81.919595 149.779946,81.7902055 C149.657068,81.6672734 149.492659,81.594926 149.319148,81.5874333 C150.131031,81.5860153 152.044301,81.6441528 152.17171,81.6611686 C152.334512,81.6824384 152.941124,81.6377718 152.996334,81.0287461 C153.052253,80.4204294 152.449888,80.2183662 152.449888,80.2183662 L146.561435,80.0595516 L146.589748,79.9751813 C146.589748,79.9751813 147.158845,79.6993827 147.882249,78.9542302 C148.605653,78.2090777 148.521421,77.7418507 148.200774,77.2313752 C147.880126,76.7208996 147.458966,77.2143593 147.458966,77.2143593 C147.359869,77.3823909 146.402173,78.63022 145.256901,78.8400822 C143.945996,78.747913 142.878586,80.4211384 142.878586,80.4211384 L141.918058,80.3764718 C140.98372,80.4048316 141.129533,81.2421533 141.129533,81.2421533 L141,84.2128374 C141.001416,84.9778418 141.720573,84.9906037 141.720573,84.9906037 L141.719865,84.9906037 Z" id="路径" stroke="#FFFFFF" stroke-width="0.4" fill="#6882DA" fill-rule="nonzero" transform="translate(147.000000, 81.421053) rotate(-90.000000) translate(-147.000000, -81.421053) "></path>
                <circle id="椭圆形" stroke="#6882DA" fill="#FFFFFF" cx="161" cy="74" r="3"></circle>
                <circle id="椭圆形备份" stroke="#6882DA" fill="#FFFFFF" cx="84" cy="59" r="3"></circle>
                <path id="路径-160" d="M165.499272,71.2706701 L165.924019,72.175982 C164.945844,72.6349151 164.502521,73.1741352 164.500193,73.8262152 L164.505579,73.9581457 L163.509089,74.0418543 C163.409715,72.8588772 164.111079,71.921972 165.499272,71.2706701 Z M195.654104,70.7396547 L195.697633,71.7387069 C194.9301,71.7721483 194.130582,71.7877403 193.299048,71.7855039 L192.669394,71.7804841 L192.682548,70.7805706 C193.723525,70.7942645 194.714063,70.7806123 195.654104,70.7396547 Z M186.722647,70.4565857 C186.901067,70.4712473 187.080533,70.4862142 187.261053,70.5014871 C187.821569,70.548918 188.369925,70.5903392 188.907122,70.6258269 L189.704671,70.6746178 L189.648568,71.6730428 C188.84957,71.6281452 188.02676,71.5698552 187.176742,71.4979266 L186.907958,71.4753481 L186.907958,71.4753481 L186.640748,71.4532264 L186.722647,70.4565857 Z M201.503636,69.9843994 L201.740769,70.9558764 C200.97176,71.1435884 200.146646,71.2992996 199.265335,71.4231714 L198.729804,71.493675 L198.60775,70.5011516 C199.654854,70.3723857 200.620201,70.2000421 201.503636,69.9843994 Z M171.632559,70.0522186 L171.700587,71.0499021 C170.757662,71.1141961 169.904607,71.203974 169.141792,71.3190135 L168.767906,71.3786374 L168.601762,70.392536 C169.491201,70.2426778 170.501272,70.1293563 171.632559,70.0522186 Z M180.667594,70.0566803 C181.387913,70.0906965 182.13141,70.1314861 182.898091,70.1790478 L183.6725,70.2288669 L183.606065,71.2266576 C182.828644,71.1748953 182.074477,71.1298758 181.343573,71.0915979 L180.620423,71.0555671 L180.667594,70.0566803 Z M176.976364,69.9384354 L177.609788,69.9499074 L177.588483,70.9496804 C176.743249,70.9316683 175.937946,70.925186 175.172609,70.9302234 L174.6061,70.9361613 L174.591616,69.9362662 C175.346827,69.9253267 176.141731,69.9260531 176.976364,69.9384354 Z M209.178989,60.5303891 L210.315689,70.5282846 L206.294,69.058 L206.238972,69.0973776 C205.890585,69.3309818 205.515987,69.5490715 205.115275,69.7517478 L204.705862,69.9492901 L204.287811,69.0408665 C204.573994,68.9091669 204.845807,68.7701636 205.103291,68.623899 L201.862693,67.438486 L209.178989,60.5303891 Z" fill="#6882DA" fill-rule="nonzero"></path>
                <path id="路径-160备份" d="M130.976369,67.1388051 L138.192659,74.1513046 L128.252885,75.7168375 L130.976369,67.1388051 Z M125.579371,70.2978157 C126.421595,70.4251451 127.224374,70.5546019 127.987732,70.6861954 L128.552859,70.7852913 L128.377238,71.7697491 C127.640766,71.6383669 126.864693,71.5090105 126.049044,71.3816891 L125.429887,71.2865799 L125.579371,70.2978157 Z M119.614622,69.5076916 C120.391754,69.5985298 121.145555,69.6906114 121.876029,69.7839379 L122.598728,69.8776795 L122.468154,70.869118 C121.756923,70.7754477 121.022307,70.6829941 120.264312,70.5917586 L119.498523,70.5009293 L119.614622,69.5076916 Z M113.637928,68.8772129 C114.323138,68.9426667 114.994465,69.008857 115.651912,69.0757839 L116.627671,69.176727 L116.523108,70.1712453 C115.801501,70.0953763 115.062298,70.0204282 114.3055,69.9464013 L113.542837,69.8726815 L113.637928,68.8772129 Z M107.650254,68.3402174 C108.238156,68.3955408 108.838018,68.4491045 109.449813,68.5009058 L110.053416,68.5523989 L110.053416,68.5523989 L110.645077,68.6037184 L110.557943,69.599915 C110.166728,69.5656969 109.772648,69.5317983 109.365468,69.4973425 C108.955536,69.4626331 108.550907,69.427134 108.15158,69.3908449 L107.556565,69.3358189 L107.650254,68.3402174 Z M101.673339,67.6617389 C102.38262,67.7584331 103.115995,67.8515993 103.873455,67.9412343 L104.638944,68.029692 L104.52682,69.0233862 C103.747671,68.9354703 102.992532,68.8439655 102.261397,68.7488685 L101.538262,68.652574 L101.673339,67.6617389 Z M95.7585116,66.6580187 C96.487657,66.8125986 97.2579822,66.9612358 98.0694521,67.1039094 L98.6857685,67.2097961 L98.5201967,68.1959938 C97.6772814,68.0544775 96.8753099,67.9067767 96.1142469,67.7528703 L95.5511196,67.6362766 L95.7585116,66.6580187 Z M90.1178348,65.0298547 C90.8088691,65.3115435 91.591029,65.5810383 92.4640208,65.8380009 L92.9080846,65.9654363 L92.6385904,66.9284383 C91.7054249,66.6672937 90.8624586,66.3919398 90.1093979,66.1020384 L89.7403583,65.9558738 L90.1178348,65.0298547 Z M85.2855065,61.4997669 L86.2855063,61.5002331 C86.2851763,62.2082898 86.6558153,62.8810165 87.4370798,63.5305362 L87.6246789,63.680019 L87.0171722,64.4743336 C85.8787222,63.6036257 85.2849903,62.6070563 85.2855065,61.4997669 Z" fill="#6882DA" fill-rule="nonzero"></path>
            </g>
            <rect id="矩形" x="0" y="0" width="301" height="95"></rect>
        </g>
    </g>
</svg>