<?xml version="1.0" encoding="UTF-8"?>
<svg width="240px" height="180px" viewBox="0 0 240 180" version="1.1" xmlns="http://www.w3.org/2000/svg" xmlns:xlink="http://www.w3.org/1999/xlink">
    <!-- Generator: Sketch 63.1 (92452) - https://sketch.com -->
    <title>数据图</title>
    <desc>Created with Sketch.</desc>
    <defs>
        <linearGradient x1="100%" y1="50%" x2="0%" y2="50%" id="linearGradient-1">
            <stop stop-color="#FAFAFA" offset="0%"></stop>
            <stop stop-color="#FAFAFA" offset="100%"></stop>
        </linearGradient>
    </defs>
    <g id="智能小助手" stroke="none" stroke-width="1" fill="none" fill-rule="evenodd">
        <g id="数据图">
            <path d="M136.782172,18 C137.610599,18 138.282172,18.6715729 138.282172,19.5 L138.281172,21 L139.782172,21 C140.610599,21 141.282172,21.6715729 141.282172,22.5 C141.282172,23.3284271 140.610599,24 139.782172,24 L138.281172,24 L138.282172,25.5 C138.282172,26.3284271 137.610599,27 136.782172,27 C135.953745,27 135.282172,26.3284271 135.282172,25.5 L135.281172,24 L133.782172,24 C132.953745,24 132.282172,23.3284271 132.282172,22.5 C132.282172,21.6715729 132.953745,21 133.782172,21 L135.281172,21 L135.282172,19.5 C135.282172,18.6715729 135.953745,18 136.782172,18 Z" id="形状结合备份" fill="#CCCCCC" transform="translate(136.782172, 22.500000) rotate(-360.000000) translate(-136.782172, -22.500000) "></path>
            <path d="M43.0527181,75.2196611 L142.238742,22.0699563 C168.735071,7.87166467 202.615796,16.2975618 217.913459,40.8897243 C233.211122,65.4818867 224.132809,96.9277629 197.63648,111.126055 L98.4504561,164.275759 C71.9541266,178.474051 38.0734016,170.048154 22.7757386,145.455991 C7.47807566,120.863829 16.5563886,89.4179527 43.0527181,75.2196611 Z" id="矩形" fill="url(#linearGradient-1)"></path>
            <path d="M44.5,81 L44.5,78 M44,67.433713 L44,52.721519 C44,50.6661808 45.6569649,49 47.7009346,49 L172.299065,49 C174.343035,49 176,50.6661808 176,52.721519 L176,143.278481 C176,145.333819 174.343035,147 172.299065,147 L47.7009346,147 C45.6569649,147 44,145.333819 44,143.278481 L44,91.157947 L44,91.157947" id="形状" fill-opacity="0.1" fill="#000000"></path>
            <path d="M56.217828,73 L56.217828,70 M55.717828,59.433713 L55.717828,44.721519 C55.717828,42.6661808 57.3747928,41 59.4187626,41 L184.016893,41 C186.060863,41 187.717828,42.6661808 187.717828,44.721519 L187.717828,135.278481 C187.717828,137.333819 186.060863,139 184.016893,139 L59.4187626,139 C57.3747928,139 55.717828,137.333819 55.717828,135.278481 L55.717828,83.157947 L55.717828,83.157947" id="形状" stroke="#666666" stroke-width="2" fill="#FFFFFF" stroke-linecap="round"></path>
            <path d="M80.5,157 C81.3284271,157 82,157.671573 82,158.5 L81.999,160 L83.5,160 C84.3284271,160 85,160.671573 85,161.5 C85,162.328427 84.3284271,163 83.5,163 L81.999,163 L82,164.5 C82,165.328427 81.3284271,166 80.5,166 C79.6715729,166 79,165.328427 79,164.5 L78.999,163 L77.5,163 C76.6715729,163 76,162.328427 76,161.5 C76,160.671573 76.6715729,160 77.5,160 L78.999,160 L79,158.5 C79,157.671573 79.6715729,157 80.5,157 Z" id="形状结合" fill="#CCCCCC" transform="translate(80.500000, 161.500000) rotate(-360.000000) translate(-80.500000, -161.500000) "></path>
            <circle id="椭圆形" fill="#BBBBBB" cx="42.782172" cy="95.5" r="1.5"></circle>
            <circle id="椭圆形备份" fill="#BBBBBB" cx="207.5" cy="80.5" r="1.5"></circle>
            <g id="编组-31" transform="translate(65.000000, 82.000000)">
                <line x1="4.01477123" y1="8.18823529" x2="98.9411765" y2="8.18823529" id="路径-65" stroke="#D4D9E6" stroke-width="0.4"></line>
                <rect id="矩形" stroke="#9E9E9E" stroke-width="0.2" fill="#D8D8D8" x="0" y="5.45882353" width="9.55294118" height="5.45882353"></rect>
                <rect id="矩形备份-118" stroke="#9E9E9E" stroke-width="0.2" fill="#D8D8D8" x="94.1647059" y="5.45882353" width="9.55294118" height="5.45882353"></rect>
                <rect id="矩形备份-119" stroke="#9E9E9E" stroke-width="0.2" fill="#D8D8D8" x="106.447059" y="5.45882353" width="9.55294118" height="5.45882353"></rect>
                <rect id="矩形" stroke="#A6A6A6" stroke-width="0.2" fill="#ECECEC" x="12.2823529" y="0" width="10.9176471" height="15.0117647"></rect>
                <rect id="矩形备份-113" stroke="#A6A6A6" stroke-width="0.2" fill="#ECECEC" x="25.9294118" y="0" width="10.9176471" height="15.0117647"></rect>
                <rect id="矩形备份-114" stroke="#A6A6A6" stroke-width="0.2" fill="#ECECEC" x="39.5764706" y="0" width="15.0117647" height="15.0117647"></rect>
                <rect id="矩形备份-115" stroke="#A6A6A6" stroke-width="0.2" fill="#ECECEC" x="57.3176471" y="0" width="9.55294118" height="15.0117647"></rect>
                <rect id="矩形备份-116" stroke="#A6A6A6" stroke-width="0.2" fill="#ECECEC" x="69.6" y="0" width="9.55294118" height="15.0117647"></rect>
                <rect id="矩形备份-117" stroke="#A6A6A6" stroke-width="0.2" fill="#ECECEC" x="81.8823529" y="0" width="9.55294118" height="15.0117647"></rect>
                <rect id="矩形" fill="#666666" opacity="0.6" x="15" y="3" width="5.45882353" height="1.36470588" rx="0.5"></rect>
                <rect id="矩形备份-120" fill="#666666" opacity="0.6" x="28.6588235" y="2.72941176" width="5.45882353" height="1.36470588" rx="0.5"></rect>
                <rect id="矩形备份-121" fill="#666666" opacity="0.6" x="42.3058824" y="2.72941176" width="9.55294118" height="1.36470588" rx="0.5"></rect>
                <rect id="矩形备份-122" fill="#666666" opacity="0.6" x="60.0470588" y="2.72941176" width="4.09411765" height="1.36470588" rx="0.5"></rect>
                <rect id="矩形备份-123" fill="#666666" opacity="0.6" x="72.3294118" y="2.72941176" width="4.09411765" height="1.36470588" rx="0.5"></rect>
                <rect id="矩形备份-124" fill="#666666" opacity="0.6" x="84.6117647" y="2.72941176" width="4.09411765" height="1.36470588" rx="0.5"></rect>
                <ellipse id="椭圆形" stroke="#9E9E9E" stroke-width="0.2" fill="#D8D8D8" cx="17.7411765" cy="10.9176471" rx="4.09411765" ry="2.72941176"></ellipse>
                <ellipse id="椭圆形备份-24" stroke="#9E9E9E" stroke-width="0.2" fill="#D8D8D8" cx="31.3882353" cy="10.9176471" rx="4.09411765" ry="2.72941176"></ellipse>
                <ellipse id="椭圆形备份-26" stroke="#9E9E9E" stroke-width="0.2" fill="#D8D8D8" cx="62.0941176" cy="10.9176471" rx="3.41176471" ry="2.72941176"></ellipse>
                <ellipse id="椭圆形备份-27" stroke="#9E9E9E" stroke-width="0.2" fill="#D8D8D8" cx="74.3764706" cy="10.9176471" rx="3.41176471" ry="2.72941176"></ellipse>
                <ellipse id="椭圆形备份-28" stroke="#9E9E9E" stroke-width="0.2" fill="#D8D8D8" cx="86.6588235" cy="10.9176471" rx="3.41176471" ry="2.72941176"></ellipse>
                <ellipse id="椭圆形备份-25" stroke="#9E9E9E" stroke-width="0.2" fill="#D8D8D8" cx="47.0823529" cy="10.9176471" rx="6.14117647" ry="2.72941176"></ellipse>
            </g>
        </g>
    </g>
</svg>