<?xml version="1.0" encoding="UTF-8"?>
<svg width="240px" height="180px" viewBox="0 0 240 180" version="1.1" xmlns="http://www.w3.org/2000/svg" xmlns:xlink="http://www.w3.org/1999/xlink">
    <!-- Generator: Sketch 63.1 (92452) - https://sketch.com -->
    <title>数据图</title>
    <desc>Created with Sketch.</desc>
    <defs>
        <linearGradient x1="100%" y1="50%" x2="0%" y2="50%" id="linearGradient-1">
            <stop stop-color="#EDF2FF" offset="0%"></stop>
            <stop stop-color="#ECFEFE" offset="100%"></stop>
        </linearGradient>
    </defs>
    <g id="智能小助手" stroke="none" stroke-width="1" fill="none" fill-rule="evenodd">
        <g id="数据图">
            <path d="M136.782172,18 C137.610599,18 138.282172,18.6715729 138.282172,19.5 L138.281172,21 L139.782172,21 C140.610599,21 141.282172,21.6715729 141.282172,22.5 C141.282172,23.3284271 140.610599,24 139.782172,24 L138.281172,24 L138.282172,25.5 C138.282172,26.3284271 137.610599,27 136.782172,27 C135.953745,27 135.282172,26.3284271 135.282172,25.5 L135.281172,24 L133.782172,24 C132.953745,24 132.282172,23.3284271 132.282172,22.5 C132.282172,21.6715729 132.953745,21 133.782172,21 L135.281172,21 L135.282172,19.5 C135.282172,18.6715729 135.953745,18 136.782172,18 Z" id="形状结合备份" fill="#BBE3E3" transform="translate(136.782172, 22.500000) rotate(-360.000000) translate(-136.782172, -22.500000) "></path>
            <path d="M43.0527181,75.2196611 L142.238742,22.0699563 C168.735071,7.87166467 202.615796,16.2975618 217.913459,40.8897243 C233.211122,65.4818867 224.132809,96.9277629 197.63648,111.126055 L98.4504561,164.275759 C71.9541266,178.474051 38.0734016,170.048154 22.7757386,145.455991 C7.47807566,120.863829 16.5563886,89.4179527 43.0527181,75.2196611 Z" id="矩形" fill="url(#linearGradient-1)"></path>
            <path d="M44.5,81 L44.5,78 M44,67.433713 L44,52.721519 C44,50.6661808 45.6569649,49 47.7009346,49 L172.299065,49 C174.343035,49 176,50.6661808 176,52.721519 L176,143.278481 C176,145.333819 174.343035,147 172.299065,147 L47.7009346,147 C45.6569649,147 44,145.333819 44,143.278481 L44,91.157947 L44,91.157947" id="形状" fill-opacity="0.1" fill="#00A5A7"></path>
            <path d="M56.5,73 L56.5,70 M56,59.433713 L56,44.721519 C56,42.6661808 57.6569649,41 59.7009346,41 L184.299065,41 C186.343035,41 188,42.6661808 188,44.721519 L188,135.278481 C188,137.333819 186.343035,139 184.299065,139 L59.7009346,139 C57.6569649,139 56,137.333819 56,135.278481 L56,83.157947 L56,83.157947" id="形状" stroke="#014848" stroke-width="2" fill="#FFFFFF" stroke-linecap="round"></path>
            <rect id="矩形" fill="#00A5A7" x="64" y="61" width="12" height="2" rx="1"></rect>
            <path d="M56,51 L126,51 C126.552285,51 127,51.4477153 127,52 C127,52.5522847 126.552285,53 126,53 L56,53 L56,53 L56,51 Z" id="矩形" fill="#00A5A7" opacity="0.1"></path>
            <rect id="矩形备份-100" fill="#D4D9E6" x="64" y="66" width="21" height="2" rx="1"></rect>
            <path d="M80.5,157 C81.3284271,157 82,157.671573 82,158.5 L81.999,160 L83.5,160 C84.3284271,160 85,160.671573 85,161.5 C85,162.328427 84.3284271,163 83.5,163 L81.999,163 L82,164.5 C82,165.328427 81.3284271,166 80.5,166 C79.6715729,166 79,165.328427 79,164.5 L78.999,163 L77.5,163 C76.6715729,163 76,162.328427 76,161.5 C76,160.671573 76.6715729,160 77.5,160 L78.999,160 L79,158.5 C79,157.671573 79.6715729,157 80.5,157 Z" id="形状结合" fill="#ACBCF0" transform="translate(80.500000, 161.500000) rotate(-360.000000) translate(-80.500000, -161.500000) "></path>
            <circle id="椭圆形" fill="#ACBCF0" cx="42.782172" cy="95.5" r="1.5"></circle>
            <circle id="椭圆形备份" fill="#BBE3E3" cx="207.5" cy="80.5" r="1.5"></circle>
            <circle id="椭圆形" fill-opacity="0.1" fill="#00A5A7" cx="181" cy="51" r="18"></circle>
            <circle id="椭圆形备份-3" fill-opacity="0.1" fill="#00A5A7" cx="55" cy="135" r="18"></circle>
            <path d="M196.071045,31.0788984 C193.196838,29.1351405 189.730982,28 186,28 C176.058875,28 168,36.0588745 168,46 C168,55.9411255 176.058875,64 186,64 C195.941125,64 204,55.9411255 204,46 C204,42.4508045 202.972781,39.1415289 201.199425,36.3532559" id="路径" stroke="#014848" stroke-width="2" fill="#97ABEF" stroke-linecap="round"></path>
            <g id="数据-(1)" transform="translate(179.000000, 39.000000)" fill="#FFFFFF" fill-rule="nonzero" stroke="#FFFFFF" stroke-width="0.4">
                <path d="M6.88218391,0.906968391 C7.75502874,0.906968391 8.60093391,0.980603448 9.39295977,1.12607759 C10.1436782,1.26257184 10.8117816,1.45833333 11.3811063,1.70258621 C11.8965517,1.92528736 12.3078305,2.18390805 12.5664511,2.44971264 C12.6957615,2.58261494 12.8502155,2.78017241 12.8502155,2.97772989 C12.8502155,3.17528736 12.6957615,3.37284483 12.5664511,3.50574713 C12.3060345,3.77155172 11.8965517,4.03017241 11.3811063,4.25287356 C10.8135776,4.49892241 10.1436782,4.69288793 9.39295977,4.82938218 C8.59913793,4.97485632 7.75502874,5.04849138 6.88218391,5.04849138 C6.00933908,5.04849138 5.16343391,4.97485632 4.37140805,4.82938218 C3.62068966,4.69288793 2.95258621,4.49712644 2.38326149,4.25287356 C1.86781609,4.03017241 1.45653736,3.77155172 1.19791667,3.50574713 C1.06860632,3.37284483 0.914152299,3.17528736 0.914152299,2.97772989 C0.914152299,2.78017241 1.06860632,2.58261494 1.19791667,2.44971264 C1.45833333,2.18390805 1.86781609,1.92528736 2.38326149,1.70258621 C2.95079023,1.45653736 3.62068966,1.26257184 4.37140805,1.12607759 C5.16522989,0.980603448 6.00933908,0.906968391 6.88218391,0.906968391 M6.88218391,0.00897988506 C3.08908046,0.00897988506 0.0161637931,1.33800287 0.0161637931,2.97772989 C0.0161637931,4.6174569 3.09087644,5.94468391 6.88218391,5.94468391 C10.6734914,5.94468391 13.748204,4.61566092 13.748204,2.97593391 C13.748204,1.3362069 10.6752874,0.00897988506 6.88218391,0.00897988506 Z M6.90373563,9.38397989 C5.13469828,9.38397989 3.46443966,9.1091954 2.20186782,8.60811782 C1.56070402,8.35308908 1.05064655,8.05136494 0.686063218,7.71012931 C0.264008621,7.31501437 0.0395114943,6.85883621 0.0395114943,6.39367816 L0.9375,6.39367816 C0.9375,6.86242816 1.53376437,7.37787356 2.53232759,7.77298851 C3.69252874,8.23275862 5.24425287,8.48599138 6.90373563,8.48599138 C8.56321839,8.48599138 10.1149425,8.23275862 11.2751437,7.77298851 C12.2737069,7.37787356 12.8699713,6.86242816 12.8699713,6.39367816 L13.7679598,6.39367816 C13.7679598,6.85883621 13.5452586,7.31501437 13.121408,7.71012931 C12.7568247,8.05136494 12.2467672,8.35308908 11.6056034,8.60811782 C10.3430316,9.1091954 8.67277299,9.38397989 6.90373563,9.38397989 Z M6.89116379,12.7765805 C5.12392241,12.7765805 3.45545977,12.5269397 2.19468391,12.0743534 C1.55352011,11.8444684 1.04346264,11.5696839 0.67887931,11.2607759 C0.131106322,10.7956178 0.0143678161,10.3304598 0.0143678161,10.0215517 L0.914152299,10.0215517 C0.914152299,10.3304598 1.33081897,10.8099856 2.49820402,11.2302443 C3.6637931,11.6487069 5.22449713,11.878592 6.89116379,11.878592 C8.55783046,11.878592 10.1167385,11.6487069 11.2841236,11.2302443 C12.4533046,10.8117816 12.8681753,10.3304598 12.8681753,10.0215517 L13.7679598,10.0215517 C13.7679598,10.3304598 13.6530172,10.7956178 13.1034483,11.2607759 C12.7388649,11.5696839 12.2288075,11.8444684 11.5876437,12.0743534 C10.3268678,12.5269397 8.65840517,12.7765805 6.89116379,12.7765805 Z M6.89116379,15.9698276 C5.12392241,15.9698276 3.45725575,15.7237787 2.19468391,15.2747845 C1.55352011,15.0466954 1.04346264,14.7755029 0.67887931,14.4683908 C0.129310345,14.0068247 0.0143678161,13.5434626 0.0143678161,13.2345546 L0.912356322,13.2345546 C0.912356322,13.5380747 1.32902299,14.0122126 2.49640805,14.4270833 C3.6637931,14.841954 5.22449713,15.0700431 6.89116379,15.0700431 C8.55783046,15.0700431 10.1185345,14.841954 11.2859195,14.4270833 C12.4533046,14.0122126 12.8699713,13.5380747 12.8699713,13.2345546 L13.7679598,13.2345546 C13.7679598,13.5416667 13.6530172,14.0050287 13.1034483,14.4683908 C12.7388649,14.7755029 12.2288075,15.0466954 11.5876437,15.2747845 C10.3250718,15.7237787 8.65840517,15.9698276 6.89116379,15.9698276 Z" id="形状"></path>
                <path d="M0.567528736,13.6314655 L0.448994253,13.6314655 C0.208333333,13.6314655 0.0125718391,13.435704 0.0125718391,13.1950431 L0.0125718391,3.07650862 C0.0125718391,2.8358477 0.208333333,2.64008621 0.448994253,2.64008621 L0.567528736,2.64008621 C0.756106322,2.64008621 0.910560345,2.79454023 0.910560345,2.98311782 L0.910560345,13.2884339 C0.910560345,13.4770115 0.756106322,13.6314655 0.567528736,13.6314655 Z M13.4249282,13.672773 L13.3063937,13.672773 C13.0657328,13.672773 12.8699713,13.4770115 12.8699713,13.2363506 L12.8699713,3.13577586 C12.8699713,2.89511494 13.0657328,2.69935345 13.3063937,2.69935345 L13.4249282,2.69935345 C13.6135057,2.69935345 13.7679598,2.85380747 13.7679598,3.04238506 L13.7679598,13.3297414 C13.7679598,13.518319 13.6135057,13.672773 13.4249282,13.672773 Z M11.3236351,5.90876437 C11.0111351,5.90876437 10.7579023,6.16199713 10.7579023,6.47449713 C10.7579023,6.78699713 11.0111351,7.04022989 11.3236351,7.04022989 C11.6361351,7.04022989 11.8893678,6.78699713 11.8893678,6.47449713 C11.8893678,6.16199713 11.6361351,5.90876437 11.3236351,5.90876437 Z M11.3236351,9.32112069 C11.0111351,9.32112069 10.7579023,9.57435345 10.7579023,9.88685345 C10.7579023,10.1993534 11.0111351,10.4525862 11.3236351,10.4525862 C11.6361351,10.4525862 11.8893678,10.1993534 11.8893678,9.88685345 C11.8893678,9.57435345 11.6361351,9.32112069 11.3236351,9.32112069 Z M11.3236351,12.6975575 C11.0111351,12.6975575 10.7579023,12.9507902 10.7579023,13.2632902 C10.7579023,13.5757902 11.0111351,13.829023 11.3236351,13.829023 C11.6361351,13.829023 11.8893678,13.5757902 11.8893678,13.2632902 C11.8893678,12.9507902 11.6361351,12.6975575 11.3236351,12.6975575 Z" id="形状"></path>
            </g>
            <path d="M72.5637829,141.9082 C73.0480419,141.29499 73.4883661,140.64548 73.8800055,139.964421 C75.2286726,137.619092 76,134.899623 76,132 C76,123.163444 68.836556,116 60,116 C54.8379246,116 50.2468118,118.444581 47.3211786,122.239227 C45.2386475,124.94034 44,128.325519 44,132 C44,132.792904 44.0576762,133.572337 44.1690622,134.334332 C44.686342,137.873063 46.3619808,141.035718 48.7986984,143.425016 C51.6848124,146.254966 55.6386189,148 60,148 C62.3396615,148 64.562032,147.497817 66.5652032,146.59536" id="路径" stroke="#014848" stroke-width="2" fill="#A2E5E6" stroke-linecap="round"></path>
            <circle id="椭圆形" stroke="#FFFFFF" stroke-width="1.4" cx="63" cy="128" r="3"></circle>
            <ellipse id="椭圆形备份-2" stroke="#FFFFFF" stroke-width="1.4" cx="54" cy="131" rx="3" ry="2"></ellipse>
            <rect id="矩形" stroke="#FFFFFF" stroke-width="1.4" x="59" y="134" width="6" height="6"></rect>
            <g id="编组-31" transform="translate(65.000000, 88.000000)">
                <line x1="4.01477123" y1="8.18823529" x2="98.9411765" y2="8.18823529" id="路径-65" stroke="#D4D9E6" stroke-width="0.4"></line>
                <rect id="矩形" stroke="#00A5A7" stroke-width="0.2" fill="#AAF2F3" x="0" y="5.45882353" width="9.55294118" height="5.45882353"></rect>
                <rect id="矩形备份-118" stroke="#00A5A7" stroke-width="0.2" fill="#AAF2F3" x="94.1647059" y="5.45882353" width="9.55294118" height="5.45882353"></rect>
                <rect id="矩形备份-119" stroke="#00A5A7" stroke-width="0.2" fill="#AAF2F3" x="106.447059" y="5.45882353" width="9.55294118" height="5.45882353"></rect>
                <rect id="矩形" stroke="#00A5A7" stroke-width="0.2" fill="#DCFCFC" x="12.2823529" y="0" width="10.9176471" height="15.0117647"></rect>
                <rect id="矩形备份-113" stroke="#00A5A7" stroke-width="0.2" fill="#DCFCFC" x="25.9294118" y="0" width="10.9176471" height="15.0117647"></rect>
                <rect id="矩形备份-114" stroke="#00A5A7" stroke-width="0.2" fill="#DCFCFC" x="39.5764706" y="0" width="15.0117647" height="15.0117647"></rect>
                <rect id="矩形备份-115" stroke="#00A5A7" stroke-width="0.2" fill="#DCFCFC" x="57.3176471" y="0" width="9.55294118" height="15.0117647"></rect>
                <rect id="矩形备份-116" stroke="#00A5A7" stroke-width="0.2" fill="#DCFCFC" x="69.6" y="0" width="9.55294118" height="15.0117647"></rect>
                <rect id="矩形备份-117" stroke="#00A5A7" stroke-width="0.2" fill="#DCFCFC" x="81.8823529" y="0" width="9.55294118" height="15.0117647"></rect>
                <rect id="矩形" fill="#00A5A7" opacity="0.6" x="15.0117647" y="2.72941176" width="5.45882353" height="1.36470588" rx="0.5"></rect>
                <rect id="矩形备份-120" fill="#00A5A7" opacity="0.6" x="28.6588235" y="2.72941176" width="5.45882353" height="1.36470588" rx="0.5"></rect>
                <rect id="矩形备份-121" fill="#00A5A7" opacity="0.6" x="42.3058824" y="2.72941176" width="9.55294118" height="1.36470588" rx="0.5"></rect>
                <rect id="矩形备份-122" fill="#00A5A7" opacity="0.6" x="60.0470588" y="2.72941176" width="4.09411765" height="1.36470588" rx="0.5"></rect>
                <rect id="矩形备份-123" fill="#00A5A7" opacity="0.6" x="72.3294118" y="2.72941176" width="4.09411765" height="1.36470588" rx="0.5"></rect>
                <rect id="矩形备份-124" fill="#00A5A7" opacity="0.6" x="84.6117647" y="2.72941176" width="4.09411765" height="1.36470588" rx="0.5"></rect>
                <ellipse id="椭圆形" stroke="#00A5A7" stroke-width="0.2" fill="#AAF2F3" cx="17.7411765" cy="10.9176471" rx="4.09411765" ry="2.72941176"></ellipse>
                <ellipse id="椭圆形备份-24" stroke="#00A5A7" stroke-width="0.2" fill="#AAF2F3" cx="31.3882353" cy="10.9176471" rx="4.09411765" ry="2.72941176"></ellipse>
                <ellipse id="椭圆形备份-26" stroke="#00A5A7" stroke-width="0.2" fill="#AAF2F3" cx="62.0941176" cy="10.9176471" rx="3.41176471" ry="2.72941176"></ellipse>
                <ellipse id="椭圆形备份-27" stroke="#00A5A7" stroke-width="0.2" fill="#AAF2F3" cx="74.3764706" cy="10.9176471" rx="3.41176471" ry="2.72941176"></ellipse>
                <ellipse id="椭圆形备份-28" stroke="#00A5A7" stroke-width="0.2" fill="#AAF2F3" cx="86.6588235" cy="10.9176471" rx="3.41176471" ry="2.72941176"></ellipse>
                <ellipse id="椭圆形备份-25" stroke="#00A5A7" stroke-width="0.2" fill="#AAF2F3" cx="47.0823529" cy="10.9176471" rx="6.14117647" ry="2.72941176"></ellipse>
            </g>
        </g>
    </g>
</svg>