<?xml version="1.0" encoding="UTF-8"?>
<svg width="24px" height="19px" viewBox="0 0 24 19" version="1.1" xmlns="http://www.w3.org/2000/svg" xmlns:xlink="http://www.w3.org/1999/xlink">
    <!-- Generator: Sketch 63.1 (92452) - https://sketch.com -->
    <title>yuce</title>
    <desc>Created with Sketch.</desc>
    <defs>
        <path d="M17.1480906,0.0392739336 L18.3266093,0.00728953835 C18.6341197,-0.00105613749 18.9283586,0.132596377 19.1243929,0.369667804 L20,1.42857143 L20,1.42857143 L10.4761905,1.42857143 L10.4761905,0.0392739336 L17.1480906,0.0392739336 Z" id="path-1"></path>
        <filter x="-36.8%" y="-174.5%" width="173.5%" height="589.5%" filterUnits="objectBoundingBox" id="filter-2">
            <feOffset dx="0" dy="1" in="SourceAlpha" result="shadowOffsetOuter1"></feOffset>
            <feGaussianBlur stdDeviation="1" in="shadowOffsetOuter1" result="shadowBlurOuter1"></feGaussianBlur>
            <feColorMatrix values="0 0 0 0 0   0 0 0 0 0   0 0 0 0 0  0 0 0 0.2 0" type="matrix" in="shadowBlurOuter1"></feColorMatrix>
        </filter>
        <path d="M1,0 L18.04761,0 C18.5998948,-2.12475365e-16 19.04761,0.44771525 19.04761,1 L19.04761,10.875081 C19.0475959,11.6828644 18.5616641,12.411342 17.8158526,12.721631 C14.1649895,14.2405437 11.4009752,15 9.52380952,15 C7.64664694,15 4.88263611,14.2405461 1.23177702,12.7216384 C0.485941676,12.4113657 9.8926869e-17,11.682874 0,10.8750748 L0,1 C-6.76353751e-17,0.44771525 0.44771525,1.01453063e-16 1,0 Z" id="path-3"></path>
        <filter x="-18.4%" y="-16.7%" width="136.8%" height="146.7%" filterUnits="objectBoundingBox" id="filter-4">
            <feOffset dx="0" dy="1" in="SourceAlpha" result="shadowOffsetOuter1"></feOffset>
            <feGaussianBlur stdDeviation="1" in="shadowOffsetOuter1" result="shadowBlurOuter1"></feGaussianBlur>
            <feColorMatrix values="0 0 0 0 0   0 0 0 0 0   0 0 0 0 0  0 0 0 0.2 0" type="matrix" in="shadowBlurOuter1"></feColorMatrix>
        </filter>
    </defs>
    <g id="MindExplain" stroke="none" stroke-width="1" fill="none" fill-rule="evenodd">
        <g id="yuce" transform="translate(12.000000, 8.500000) scale(-1, 1) translate(-12.000000, -8.500000) translate(2.000000, 1.000000)" fill-rule="nonzero">
            <g id="Rectangle-34">
                <use fill="black" fill-opacity="1" filter="url(#filter-2)" xlink:href="#path-1"></use>
                <use fill="#B37B00" xlink:href="#path-1"></use>
            </g>
            <g id="Rectangle-34">
                <use fill="black" fill-opacity="1" filter="url(#filter-4)" xlink:href="#path-3"></use>
                <use fill="#FFAF00" xlink:href="#path-3"></use>
            </g>
            <path d="M6.28,8.52 L6.28,5.336 L8.384,5.336 L8.384,8.52 L9.096,8.52 L9.096,4.664 L7.632,4.664 C7.68,4.432 7.728,4.192 7.76,3.936 L9.328,3.936 L9.328,3.224 L5.336,3.224 L5.336,3.936 L7.016,3.936 C6.984,4.184 6.952,4.424 6.904,4.664 L5.568,4.664 L5.568,8.52 L6.28,8.52 Z M3.136,10.296 C3.584,10.296 3.808,10.048 3.808,9.568 L3.808,6.4 L4.464,6.4 C4.36,6.776 4.24,7.104 4.104,7.384 L4.728,7.624 C4.904,7.272 5.048,6.784 5.176,6.16 L5.176,5.696 L4.232,5.696 C4.136,5.576 4.032,5.448 3.92,5.304 C4.288,4.896 4.632,4.4 4.952,3.816 L4.952,3.224 L2.224,3.224 L2.224,3.928 L4.144,3.928 C3.936,4.256 3.72,4.552 3.48,4.816 C3.32,4.64 3.136,4.456 2.944,4.264 L2.384,4.616 C2.784,5 3.12,5.36 3.408,5.696 L2,5.696 L2,6.4 L3.088,6.4 L3.088,9.392 C3.088,9.568 3.016,9.656 2.888,9.656 C2.664,9.656 2.44,9.64 2.2,9.608 L2.352,10.296 L3.136,10.296 Z M5.376,10.328 C6.16,10.064 6.736,9.696 7.088,9.216 C7.448,8.704 7.648,8.016 7.68,7.152 L7.68,5.736 L6.944,5.736 L6.944,7.152 C6.92,7.8 6.776,8.328 6.512,8.736 C6.232,9.12 5.712,9.432 4.96,9.68 L5.376,10.328 Z M8.88,10.328 L9.408,9.8 C9.024,9.368 8.544,8.928 7.984,8.488 L7.504,8.96 C8.096,9.448 8.552,9.904 8.88,10.328 Z M16.384,10.272 C16.856,10.272 17.096,10.008 17.096,9.496 L17.096,3 L16.384,3 L16.384,9.32 C16.384,9.512 16.296,9.616 16.136,9.616 C15.88,9.616 15.616,9.6 15.344,9.568 L15.504,10.272 L16.384,10.272 Z M11.216,4.664 L11.72,4.16 C11.416,3.8 11.048,3.44 10.608,3.08 L10.088,3.576 C10.576,3.96 10.952,4.328 11.216,4.664 Z M12.576,8.32 L12.576,3.976 L14.072,3.976 L14.072,8.272 L14.744,8.272 L14.744,3.328 L11.904,3.328 L11.904,8.32 L12.576,8.32 Z M15.88,8.6 L15.88,3.656 L15.216,3.656 L15.216,8.6 L15.88,8.6 Z M11.912,10.352 C12.504,10.064 12.936,9.672 13.2,9.16 C13.472,8.608 13.616,7.872 13.64,6.952 L13.64,4.44 L13.016,4.44 L13.016,6.952 C12.992,7.664 12.88,8.24 12.68,8.688 C12.472,9.104 12.088,9.448 11.52,9.72 L11.912,10.352 Z M11.064,6.704 L11.56,6.2 C11.264,5.816 10.904,5.432 10.48,5.04 L9.96,5.536 C10.432,5.952 10.8,6.336 11.064,6.704 Z M10.688,10.24 C11.048,9.376 11.376,8.456 11.664,7.48 L11.024,7.232 C10.736,8.16 10.392,9.064 10,9.944 L10.688,10.24 Z M14.552,10.336 L15.056,9.84 C14.736,9.424 14.352,9.016 13.888,8.6 L13.432,9.04 C13.912,9.504 14.288,9.936 14.552,10.336 Z" id="预测" fill="#FFFFFF" transform="translate(9.548000, 6.676000) scale(-1, 1) translate(-9.548000, -6.676000) "></path>
        </g>
    </g>
</svg>