<?xml version="1.0" encoding="UTF-8"?>
<svg width="24px" height="19px" viewBox="0 0 24 19" version="1.1" xmlns="http://www.w3.org/2000/svg" xmlns:xlink="http://www.w3.org/1999/xlink">
    <!-- Generator: Sketch 63.1 (92452) - https://sketch.com -->
    <title>真实</title>
    <desc>Created with Sketch.</desc>
    <defs>
        <path d="M17.1480906,0.0392739336 L18.3266093,0.00728953835 C18.6341197,-0.00105613749 18.9283586,0.132596377 19.1243929,0.369667804 L20,1.42857143 L20,1.42857143 L10.4761905,1.42857143 L10.4761905,0.0392739336 L17.1480906,0.0392739336 Z" id="path-1"></path>
        <filter x="-36.8%" y="-174.5%" width="173.5%" height="589.5%" filterUnits="objectBoundingBox" id="filter-2">
            <feOffset dx="0" dy="1" in="SourceAlpha" result="shadowOffsetOuter1"></feOffset>
            <feGaussianBlur stdDeviation="1" in="shadowOffsetOuter1" result="shadowBlurOuter1"></feGaussianBlur>
            <feColorMatrix values="0 0 0 0 0   0 0 0 0 0   0 0 0 0 0  0 0 0 0.2 0" type="matrix" in="shadowBlurOuter1"></feColorMatrix>
        </filter>
        <path d="M1,0 L18.04761,0 C18.5998948,-2.12475365e-16 19.04761,0.44771525 19.04761,1 L19.04761,10.875081 C19.0475959,11.6828644 18.5616641,12.411342 17.8158526,12.721631 C14.1649895,14.2405437 11.4009752,15 9.52380952,15 C7.64664694,15 4.88263611,14.2405461 1.23177702,12.7216384 C0.485941676,12.4113657 9.8926869e-17,11.682874 0,10.8750748 L0,1 C-6.76353751e-17,0.44771525 0.44771525,1.01453063e-16 1,0 Z" id="path-3"></path>
        <filter x="-18.4%" y="-16.7%" width="136.8%" height="146.7%" filterUnits="objectBoundingBox" id="filter-4">
            <feOffset dx="0" dy="1" in="SourceAlpha" result="shadowOffsetOuter1"></feOffset>
            <feGaussianBlur stdDeviation="1" in="shadowOffsetOuter1" result="shadowBlurOuter1"></feGaussianBlur>
            <feColorMatrix values="0 0 0 0 0   0 0 0 0 0   0 0 0 0 0  0 0 0 0.2 0" type="matrix" in="shadowBlurOuter1"></feColorMatrix>
        </filter>
    </defs>
    <g id="MindExplain" stroke="none" stroke-width="1" fill="none" fill-rule="evenodd">
        <g id="真实" transform="translate(12.000000, 8.500000) scale(-1, 1) translate(-12.000000, -8.500000) translate(2.000000, 1.000000)" fill-rule="nonzero">
            <g id="Rectangle-34">
                <use fill="black" fill-opacity="1" filter="url(#filter-2)" xlink:href="#path-1"></use>
                <use fill="#007475" xlink:href="#path-1"></use>
            </g>
            <g id="Rectangle-34">
                <use fill="black" fill-opacity="1" filter="url(#filter-4)" xlink:href="#path-3"></use>
                <use fill="#00A5A7" xlink:href="#path-3"></use>
            </g>
            <path d="M8.648,10.488 L9.04,9.888 C8.448,9.568 7.8,9.28 7.088,9.04 L9.12,9.04 L9.12,8.368 L8.104,8.368 L8.104,4.632 L5.864,4.632 C5.896,4.504 5.92,4.368 5.952,4.224 L8.824,4.224 L8.824,3.568 L6.064,3.568 C6.08,3.424 6.104,3.28 6.12,3.12 L5.352,3.016 C5.336,3.192 5.312,3.376 5.28,3.568 L2.296,3.568 L2.296,4.224 L5.176,4.224 C5.152,4.36 5.128,4.496 5.096,4.632 L3.136,4.632 L3.136,8.368 L2,8.368 L2,9.04 L4.112,9.04 C3.584,9.36 2.936,9.632 2.168,9.84 L2.48,10.488 C3.376,10.208 4.136,9.856 4.76,9.424 L4.424,9.04 L6.648,9.04 L6.392,9.432 C7.16,9.688 7.912,10.04 8.648,10.488 Z M7.384,5.592 L3.864,5.592 L3.864,5.232 L7.384,5.232 L7.384,5.592 Z M7.384,6.512 L3.864,6.512 L3.864,6.16 L7.384,6.16 L7.384,6.512 Z M7.384,7.424 L3.864,7.424 L3.864,7.072 L7.384,7.072 L7.384,7.424 Z M7.384,8.368 L3.864,8.368 L3.864,7.984 L7.384,7.984 L7.384,8.368 Z M10.944,5.392 L10.944,4.448 L16.16,4.448 L16.16,5.392 L16.896,5.392 L16.896,3.752 L13.976,3.752 C13.896,3.472 13.808,3.224 13.712,3 L12.936,3.128 C13.032,3.32 13.12,3.528 13.208,3.752 L10.208,3.752 L10.208,5.392 L10.944,5.392 Z M13.248,6.184 L13.64,5.584 C13.176,5.256 12.656,4.976 12.088,4.752 L11.712,5.312 C12.24,5.52 12.752,5.816 13.248,6.184 Z M16.664,10.48 L17.08,9.824 C16.152,9.248 15.136,8.736 14.032,8.304 C14.064,8.24 14.104,8.176 14.144,8.112 L16.968,8.112 L16.968,7.392 L14.456,7.392 C14.616,6.912 14.704,6.376 14.728,5.784 L14.728,4.808 L13.992,4.808 L13.992,5.784 C13.96,6.376 13.848,6.912 13.656,7.392 L10.16,7.392 L10.16,8.112 L13.264,8.112 L13.128,8.296 C12.592,8.904 11.576,9.4 10.088,9.792 L10.504,10.44 C11.928,10.072 12.968,9.544 13.616,8.856 C14.656,9.272 15.672,9.808 16.664,10.48 Z M12.472,7.312 L12.864,6.712 C12.392,6.384 11.872,6.104 11.304,5.872 L10.928,6.44 C11.456,6.648 11.976,6.936 12.472,7.312 Z" fill="#FFFFFF" transform="translate(9.540000, 6.744000) scale(-1, 1) translate(-9.540000, -6.744000) "></path>
        </g>
    </g>
</svg>