<?xml version="1.0" encoding="UTF-8"?>
<svg width="240px" height="180px" viewBox="0 0 240 180" version="1.1" xmlns="http://www.w3.org/2000/svg" xmlns:xlink="http://www.w3.org/1999/xlink">
    <!-- Generator: Sketch 63.1 (92452) - https://sketch.com -->
    <title>计算图</title>
    <desc>Created with Sketch.</desc>
    <defs>
        <linearGradient x1="100%" y1="50%" x2="0%" y2="50%" id="linearGradient-1">
            <stop stop-color="#EDF2FF" offset="0%"></stop>
            <stop stop-color="#ECFEFE" offset="100%"></stop>
        </linearGradient>
    </defs>
    <g id="智能小助手" stroke="none" stroke-width="1" fill="none" fill-rule="evenodd">
        <g id="计算图">
            <path d="M136.782172,18 C137.610599,18 138.282172,18.6715729 138.282172,19.5 L138.281172,21 L139.782172,21 C140.610599,21 141.282172,21.6715729 141.282172,22.5 C141.282172,23.3284271 140.610599,24 139.782172,24 L138.281172,24 L138.282172,25.5 C138.282172,26.3284271 137.610599,27 136.782172,27 C135.953745,27 135.282172,26.3284271 135.282172,25.5 L135.281172,24 L133.782172,24 C132.953745,24 132.282172,23.3284271 132.282172,22.5 C132.282172,21.6715729 132.953745,21 133.782172,21 L135.281172,21 L135.282172,19.5 C135.282172,18.6715729 135.953745,18 136.782172,18 Z" id="形状结合备份" fill="#BBE3E3" transform="translate(136.782172, 22.500000) rotate(-360.000000) translate(-136.782172, -22.500000) "></path>
            <path d="M43.0527181,75.2196611 L142.238742,22.0699563 C168.735071,7.87166467 202.615796,16.2975618 217.913459,40.8897243 C233.211122,65.4818867 224.132809,96.9277629 197.63648,111.126055 L98.4504561,164.275759 C71.9541266,178.474051 38.0734016,170.048154 22.7757386,145.455991 C7.47807566,120.863829 16.5563886,89.4179527 43.0527181,75.2196611 Z" id="矩形" fill="url(#linearGradient-1)"></path>
            <path d="M44.5,81 L44.5,78 M44,67.433713 L44,52.721519 C44,50.6661808 45.6569649,49 47.7009346,49 L172.299065,49 C174.343035,49 176,50.6661808 176,52.721519 L176,143.278481 C176,145.333819 174.343035,147 172.299065,147 L47.7009346,147 C45.6569649,147 44,145.333819 44,143.278481 L44,91.157947 L44,91.157947" id="形状" fill-opacity="0.1" fill="#00A5A7"></path>
            <path d="M56.5,73 L56.5,70 M56,59.433713 L56,44.721519 C56,42.6661808 57.6569649,41 59.7009346,41 L184.299065,41 C186.343035,41 188,42.6661808 188,44.721519 L188,135.278481 C188,137.333819 186.343035,139 184.299065,139 L59.7009346,139 C57.6569649,139 56,137.333819 56,135.278481 L56,83.157947 L56,83.157947" id="形状" stroke="#014848" stroke-width="2" fill="#FFFFFF" stroke-linecap="round"></path>
            <g id="编组-27" transform="translate(81.000000, 50.000000)">
                <rect id="矩形" fill="#6EDEDF" x="37" y="81" width="5" height="3"></rect>
                <rect id="矩形" stroke="#98F1F2" stroke-width="0.2" fill="#EFFEFE" x="0" y="0" width="78" height="75"></rect>
                <rect id="矩形" stroke="#98F1F2" stroke-width="0.2" fill="#DEFFFF" x="55" y="25" width="21" height="27"></rect>
                <rect id="矩形" stroke="#98F1F2" stroke-width="0.2" fill="#EAFCFC" x="3" y="7" width="50" height="63"></rect>
                <rect id="矩形" stroke="#98F1F2" stroke-width="0.2" fill="#DEFFFF" x="5" y="11" width="45" height="49"></rect>
                <g id="编组-24" transform="translate(8.572751, 15.500000)" stroke-width="0.4">
                    <line x1="0.5" y1="12.5" x2="0.5" y2="15.5956987" id="路径-41" stroke="#D4D9E6"></line>
                    <path d="" id="路径-42" stroke="#979797"></path>
                    <path d="M0.5,18.5 C0.284647834,18.5 1.00866807,22.2936838 7.42724939,22.2936838" id="路径-43" stroke="#D4D9E6" stroke-linecap="round"></path>
                    <line x1="20.9272494" y1="5" x2="23.4272494" y2="16.2411972" id="路径-45" stroke="#D4D9E6"></line>
                    <line x1="23.4272494" y1="16" x2="20.4272494" y2="27.5" id="路径-46" stroke="#D4D9E6"></line>
                    <path d="M9.92724939,21.996583 C11.9140144,25.6655277 15.4140144,27.5 20.4272494,27.5" id="路径-47" stroke="#D4D9E6"></path>
                    <line x1="20.4272494" y1="27.7519689" x2="17.4272494" y2="33" id="路径-48" stroke="#D4D9E6"></line>
                    <line x1="17.4272494" y1="33" x2="10.9272494" y2="38" id="路径-57" stroke="#D4D9E6"></line>
                    <polyline id="路径-58" stroke="#D4D9E6" points="12.4272494 44.5 13.0502285 48.9122594 18.2876559 54.5"></polyline>
                    <line x1="27.4272494" y1="0" x2="20.4272494" y2="5" id="路径-59" stroke="#D4D9E6"></line>
                    <polyline id="路径-60" stroke="#D4D9E6" points="50.4272494 15 52.4272494 20 52.4272494 25.1628607 52.4272494 31.5"></polyline>
                    <path d="M61.4272494,14.0478493 L61.4272494,20.3968419 C60.36192,23.5222929 57.36192,25.2233456 52.4272494,25.5" id="路径-61" stroke="#D4D9E6"></path>
                </g>
                <rect id="矩形" fill="#6EDEDF" x="6" y="25" width="8" height="3"></rect>
                <rect id="矩形备份-106" fill="#6EDEDF" x="7" y="31" width="5" height="3"></rect>
                <rect id="矩形备份-107" fill="#6EDEDF" x="15" y="63" width="14" height="3"></rect>
                <rect id="矩形备份-102" fill="#6EDEDF" x="27" y="19" width="5" height="3"></rect>
                <rect id="矩形备份-103" fill="#6EDEDF" x="33" y="14" width="6" height="3"></rect>
                <rect id="矩形备份-104" fill="#6EDEDF" x="29" y="30" width="6" height="3"></rect>
                <rect id="矩形备份-108" fill="#6EDEDF" x="67" y="34" width="6" height="3" rx="1"></rect>
                <rect id="矩形备份-109" fill="#6EDEDF" x="56" y="29" width="6" height="3" rx="1"></rect>
                <rect id="矩形备份-105" fill="#6EDEDF" x="16" y="36" width="5" height="3"></rect>
                <rect id="矩形" fill="#00A5A7" opacity="0.6" x="37" y="3" width="6" height="1" rx="0.5"></rect>
                <rect id="矩形备份-110" fill="#00A5A7" opacity="0.6" x="62" y="26" width="6" height="1" rx="0.5"></rect>
                <rect id="矩形备份-111" fill="#00A5A7" opacity="0.6" x="25" y="9" width="6" height="1" rx="0.5"></rect>
                <rect id="矩形备份-112" fill="#00A5A7" opacity="0.6" x="24" y="13" width="6" height="1" rx="0.5"></rect>
                <line x1="26.8604065" y1="70" x2="39.5" y2="75" id="路径-39" stroke="#D4D9E6" stroke-width="0.4"></line>
                <line x1="39.5" y1="81" x2="39.5" y2="75" id="路径-40" stroke="#D4D9E6" stroke-width="0.4"></line>
                <polygon id="多边形" fill="#6EDEDF" points="29 41 32.5355339 41.5857864 34 43 32.5355339 44.4142136 29 45 25.4644661 44.4142136 24 43 25.4644661 41.5857864"></polygon>
                <polygon id="多边形备份" fill="#6EDEDF" points="61 34 64.5355339 34.4393398 66 35.5 64.5355339 36.5606602 61 37 57.4644661 36.5606602 56 35.5 57.4644661 34.4393398"></polygon>
                <polygon id="多边形备份-2" fill="#6EDEDF" points="70 28 73.5355339 28.4393398 75 29.5 73.5355339 30.5606602 70 31 66.4644661 30.5606602 65 29.5 66.4644661 28.4393398"></polygon>
                <polygon id="多边形备份-3" fill="#6EDEDF" points="61 39 63.1213203 39.4393398 64 40.5 63.1213203 41.5606602 61 42 58.8786797 41.5606602 58 40.5 58.8786797 39.4393398"></polygon>
                <ellipse id="椭圆形" fill="#6EDEDF" cx="27" cy="48.5" rx="3" ry="1.5"></ellipse>
                <ellipse id="椭圆形备份-23" fill="#6EDEDF" cx="62" cy="46.5" rx="3" ry="1.5"></ellipse>
                <ellipse id="椭圆形备份-22" fill="#6EDEDF" cx="20.5" cy="53.5" rx="2.5" ry="1.5"></ellipse>
                <path d="M66,52 C64.7636675,65.6377298 55.9545844,73.3043964 39.5727506,75" id="路径-62" stroke="#D4D9E6" stroke-width="0.4"></path>
            </g>
            <path d="M80.5,157 C81.3284271,157 82,157.671573 82,158.5 L81.999,160 L83.5,160 C84.3284271,160 85,160.671573 85,161.5 C85,162.328427 84.3284271,163 83.5,163 L81.999,163 L82,164.5 C82,165.328427 81.3284271,166 80.5,166 C79.6715729,166 79,165.328427 79,164.5 L78.999,163 L77.5,163 C76.6715729,163 76,162.328427 76,161.5 C76,160.671573 76.6715729,160 77.5,160 L78.999,160 L79,158.5 C79,157.671573 79.6715729,157 80.5,157 Z" id="形状结合" fill="#ACBCF0" transform="translate(80.500000, 161.500000) rotate(-360.000000) translate(-80.500000, -161.500000) "></path>
            <circle id="椭圆形" fill="#ACBCF0" cx="42.782172" cy="95.5" r="1.5"></circle>
            <circle id="椭圆形备份" fill="#BBE3E3" cx="207.5" cy="80.5" r="1.5"></circle>
            <circle id="椭圆形" fill-opacity="0.1" fill="#00A5A7" cx="181" cy="51" r="18"></circle>
            <circle id="椭圆形备份-3" fill-opacity="0.1" fill="#00A5A7" cx="55" cy="135" r="18"></circle>
            <path d="M196.071045,31.0788984 C193.196838,29.1351405 189.730982,28 186,28 C176.058875,28 168,36.0588745 168,46 C168,55.9411255 176.058875,64 186,64 C195.941125,64 204,55.9411255 204,46 C204,42.4508045 202.972781,39.1415289 201.199425,36.3532559" id="路径" stroke="#014848" stroke-width="2" fill="#97ABEF" stroke-linecap="round"></path>
            <g id="graph" transform="translate(179.000000, 38.000000)" fill="#FFFFFF" fill-rule="nonzero">
                <path d="M9.58349799,11.7874409 C9.30987544,11.7874409 9.03625287,11.9242522 8.89944159,12.1978747 L5.34234833,9.05121532 C5.75278218,8.5039702 5.88959346,7.68310253 5.75278218,6.99904613 L8.76263032,6.17817846 C9.30987544,7.27266868 10.8147995,7.95672508 11.9092897,7.40947997 C13.1405912,6.86223485 13.6878364,5.49412206 13.2774025,4.26282056 C12.7301574,3.03151904 11.3620446,2.48427394 10.1307431,3.03151904 C9.72030927,3.16833032 9.44668671,3.3051416 9.17306415,3.57876416 L7.66814008,2.62108521 C7.80495135,2.21065137 7.94176263,1.66340627 7.66814008,1.11616115 C7.25770623,0.158482197 6.16321601,-0.251951648 5.20553706,0.158482181 C4.38466939,0.568916025 3.97423554,1.66340625 4.24785811,2.62108521 C4.65829195,3.57876416 5.75278218,3.98919801 6.71046113,3.57876416 C6.98408368,3.44195289 7.12089497,3.30514161 7.25770625,3.16833032 L8.89944159,4.26282056 C8.62581904,4.53644311 8.62581904,5.08368823 8.62581904,5.49412206 L5.6159709,6.31498975 C4.93191451,4.6732544 3.29017916,3.98919801 1.78525508,4.67325439 C0.280331007,5.35731078 -0.40372539,6.99904613 0.280331007,8.5039702 C0.827576127,10.0088943 2.60612275,10.6929507 4.11104683,10.1457056 C4.38466939,10.0088943 4.65829195,9.87208301 4.93191451,9.59846044 L8.48900775,12.7451199 C8.07857391,13.292365 7.94176263,14.1132326 8.2153852,14.9341003 C8.76263032,16.1654018 10.1307431,16.7126469 11.4988559,16.1654018 C12.7301574,15.6181567 13.2774025,14.2500439 12.7301574,12.8819311 C12.1829123,11.7874409 10.8147995,11.2401958 9.58349799,11.7874409 L9.58349799,11.7874409 Z" id="路径"></path>
            </g>
            <path d="M72.5637829,141.9082 C73.0480419,141.29499 73.4883661,140.64548 73.8800055,139.964421 C75.2286726,137.619092 76,134.899623 76,132 C76,123.163444 68.836556,116 60,116 C54.8379246,116 50.2468118,118.444581 47.3211786,122.239227 C45.2386475,124.94034 44,128.325519 44,132 C44,132.792904 44.0576762,133.572337 44.1690622,134.334332 C44.686342,137.873063 46.3619808,141.035718 48.7986984,143.425016 C51.6848124,146.254966 55.6386189,148 60,148 C62.3396615,148 64.562032,147.497817 66.5652032,146.59536" id="路径" stroke="#014848" stroke-width="2" fill="#A2E5E6" stroke-linecap="round"></path>
            <polygon id="yellow备份" stroke="#FFFFFF" stroke-width="1.4" points="53.3333333 127 56.6666667 127 58 128.740401 58 131.296304 56.6666667 133 53.3333333 133 52 131.286503 52 128.741454"></polygon>
            <circle id="椭圆形" stroke="#FFFFFF" stroke-width="1.4" cx="63" cy="128" r="3"></circle>
            <rect id="矩形" stroke="#FFFFFF" stroke-width="1.4" x="59" y="134" width="6" height="6"></rect>
        </g>
    </g>
</svg>