<?xml version="1.0" encoding="UTF-8"?>
<svg width="240px" height="180px" viewBox="0 0 240 180" version="1.1" xmlns="http://www.w3.org/2000/svg" xmlns:xlink="http://www.w3.org/1999/xlink">
    <!-- Generator: Sketch 63.1 (92452) - https://sketch.com -->
    <title>计算图</title>
    <desc>Created with Sketch.</desc>
    <defs>
        <linearGradient x1="100%" y1="50%" x2="0%" y2="50%" id="linearGradient-1">
            <stop stop-color="#FAFAFA" offset="0%"></stop>
            <stop stop-color="#FAFAFA" offset="100%"></stop>
        </linearGradient>
    </defs>
    <g id="智能小助手" stroke="none" stroke-width="1" fill="none" fill-rule="evenodd">
        <g id="计算图">
            <path d="M136.782172,18 C137.610599,18 138.282172,18.6715729 138.282172,19.5 L138.281172,21 L139.782172,21 C140.610599,21 141.282172,21.6715729 141.282172,22.5 C141.282172,23.3284271 140.610599,24 139.782172,24 L138.281172,24 L138.282172,25.5 C138.282172,26.3284271 137.610599,27 136.782172,27 C135.953745,27 135.282172,26.3284271 135.282172,25.5 L135.281172,24 L133.782172,24 C132.953745,24 132.282172,23.3284271 132.282172,22.5 C132.282172,21.6715729 132.953745,21 133.782172,21 L135.281172,21 L135.282172,19.5 C135.282172,18.6715729 135.953745,18 136.782172,18 Z" id="形状结合备份" fill="#CCCCCC" transform="translate(136.782172, 22.500000) rotate(-360.000000) translate(-136.782172, -22.500000) "></path>
            <path d="M43.0527181,75.2196611 L142.238742,22.0699563 C168.735071,7.87166467 202.615796,16.2975618 217.913459,40.8897243 C233.211122,65.4818867 224.132809,96.9277629 197.63648,111.126055 L98.4504561,164.275759 C71.9541266,178.474051 38.0734016,170.048154 22.7757386,145.455991 C7.47807566,120.863829 16.5563886,89.4179527 43.0527181,75.2196611 Z" id="矩形" fill="url(#linearGradient-1)"></path>
            <path d="M44.5,81 L44.5,78 M44,67.433713 L44,52.721519 C44,50.6661808 45.6569649,49 47.7009346,49 L172.299065,49 C174.343035,49 176,50.6661808 176,52.721519 L176,143.278481 C176,145.333819 174.343035,147 172.299065,147 L47.7009346,147 C45.6569649,147 44,145.333819 44,143.278481 L44,91.157947 L44,91.157947" id="形状" fill-opacity="0.1" fill="#000000"></path>
            <path d="M56.5,73 L56.5,70 M56,59.433713 L56,44.721519 C56,42.6661808 57.6569649,41 59.7009346,41 L184.299065,41 C186.343035,41 188,42.6661808 188,44.721519 L188,135.278481 C188,137.333819 186.343035,139 184.299065,139 L59.7009346,139 C57.6569649,139 56,137.333819 56,135.278481 L56,83.157947 L56,83.157947" id="形状" stroke="#666666" stroke-width="2" fill="#FFFFFF" stroke-linecap="round"></path>
            <g id="编组-27" transform="translate(81.000000, 50.000000)">
                <rect id="矩形" fill="#CCCCCC" x="37" y="81" width="5" height="3"></rect>
                <rect id="矩形" stroke="#BBBBBB" stroke-width="0.2" fill="#F7F7F7" x="0" y="0" width="78" height="75"></rect>
                <rect id="矩形" stroke="#BBBBBB" stroke-width="0.2" fill="#F2F2F2" x="55" y="25" width="21" height="27"></rect>
                <rect id="矩形" stroke="#BBBBBB" stroke-width="0.2" fill="#F2F2F2" x="3" y="7" width="50" height="63"></rect>
                <rect id="矩形" stroke="#BBBBBB" stroke-width="0.2" fill="#EAEAEA" x="8" y="11" width="45" height="49"></rect>
                <g id="编组-24" transform="translate(8.572751, 15.500000)" stroke-width="0.4">
                    <line x1="0.5" y1="12.5" x2="0.5" y2="15.5956987" id="路径-41" stroke="#D4D9E6"></line>
                    <path d="" id="路径-42" stroke="#979797"></path>
                    <path d="M0.5,18.5 C0.284647834,18.5 1.00866807,22.2936838 7.42724939,22.2936838" id="路径-43" stroke="#D4D9E6" stroke-linecap="round"></path>
                    <line x1="20.9272494" y1="5" x2="23.4272494" y2="16.2411972" id="路径-45" stroke="#D4D9E6"></line>
                    <line x1="23.4272494" y1="16" x2="20.4272494" y2="27.5" id="路径-46" stroke="#D4D9E6"></line>
                    <path d="M9.92724939,21.996583 C11.9140144,25.6655277 15.4140144,27.5 20.4272494,27.5" id="路径-47" stroke="#D4D9E6"></path>
                    <line x1="20.4272494" y1="27.7519689" x2="17.4272494" y2="33" id="路径-48" stroke="#D4D9E6"></line>
                    <line x1="17.4272494" y1="33" x2="10.9272494" y2="38" id="路径-57" stroke="#D4D9E6"></line>
                    <polyline id="路径-58" stroke="#D4D9E6" points="12.4272494 44.5 13.0502285 48.9122594 18.2876559 54.5"></polyline>
                    <line x1="27.4272494" y1="0" x2="20.4272494" y2="5" id="路径-59" stroke="#D4D9E6"></line>
                    <polyline id="路径-60" stroke="#D4D9E6" points="50.4272494 15 52.4272494 20 52.4272494 25.1628607 52.4272494 31.5"></polyline>
                    <path d="M61.4272494,14.0478493 L61.4272494,20.3968419 C60.36192,23.5222929 57.36192,25.2233456 52.4272494,25.5" id="路径-61" stroke="#D4D9E6"></path>
                </g>
                <rect id="矩形" fill="#CCCCCC" x="6" y="25" width="8" height="3"></rect>
                <rect id="矩形备份-106" fill="#CCCCCC" x="7" y="31" width="5" height="3"></rect>
                <rect id="矩形备份-107" fill="#CCCCCC" x="15" y="63" width="14" height="3"></rect>
                <rect id="矩形备份-102" fill="#CCCCCC" x="27" y="19" width="5" height="3"></rect>
                <rect id="矩形备份-103" fill="#CCCCCC" x="33" y="14" width="6" height="3"></rect>
                <rect id="矩形备份-104" fill="#CCCCCC" x="29" y="30" width="6" height="3"></rect>
                <rect id="矩形备份-108" fill="#CCCCCC" x="67" y="34" width="6" height="3" rx="1"></rect>
                <rect id="矩形备份-109" fill="#CCCCCC" x="56" y="29" width="6" height="3" rx="1"></rect>
                <rect id="矩形备份-105" fill="#CCCCCC" x="16" y="36" width="5" height="3"></rect>
                <rect id="矩形" fill="#666666" opacity="0.6" x="38" y="3" width="6" height="1" rx="0.5"></rect>
                <rect id="矩形备份-110" fill="#666666" opacity="0.6" x="62" y="26" width="6" height="1" rx="0.5"></rect>
                <rect id="矩形备份-111" fill="#666666" opacity="0.6" x="26" y="9" width="6" height="1" rx="0.5"></rect>
                <rect id="矩形备份-112" fill="#666666" opacity="0.6" x="25" y="13" width="6" height="1" rx="0.5"></rect>
                <line x1="26.8604065" y1="70" x2="39.5" y2="75" id="路径-39" stroke="#D4D9E6" stroke-width="0.4"></line>
                <line x1="39.5" y1="81" x2="39.5" y2="75" id="路径-40" stroke="#D4D9E6" stroke-width="0.4"></line>
                <polygon id="多边形" fill="#CCCCCC" points="29 41 32.5355339 41.5857864 34 43 32.5355339 44.4142136 29 45 25.4644661 44.4142136 24 43 25.4644661 41.5857864"></polygon>
                <polygon id="多边形备份" fill="#CCCCCC" points="61 34 64.5355339 34.4393398 66 35.5 64.5355339 36.5606602 61 37 57.4644661 36.5606602 56 35.5 57.4644661 34.4393398"></polygon>
                <polygon id="多边形备份-2" fill="#CCCCCC" points="70 28 73.5355339 28.4393398 75 29.5 73.5355339 30.5606602 70 31 66.4644661 30.5606602 65 29.5 66.4644661 28.4393398"></polygon>
                <polygon id="多边形备份-3" fill="#CCCCCC" points="61 39 63.1213203 39.4393398 64 40.5 63.1213203 41.5606602 61 42 58.8786797 41.5606602 58 40.5 58.8786797 39.4393398"></polygon>
                <ellipse id="椭圆形" fill="#CCCCCC" cx="27" cy="48.5" rx="3" ry="1.5"></ellipse>
                <ellipse id="椭圆形备份-23" fill="#CCCCCC" cx="62" cy="46.5" rx="3" ry="1.5"></ellipse>
                <ellipse id="椭圆形备份-22" fill="#CCCCCC" cx="20.5" cy="53.5" rx="2.5" ry="1.5"></ellipse>
                <path d="M66,52 C64.7636675,65.6377298 55.9545844,73.3043964 39.5727506,75" id="路径-62" stroke="#D4D9E6" stroke-width="0.4"></path>
            </g>
            <path d="M80.5,157 C81.3284271,157 82,157.671573 82,158.5 L81.999,160 L83.5,160 C84.3284271,160 85,160.671573 85,161.5 C85,162.328427 84.3284271,163 83.5,163 L81.999,163 L82,164.5 C82,165.328427 81.3284271,166 80.5,166 C79.6715729,166 79,165.328427 79,164.5 L78.999,163 L77.5,163 C76.6715729,163 76,162.328427 76,161.5 C76,160.671573 76.6715729,160 77.5,160 L78.999,160 L79,158.5 C79,157.671573 79.6715729,157 80.5,157 Z" id="形状结合" fill="#CCCCCC" transform="translate(80.500000, 161.500000) rotate(-360.000000) translate(-80.500000, -161.500000) "></path>
            <circle id="椭圆形" fill="#BBBBBB" cx="42.782172" cy="95.5" r="1.5"></circle>
            <circle id="椭圆形备份" fill="#BBBBBB" cx="207.5" cy="80.5" r="1.5"></circle>
        </g>
    </g>
</svg>