<?xml version="1.0" encoding="UTF-8"?>
<svg width="16px" height="16px" viewBox="0 0 16 16" version="1.1" xmlns="http://www.w3.org/2000/svg" xmlns:xlink="http://www.w3.org/1999/xlink">
    <!-- Generator: Sketch 63.1 (92452) - https://sketch.com -->
    <title>帮助指引</title>
    <desc>Created with Sketch.</desc>
    <g id="控件" stroke="none" stroke-width="1" fill="none" fill-rule="evenodd">
        <g id="帮助指引">
            <g id="分组-26复制">
                <rect id="Rectangle-19" fill="#D2EBFD" fill-rule="nonzero" opacity="0" x="0" y="0" width="16" height="16"></rect>
                <rect id="矩形" fill="#575D6C" x="3.5" y="4" width="5" height="1.5"></rect>
                <rect id="矩形" fill="#575D6C" x="3.5" y="7" width="3" height="1.5"></rect>
                <g id="分组-7" transform="translate(1.400000, 0.400000)" fill-rule="nonzero">
                    <path d="M2.59242652,13.9463889 C1.2140705,13.9463889 0.516594998,13.9463889 0.5,13.9463889 C0.223857625,13.9463889 0,13.7225313 0,13.4463889 L0,1.44638889 C0,1.17024651 0.223857625,0.946388889 0.5,0.946388889 L11.5,0.946388889 C11.7761424,0.946388889 12,1.17024651 12,1.44638889 C12,2.26883666 12,2.82983034 12,3.12936992" id="Rectangle-38" stroke="#575D6C" stroke-width="1.4" stroke-linecap="round"></path>
                    <path d="M4.86509791,6.02237173 C4.57543153,5.39028109 5.22732823,4.73841895 5.85940351,5.02811884 L10.8580374,7.3191493 C11.2392736,7.49388178 11.5450854,7.79970976 11.7197977,8.18095521 L14.0106749,13.1799545 C14.3003412,13.8120451 13.6484445,14.4639072 13.0163693,14.1742073 L8.01773532,11.8831769 C7.63649913,11.7084444 7.33068736,11.4026164 7.15597509,11.021371 L4.86509791,6.02237173 Z M7.06987833,7.23296344 L8.5196065,10.3964635 C8.5445654,10.4509271 8.58825279,10.4946168 8.6427151,10.5195786 L11.8058944,11.9693627 L10.3561663,8.80586271 C10.3312074,8.75139907 10.28752,8.70770936 10.2330577,8.68274758 L7.06987833,7.23296344 Z M7.06987833,7.23296344 L8.5196065,10.3964635 C8.5445654,10.4509271 8.58825279,10.4946168 8.6427151,10.5195786 L10.3561663,8.80586271 C10.3312074,8.75139907 10.28752,8.70770936 10.2330577,8.68274758 L7.06987833,7.23296344 Z" id="矩形" fill="#575D6C" transform="translate(9.437886, 9.601163) rotate(-270.000000) translate(-9.437886, -9.601163) "></path>
                </g>
            </g>
        </g>
    </g>
</svg>