<?xml version="1.0" encoding="UTF-8"?>
<svg width="240px" height="180px" viewBox="0 0 240 180" version="1.1" xmlns="http://www.w3.org/2000/svg" xmlns:xlink="http://www.w3.org/1999/xlink">
    <!-- Generator: Sketch 63.1 (92452) - https://sketch.com -->
    <title>参数分布图</title>
    <desc>Created with Sketch.</desc>
    <defs>
        <linearGradient x1="100%" y1="50%" x2="0%" y2="50%" id="linearGradient-1">
            <stop stop-color="#FAFAFA" offset="0%"></stop>
            <stop stop-color="#FAFAFA" offset="100%"></stop>
        </linearGradient>
    </defs>
    <g id="智能小助手" stroke="none" stroke-width="1" fill="none" fill-rule="evenodd">
        <g id="参数分布图">
            <path d="M136.782172,18 C137.610599,18 138.282172,18.6715729 138.282172,19.5 L138.281172,21 L139.782172,21 C140.610599,21 141.282172,21.6715729 141.282172,22.5 C141.282172,23.3284271 140.610599,24 139.782172,24 L138.281172,24 L138.282172,25.5 C138.282172,26.3284271 137.610599,27 136.782172,27 C135.953745,27 135.282172,26.3284271 135.282172,25.5 L135.281172,24 L133.782172,24 C132.953745,24 132.282172,23.3284271 132.282172,22.5 C132.282172,21.6715729 132.953745,21 133.782172,21 L135.281172,21 L135.282172,19.5 C135.282172,18.6715729 135.953745,18 136.782172,18 Z" id="形状结合备份" fill="#CCCCCC" transform="translate(136.782172, 22.500000) rotate(-360.000000) translate(-136.782172, -22.500000) "></path>
            <path d="M43.0527181,75.2196611 L142.238742,22.0699563 C168.735071,7.87166467 202.615796,16.2975618 217.913459,40.8897243 C233.211122,65.4818867 224.132809,96.9277629 197.63648,111.126055 L98.4504561,164.275759 C71.9541266,178.474051 38.0734016,170.048154 22.7757386,145.455991 C7.47807566,120.863829 16.5563886,89.4179527 43.0527181,75.2196611 Z" id="矩形" fill="url(#linearGradient-1)"></path>
            <path d="M44.5,81 L44.5,78 M44,67.433713 L44,52.721519 C44,50.6661808 45.6569649,49 47.7009346,49 L172.299065,49 C174.343035,49 176,50.6661808 176,52.721519 L176,143.278481 C176,145.333819 174.343035,147 172.299065,147 L47.7009346,147 C45.6569649,147 44,145.333819 44,143.278481 L44,91.157947 L44,91.157947" id="形状" fill-opacity="0.1" fill="#000000"></path>
            <path d="M56.217828,73 L56.217828,70 M55.717828,59.433713 L55.717828,44.721519 C55.717828,42.6661808 57.3747928,41 59.4187626,41 L184.016893,41 C186.060863,41 187.717828,42.6661808 187.717828,44.721519 L187.717828,135.278481 C187.717828,137.333819 186.060863,139 184.016893,139 L59.4187626,139 C57.3747928,139 55.717828,137.333819 55.717828,135.278481 L55.717828,83.157947 L55.717828,83.157947" id="形状" stroke="#666666" stroke-width="2" fill="#FFFFFF" stroke-linecap="round"></path>
            <path d="M80.5,157 C81.3284271,157 82,157.671573 82,158.5 L81.999,160 L83.5,160 C84.3284271,160 85,160.671573 85,161.5 C85,162.328427 84.3284271,163 83.5,163 L81.999,163 L82,164.5 C82,165.328427 81.3284271,166 80.5,166 C79.6715729,166 79,165.328427 79,164.5 L78.999,163 L77.5,163 C76.6715729,163 76,162.328427 76,161.5 C76,160.671573 76.6715729,160 77.5,160 L78.999,160 L79,158.5 C79,157.671573 79.6715729,157 80.5,157 Z" id="形状结合" fill="#CCCCCC" transform="translate(80.500000, 161.500000) rotate(-360.000000) translate(-80.500000, -161.500000) "></path>
            <circle id="椭圆形" fill="#BBBBBB" cx="42.782172" cy="95.5" r="1.5"></circle>
            <circle id="椭圆形备份" fill="#BBBBBB" cx="207.5" cy="80.5" r="1.5"></circle>
            <g id="编组" transform="translate(61.000000, 61.000000)" fill="#666666" fill-opacity="0.15">
                <polygon id="路径-56" points="0 26.3062634 9.39456508 26.3062634 16.1720066 25.5956102 24.3216436 20.3159358 32.6887189 17.1108124 48.9953637 -2.92058193e-15 57.6224641 3.41423501 68.9042774 15.5735932 81.6364984 21.485476 90.9785654 23.6984713 98.1491158 27.1462534 106.042823 27.1462534 114 29"></polygon>
                <path d="M0,28.2876357 C0,28.2876357 25.5923642,28.2876357 26.1215752,28.2876357 C26.4743825,28.2876357 29.0857892,27.7958777 33.9557951,26.8123617 C39.0724637,25.807651 41.630798,25.089988 41.630798,24.6593727 C41.630798,24.2287573 44.2246055,17.6526501 49.4122206,4.93105094 L57.6531451,4 L72.7768248,25.1797953 L83,29 C27.6666667,28.5250904 0,28.2876357 0,28.2876357 Z" id="路径-55"></path>
                <path d="M8.71526153,33 L24.3375616,29.7526104 L32.4720848,29.7526104 L40.5992646,18.9298294 L48.4947171,15.5469732 L59.2814563,14.8342831 L65.0840203,13 L73.6485444,13 C79.8836931,22.7138484 83.0012674,27.5707726 83.0012674,27.5707726 C83.0012674,27.5707726 85.0167776,28.0403666 89.0477978,28.9795546 L97.6853486,33 L122,33 L0,33 L8.71526153,33 Z" id="路径-54"></path>
                <path d="M22,34.1040417 L32.5394074,31.3877588 L40.7915036,21.1633682 L57.0481921,13 L66.0663215,18.4166403 C71.7466204,21.7120196 74.5867699,23.3597093 74.5867699,23.3597093 C74.5867699,23.3597093 79.3850348,26.2752699 88.9815647,32.106391 L98.0561768,32.7630938 L105.867521,35 L122,35 L22,34.1040417 Z" id="路径-53"></path>
                <polygon id="路径-52" points="0 40 0 38.0528685 7.60134573 36.1854921 32.9300056 36.1854921 64.8927487 25.7126017 73.5973605 19 97.6816198 38.0528685 105.621292 40 122 40"></polygon>
                <path d="M18,40.9444341 L23.3503698,37.3543923 C32.505975,36.4514641 37.34478,36 37.8667848,36 C38.3887897,36 50.0426381,37.3701043 72.8283301,40.110313 L81.2281083,46.1624811 L89.9281292,45.3082702 L97.8246227,48 L112.540053,43.39698 L122,37.3543923 L122,48 L18,48 L18,40.9444341 Z" id="路径-51"></path>
                <path d="M17,50 L23.1921725,48.3493065 L31.3730973,40.6474229 L40.1069669,35.5885434 L48.1775338,24 L53.9825872,29.4859189 L69.3211712,39.794694 C71.8927207,42.5813376 73.5463549,43.9746594 74.2820738,43.9746594 C75.3856522,43.9746594 81.7072496,47.0912752 81.7072496,47.0912752 C81.7072496,47.0912752 92.3032154,48.0608501 113.495147,50 L122,50 L17,50 Z" id="路径-50"></path>
                <path d="M0,47 L0,42.9828686 L16.3020229,38.8546803 L25.1030914,40.3231555 L65.1048692,25 L73.664104,32.4742263 L81.6426052,30.8036682 C86.9537371,35.4906757 89.609303,37.8341795 89.609303,37.8341795 C89.609303,37.8341795 95.0692282,39.5504092 105.989079,42.9828686 C110.938958,42.9828686 113.267786,42.9828686 112.975565,42.9828686 C112.683344,42.9828686 91.0430627,42.9828686 48.054722,42.9828686 L28.7820169,47 L0,47 Z" id="路径-38"></path>
                <polygon id="路径-49" points="24.0620666 52.1763393 32.4581815 48.0578823 47.8981532 34.1653962 56.8150057 29 65.3081657 32.3850892 73.2829127 44.7104684 83.0801158 48.0578823 89.705616 52.1763393 93.4786244 55.8633882 101.328696 58 116.415102 58 122 57.1398617 122 58 3.46744855e-12 58"></polygon>
                <polygon id="路径-37" points="3.46744855e-12 56.9054238 7.88081442 54.7858717 16.4211408 49.1691118 24.0620666 52.0194833 32.4052473 52.0194833 40.5635274 46.5751096 49.0965068 38 57.274379 38.8714029 65.6016412 44.2235847 81.5428899 49.1691118 89.2309592 53.5753795 109.312127 57.4771074 122 58 0 58"></polygon>
            </g>
        </g>
    </g>
</svg>