<?xml version="1.0" encoding="UTF-8"?>
<svg width="240px" height="180px" viewBox="0 0 240 180" version="1.1" xmlns="http://www.w3.org/2000/svg" xmlns:xlink="http://www.w3.org/1999/xlink">
    <!-- Generator: Sketch 63.1 (92452) - https://sketch.com -->
    <title>参数分布图</title>
    <desc>Created with Sketch.</desc>
    <defs>
        <linearGradient x1="100%" y1="50%" x2="0%" y2="50%" id="linearGradient-1">
            <stop stop-color="#EDF2FF" offset="0%"></stop>
            <stop stop-color="#ECFEFE" offset="100%"></stop>
        </linearGradient>
    </defs>
    <g id="智能小助手" stroke="none" stroke-width="1" fill="none" fill-rule="evenodd">
        <g id="参数分布图">
            <path d="M136.782172,18 C137.610599,18 138.282172,18.6715729 138.282172,19.5 L138.281172,21 L139.782172,21 C140.610599,21 141.282172,21.6715729 141.282172,22.5 C141.282172,23.3284271 140.610599,24 139.782172,24 L138.281172,24 L138.282172,25.5 C138.282172,26.3284271 137.610599,27 136.782172,27 C135.953745,27 135.282172,26.3284271 135.282172,25.5 L135.281172,24 L133.782172,24 C132.953745,24 132.282172,23.3284271 132.282172,22.5 C132.282172,21.6715729 132.953745,21 133.782172,21 L135.281172,21 L135.282172,19.5 C135.282172,18.6715729 135.953745,18 136.782172,18 Z" id="形状结合备份" fill="#BBE3E3" transform="translate(136.782172, 22.500000) rotate(-360.000000) translate(-136.782172, -22.500000) "></path>
            <path d="M43.0527181,75.2196611 L142.238742,22.0699563 C168.735071,7.87166467 202.615796,16.2975618 217.913459,40.8897243 C233.211122,65.4818867 224.132809,96.9277629 197.63648,111.126055 L98.4504561,164.275759 C71.9541266,178.474051 38.0734016,170.048154 22.7757386,145.455991 C7.47807566,120.863829 16.5563886,89.4179527 43.0527181,75.2196611 Z" id="矩形" fill="url(#linearGradient-1)"></path>
            <path d="M44.5,81 L44.5,78 M44,67.433713 L44,52.721519 C44,50.6661808 45.6569649,49 47.7009346,49 L172.299065,49 C174.343035,49 176,50.6661808 176,52.721519 L176,143.278481 C176,145.333819 174.343035,147 172.299065,147 L47.7009346,147 C45.6569649,147 44,145.333819 44,143.278481 L44,91.157947 L44,91.157947" id="形状" fill-opacity="0.1" fill="#00A5A7"></path>
            <path d="M56.5,73 L56.5,70 M56,59.433713 L56,44.721519 C56,42.6661808 57.6569649,41 59.7009346,41 L184.299065,41 C186.343035,41 188,42.6661808 188,44.721519 L188,135.278481 C188,137.333819 186.343035,139 184.299065,139 L59.7009346,139 C57.6569649,139 56,137.333819 56,135.278481 L56,83.157947 L56,83.157947" id="形状" stroke="#014848" stroke-width="2" fill="#FFFFFF" stroke-linecap="round"></path>
            <rect id="矩形" fill="#00A5A7" x="64" y="61" width="12" height="2" rx="1"></rect>
            <path d="M56,51 L126,51 C126.552285,51 127,51.4477153 127,52 C127,52.5522847 126.552285,53 126,53 L56,53 L56,53 L56,51 Z" id="矩形" fill="#00A5A7" opacity="0.1"></path>
            <rect id="矩形备份-100" fill="#D4D9E6" x="64" y="66" width="21" height="2" rx="1"></rect>
            <path d="M80.5,157 C81.3284271,157 82,157.671573 82,158.5 L81.999,160 L83.5,160 C84.3284271,160 85,160.671573 85,161.5 C85,162.328427 84.3284271,163 83.5,163 L81.999,163 L82,164.5 C82,165.328427 81.3284271,166 80.5,166 C79.6715729,166 79,165.328427 79,164.5 L78.999,163 L77.5,163 C76.6715729,163 76,162.328427 76,161.5 C76,160.671573 76.6715729,160 77.5,160 L78.999,160 L79,158.5 C79,157.671573 79.6715729,157 80.5,157 Z" id="形状结合" fill="#ACBCF0" transform="translate(80.500000, 161.500000) rotate(-360.000000) translate(-80.500000, -161.500000) "></path>
            <circle id="椭圆形" fill="#ACBCF0" cx="42.782172" cy="95.5" r="1.5"></circle>
            <circle id="椭圆形备份" fill="#BBE3E3" cx="207.5" cy="80.5" r="1.5"></circle>
            <polygon id="路径-56" fill="#00A5A7" opacity="0.258812314" points="61 95.3062634 70.3945651 95.3062634 77.1720066 94.5956102 85.3216436 89.3159358 93.6887189 86.1108124 109.995364 69 118.622464 72.414235 129.904277 84.5735932 142.636498 90.485476 151.978565 92.6984713 159.149116 96.1462534 167.042823 96.1462534 175 98"></polygon>
            <path d="M61,97.2876357 C61,97.2876357 86.5923642,97.2876357 87.1215752,97.2876357 C87.4743825,97.2876357 90.0857892,96.7958777 94.9557951,95.8123617 C100.072464,94.807651 102.630798,94.089988 102.630798,93.6593727 C102.630798,93.2287573 105.224606,86.6526501 110.412221,73.9310509 L118.653145,73 L133.776825,94.1797953 L144,98 C88.6666667,97.5250904 61,97.2876357 61,97.2876357 Z" id="路径-55" fill="#00A5A7" opacity="0.258812314"></path>
            <path d="M69.7152615,102 L85.3375616,98.7526104 L93.4720848,98.7526104 L101.599265,87.9298294 L109.494717,84.5469732 L120.281456,83.8342831 L126.08402,82 L134.648544,82 C140.883693,91.7138484 144.001267,96.5707726 144.001267,96.5707726 C144.001267,96.5707726 146.016778,97.0403666 150.047798,97.9795546 L158.685349,102 L183,102 L61,102 L69.7152615,102 Z" id="路径-54" fill="#00A5A7" opacity="0.258812314"></path>
            <path d="M83,103.104042 L93.5394074,100.387759 L101.791504,90.1633682 L118.048192,82 L127.066321,87.4166403 C132.74662,90.7120196 135.58677,92.3597093 135.58677,92.3597093 C135.58677,92.3597093 140.385035,95.2752699 149.981565,101.106391 L159.056177,101.763094 L166.867521,104 L183,104 L83,103.104042 Z" id="路径-53" fill="#00A5A7" opacity="0.258812314"></path>
            <polygon id="路径-52" fill="#00A5A7" opacity="0.258812314" points="61 109 61 107.052868 68.6013457 105.185492 93.9300056 105.185492 125.892749 94.7126017 134.597361 88 158.68162 107.052868 166.621292 109 183 109"></polygon>
            <path d="M79,109.944434 L84.3503698,106.354392 C93.505975,105.451464 98.34478,105 98.8667848,105 C99.3887897,105 111.042638,106.370104 133.82833,109.110313 L142.228108,115.162481 L150.928129,114.30827 L158.824623,117 L173.540053,112.39698 L183,106.354392 L183,117 L79,117 L79,109.944434 Z" id="路径-51" fill="#00A5A7" opacity="0.258812314"></path>
            <path d="M78,119 L84.1921725,117.349306 L92.3730973,109.647423 L101.106967,104.588543 L109.177534,93 L114.982587,98.4859189 L130.321171,108.794694 C132.892721,111.581338 134.546355,112.974659 135.282074,112.974659 C136.385652,112.974659 142.70725,116.091275 142.70725,116.091275 C142.70725,116.091275 153.303215,117.06085 174.495147,119 L183,119 L78,119 Z" id="路径-50" fill="#00A5A7" opacity="0.258812314"></path>
            <path d="M61,116 L61,111.982869 L77.3020229,107.85468 L86.1030914,109.323155 L126.104869,94 L134.664104,101.474226 L142.642605,99.8036682 C147.953737,104.490676 150.609303,106.83418 150.609303,106.83418 C150.609303,106.83418 156.069228,108.550409 166.989079,111.982869 C171.938958,111.982869 174.267786,111.982869 173.975565,111.982869 C173.683344,111.982869 152.043063,111.982869 109.054722,111.982869 L89.7820169,116 L61,116 Z" id="路径-38" fill="#00A5A7" opacity="0.258812314"></path>
            <polygon id="路径-49" fill="#00A5A7" opacity="0.258812314" points="85.0620666 121.176339 93.4581815 117.057882 108.898153 103.165396 117.815006 98 126.308166 101.385089 134.282913 113.710468 144.080116 117.057882 150.705616 121.176339 154.478624 124.863388 162.328696 127 177.415102 127 183 126.139862 183 127 61 127"></polygon>
            <polygon id="路径-37" fill="#00A5A7" opacity="0.258812314" points="61 125.905424 68.8808144 123.785872 77.4211408 118.169112 85.0620666 121.019483 93.4052473 121.019483 101.563527 115.57511 110.096507 107 118.274379 107.871403 126.601641 113.223585 142.54289 118.169112 150.230959 122.575379 170.312127 126.477107 183 127 61 127"></polygon>
            <circle id="椭圆形" fill-opacity="0.1" fill="#00A5A7" cx="181" cy="51" r="18"></circle>
            <circle id="椭圆形备份-3" fill-opacity="0.1" fill="#00A5A7" cx="55" cy="135" r="18"></circle>
            <path d="M196.071045,31.0788984 C193.196838,29.1351405 189.730982,28 186,28 C176.058875,28 168,36.0588745 168,46 C168,55.9411255 176.058875,64 186,64 C195.941125,64 204,55.9411255 204,46 C204,42.4508045 202.972781,39.1415289 201.199425,36.3532559" id="路径" stroke="#014848" stroke-width="2" fill="#97ABEF" stroke-linecap="round"></path>
            <path d="M72.5637829,141.9082 C73.0480419,141.29499 73.4883661,140.64548 73.8800055,139.964421 C75.2286726,137.619092 76,134.899623 76,132 C76,123.163444 68.836556,116 60,116 C54.8379246,116 50.2468118,118.444581 47.3211786,122.239227 C45.2386475,124.94034 44,128.325519 44,132 C44,132.792904 44.0576762,133.572337 44.1690622,134.334332 C44.686342,137.873063 46.3619808,141.035718 48.7986984,143.425016 C51.6848124,146.254966 55.6386189,148 60,148 C62.3396615,148 64.562032,147.497817 66.5652032,146.59536" id="路径" stroke="#014848" stroke-width="2" fill="#A2E5E6" stroke-linecap="round"></path>
            <g id="参数" transform="translate(179.000000, 39.000000)" fill="#FFFFFF" fill-rule="nonzero" stroke="#FFFFFF" stroke-width="0.2">
                <path d="M14.7882386,3.41822905 C14.2960843,3.13043396 13.7152883,3.03375351 13.1564696,3.14660157 C12.9106508,2.78013865 12.6297149,2.43240866 12.3066387,2.10926565 C10.1459541,-0.056031831 6.85132416,-0.615196288 4.09745939,0.716004064 C3.14629158,-0.10415336 1.72377473,-0.0520806173 0.835091957,0.835426496 C-0.0529495134,1.72444395 -0.105023479,3.14809338 0.715694231,4.09963933 C-0.61501724,6.85294634 -0.0559134551,10.1471715 2.10866776,12.3070037 C2.43291454,12.6313176 2.78057264,12.9111407 3.1469598,13.1581812 C3.0369266,13.7271939 3.13057187,14.2962066 3.41970167,14.7902876 C3.74277789,15.3522755 4.26016806,15.7503502 4.87354464,15.9201174 C5.49394461,16.0816889 6.13775591,15.9973907 6.6996276,15.6742477 C7.19650585,15.388621 7.57384433,14.9334766 7.76250153,14.3922129 C9.47974307,14.2685149 11.0946099,13.5288902 12.3101504,12.3093454 C13.5287785,11.0939314 14.2671131,9.4789064 14.3890756,7.7619269 C14.9317839,7.57493763 15.3881141,7.19714955 15.6731865,6.69883319 C15.9974333,6.13684532 16.0817141,5.49173008 15.9201759,4.87120184 C15.7485941,4.25712623 15.3418736,3.73547403 14.7882386,3.41939986 L14.7882386,3.41822905 Z M1.40398704,2.93351452 C1.24524682,2.4981886 1.354516,2.01026255 1.68375231,1.68426232 C2.02321645,1.34472798 2.50783077,1.25106335 2.93274622,1.4044392 C3.09311377,1.46532122 3.25582244,1.55781505 3.38224356,1.68543313 C3.56134016,1.86339595 3.67137336,2.09287432 3.71351374,2.3211819 C3.78408846,2.70808426 3.66026348,3.10498747 3.38222361,3.38308484 C3.10418374,3.6611822 2.70736259,3.7850328 2.32054021,3.71444348 C2.08001472,3.67064006 1.85817679,3.55561941 1.68375231,3.38427561 C1.55947919,3.25543657 1.46375309,3.10184421 1.40281646,2.93351452 L1.40398704,2.93351452 Z M6.66334005,13.9039859 C6.62264839,14.0778318 6.5347463,14.2370606 6.40932723,14.3641135 C6.12956196,14.7118435 5.65197104,14.8816106 5.18608576,14.7551634 C4.87755243,14.671889 4.61452234,14.4698401 4.45448202,14.1931755 C4.38733977,14.0754499 4.34361483,13.9458383 4.32571975,13.8114921 C4.23722143,13.4218297 4.36041888,13.0143489 4.64996655,12.7390319 C4.66635447,12.7226406 4.69210693,12.6968828 4.72722389,12.6793207 C4.77968013,12.6291246 4.83647954,12.5836757 4.89695596,12.543507 C5.16969783,12.3901311 5.50096801,12.347982 5.80648575,12.433451 C6.1974548,12.5364821 6.48541403,12.8256717 6.62119967,13.1827682 C6.71484494,13.3935136 6.73123287,13.6510914 6.66334005,13.9051567 L6.66334005,13.9039859 Z M11.4579784,11.4569971 C10.4951401,12.4272314 9.22444445,13.0316611 7.86434076,13.1663768 C7.69582296,12.2513621 7.01776791,11.5139954 6.12019744,11.2696678 C5.22064559,11.0328843 4.2651246,11.3344504 3.66434998,12.0447427 C3.41029996,11.8725405 3.17386935,11.6756704 2.95849868,11.4569971 C1.20384197,9.70554741 0.707475293,7.05476415 1.70950476,4.78690365 C2.58656315,5.11001118 3.5713861,4.89436529 4.23324504,4.23428226 C4.89319162,3.57228646 5.10879294,2.58725985 4.7857522,1.7100201 C7.05354181,0.707931923 9.70401347,1.2043584 11.4556372,2.95927228 C11.6780448,3.18172581 11.8723587,3.41003338 12.0432614,3.66526954 C11.33397,4.26671216 11.033405,5.22234228 11.2706878,6.12162482 C11.3783799,6.5396033 11.5925935,6.9037246 11.8817233,7.19291418 C12.2293814,7.54064417 12.6812198,7.77129335 13.1658342,7.8637872 C13.0308826,9.22375818 12.4265974,10.4942615 11.4568078,11.4569971 L11.4579784,11.4569971 Z M14.7531216,5.1861492 C14.8780576,5.63546514 14.7244718,6.11609498 14.3621526,6.4096436 C14.2354496,6.53490173 14.0766823,6.62280893 13.9032907,6.66370894 C13.6646764,6.73148544 13.4101661,6.7166325 13.1810515,6.62155986 C12.8132261,6.4880079 12.5336232,6.18343991 12.4318893,5.80550666 C12.3490542,5.49986847 12.3885227,5.17397579 12.5419225,4.8969596 C12.5820829,4.83647067 12.6275225,4.77965951 12.6777081,4.72719243 C12.8310523,4.53986314 13.0347308,4.4028786 13.2723557,4.33497175 C13.4474946,4.29011379 13.630703,4.28690598 13.8073043,4.32560528 C13.9422194,4.34251572 14.0723758,4.38630826 14.1900794,4.45439416 C14.4733564,4.61713648 14.6700115,4.8805683 14.7531216,5.1861492 L14.7531216,5.1861492 Z" id="形状"></path>
            </g>
            <g id="分布" transform="translate(55.000000, 125.000000)" fill="#FFFFFF" fill-rule="nonzero">
                <path d="M9.70539115,7.8035442 L9.71059776,7.8035442 L9.69185396,7.82749461 C9.48970575,8.17257542 9.24862452,8.49331827 8.97334156,8.7834285 L5.14439941,13.8723706 L1.340449,8.68658552 C1.10530354,8.4263694 0.897024706,8.14308228 0.718779576,7.8410318 L0.691705196,7.8035442 L0.69795313,7.8035442 C-0.565057405,5.61755643 -0.0759535864,2.84025727 1.85784983,1.21725312 C3.79165324,-0.405751039 6.61169104,-0.405751039 8.54549445,1.21725312 C10.4792979,2.84025727 10.9684017,5.61755643 9.70539115,7.8035442 L9.70539115,7.8035442 Z M5.20167214,2.25850288 C4.1365628,2.23847144 3.14367586,2.79523698 2.60525461,3.71445497 C2.06683335,4.63367296 2.06683335,5.77201049 2.60525461,6.69122847 C3.14367586,7.61044646 4.1365628,8.167212 5.20167214,8.14718057 C6.80620511,8.11700423 8.09115767,6.80765843 8.09115767,5.20284172 C8.09115767,3.59802501 6.80620511,2.28867922 5.20167214,2.25850288 Z" id="形状"></path>
            </g>
        </g>
    </g>
</svg>