<?xml version="1.0" encoding="UTF-8"?>
<svg width="240px" height="180px" viewBox="0 0 240 180" version="1.1" xmlns="http://www.w3.org/2000/svg" xmlns:xlink="http://www.w3.org/1999/xlink">
    <!-- Generator: Sketch 63.1 (92452) - https://sketch.com -->
    <title>训练标量信息</title>
    <desc>Created with Sketch.</desc>
    <defs>
        <linearGradient x1="100%" y1="50%" x2="0%" y2="50%" id="linearGradient-1">
            <stop stop-color="#EDF2FF" offset="0%"></stop>
            <stop stop-color="#ECFEFE" offset="100%"></stop>
        </linearGradient>
    </defs>
    <g id="智能小助手" stroke="none" stroke-width="1" fill="none" fill-rule="evenodd">
        <g id="训练标量信息">
            <path d="M136.782172,18 C137.610599,18 138.282172,18.6715729 138.282172,19.5 L138.281172,21 L139.782172,21 C140.610599,21 141.282172,21.6715729 141.282172,22.5 C141.282172,23.3284271 140.610599,24 139.782172,24 L138.281172,24 L138.282172,25.5 C138.282172,26.3284271 137.610599,27 136.782172,27 C135.953745,27 135.282172,26.3284271 135.282172,25.5 L135.281172,24 L133.782172,24 C132.953745,24 132.282172,23.3284271 132.282172,22.5 C132.282172,21.6715729 132.953745,21 133.782172,21 L135.281172,21 L135.282172,19.5 C135.282172,18.6715729 135.953745,18 136.782172,18 Z" id="形状结合备份" fill="#BBE3E3" transform="translate(136.782172, 22.500000) rotate(-360.000000) translate(-136.782172, -22.500000) "></path>
            <path d="M43.0527181,75.2196611 L142.238742,22.0699563 C168.735071,7.87166467 202.615796,16.2975618 217.913459,40.8897243 C233.211122,65.4818867 224.132809,96.9277629 197.63648,111.126055 L98.4504561,164.275759 C71.9541266,178.474051 38.0734016,170.048154 22.7757386,145.455991 C7.47807566,120.863829 16.5563886,89.4179527 43.0527181,75.2196611 Z" id="矩形" fill="url(#linearGradient-1)"></path>
            <path d="M44.5,81 L44.5,78 M44,67.433713 L44,52.721519 C44,50.6661808 45.6569649,49 47.7009346,49 L172.299065,49 C174.343035,49 176,50.6661808 176,52.721519 L176,143.278481 C176,145.333819 174.343035,147 172.299065,147 L47.7009346,147 C45.6569649,147 44,145.333819 44,143.278481 L44,91.157947 L44,91.157947" id="形状" fill-opacity="0.1" fill="#00A5A7"></path>
            <path d="M56.5,73 L56.5,70 M56,59.433713 L56,44.721519 C56,42.6661808 57.6569649,41 59.7009346,41 L184.299065,41 C186.343035,41 188,42.6661808 188,44.721519 L188,135.278481 C188,137.333819 186.343035,139 184.299065,139 L59.7009346,139 C57.6569649,139 56,137.333819 56,135.278481 L56,83.157947 L56,83.157947" id="形状" stroke="#014848" stroke-width="2" fill="#FFFFFF" stroke-linecap="round"></path>
            <g id="编组-30" transform="translate(65.000000, 64.000000)">
                <rect id="矩形" stroke="#98F1F2" stroke-width="0.2" fill="#EFFEFE" x="0" y="0" width="116" height="70"></rect>
                <line x1="0" y1="4.74576271" x2="116" y2="4.74576271" id="路径-63" stroke="#D4D9E6" stroke-width="0.2"></line>
                <line x1="0" y1="8.30508475" x2="116" y2="8.30508475" id="路径-63备份" stroke="#D4D9E6" stroke-width="0.2"></line>
                <line x1="0" y1="11.8644068" x2="116" y2="11.8644068" id="路径-63备份-2" stroke="#D4D9E6" stroke-width="0.2"></line>
                <line x1="0" y1="15.4237288" x2="116" y2="15.4237288" id="路径-63备份-3" stroke="#D4D9E6" stroke-width="0.2"></line>
                <line x1="0" y1="18.9830508" x2="116" y2="18.9830508" id="路径-63备份-4" stroke="#D4D9E6" stroke-width="0.2"></line>
                <line x1="0" y1="22.5423729" x2="116" y2="22.5423729" id="路径-63备份-5" stroke="#D4D9E6" stroke-width="0.2"></line>
                <line x1="0" y1="26.1016949" x2="116" y2="26.1016949" id="路径-63备份-6" stroke="#D4D9E6" stroke-width="0.2"></line>
                <line x1="0" y1="29.6610169" x2="116" y2="29.6610169" id="路径-63备份-7" stroke="#D4D9E6" stroke-width="0.2"></line>
                <line x1="0" y1="33.220339" x2="116" y2="33.220339" id="路径-63备份-8" stroke="#D4D9E6" stroke-width="0.2"></line>
                <line x1="0" y1="36.779661" x2="116" y2="36.779661" id="路径-63备份-9" stroke="#D4D9E6" stroke-width="0.2"></line>
                <line x1="0" y1="40.3389831" x2="116" y2="40.3389831" id="路径-63备份-10" stroke="#D4D9E6" stroke-width="0.2"></line>
                <line x1="0" y1="43.8983051" x2="116" y2="43.8983051" id="路径-63备份-11" stroke="#D4D9E6" stroke-width="0.2"></line>
                <line x1="0" y1="47.4576271" x2="116" y2="47.4576271" id="路径-63备份-12" stroke="#D4D9E6" stroke-width="0.2"></line>
                <line x1="0" y1="51.0169492" x2="116" y2="51.0169492" id="路径-63备份-13" stroke="#D4D9E6" stroke-width="0.2"></line>
                <line x1="0" y1="54.5762712" x2="116" y2="54.5762712" id="路径-63备份-14" stroke="#D4D9E6" stroke-width="0.2"></line>
                <line x1="0" y1="58.1355932" x2="116" y2="58.1355932" id="路径-63备份-15" stroke="#D4D9E6" stroke-width="0.2"></line>
                <line x1="0" y1="61.6949153" x2="116" y2="61.6949153" id="路径-63备份-16" stroke="#D4D9E6" stroke-width="0.2"></line>
                <line x1="0" y1="65.2542373" x2="116" y2="65.2542373" id="路径-63备份-17" stroke="#D4D9E6" stroke-width="0.2"></line>
                <line x1="8.75480099" y1="8.37871439e-15" x2="8.75480099" y2="70" id="路径-64" stroke="#D4D9E6" stroke-width="0.2"></line>
                <line x1="22.9135802" y1="8.37871439e-15" x2="22.9135802" y2="70" id="路径-64备份" stroke="#D4D9E6" stroke-width="0.2"></line>
                <line x1="37.2345679" y1="8.37871439e-15" x2="37.2345679" y2="70" id="路径-64备份-2" stroke="#D4D9E6" stroke-width="0.2"></line>
                <line x1="51.5555556" y1="8.37871439e-15" x2="51.5555556" y2="70" id="路径-64备份-3" stroke="#D4D9E6" stroke-width="0.2"></line>
                <line x1="65.8765432" y1="8.37871439e-15" x2="65.8765432" y2="70" id="路径-64备份-4" stroke="#D4D9E6" stroke-width="0.2"></line>
                <line x1="80.1975309" y1="8.37871439e-15" x2="80.1975309" y2="70" id="路径-64备份-5" stroke="#D4D9E6" stroke-width="0.2"></line>
                <line x1="94.5185185" y1="8.37871439e-15" x2="94.5185185" y2="70" id="路径-64备份-6" stroke="#D4D9E6" stroke-width="0.2"></line>
                <line x1="108.839506" y1="8.37871439e-15" x2="108.839506" y2="70" id="路径-64备份-7" stroke="#D4D9E6" stroke-width="0.2"></line>
                <polyline id="路径-34" stroke="#00A5A7" opacity="0.8" stroke-linecap="round" stroke-linejoin="round" points="107.407407 12.9246957 105.856959 4.22466196 103.98693 17.2550375 102.513387 11.6148246 100.744417 18.4329699 99.1887275 3.55932203 97.4024624 13.4715093 95.7211678 10.9945269 93.8566702 27.1106523 92.5756956 5.96168854 90.587627 25.2104635 89.2100293 13.3598778 87.3266185 23.3073559 85.7991547 14.5989722 83.9470994 21.4473005 82.5126864 18.8806316 80.4805576 35.0576537 79.0067797 26.3297672 77.4008484 20.737648 75.5604546 36.845017 74.2566796 6.441059 72.2023003 34.9772003 70.722339 16.9882829 68.8396858 39.2865219 67.493599 11.9856939 65.5054527 37.4100151 64.1044292 22.4801805 62.2772606 32.407227 60.7189366 23.7100542 59.0150787 36.6800637 57.3744525 31.1005484 57.3275823 31.1175753 55.7771335 22.4175416 53.782361 44.756511 52.2994288 39.816945 50.5304587 46.6350903 48.9747688 31.7614424 47.1885037 41.6736296 45.5072091 39.1966473 43.6427115 55.3127727 42.3617369 34.1638089 40.3736683 53.4125839 38.9960706 41.5619982 37.1126598 51.5094763 35.585196 42.8010926 33.7331407 49.6494209 32.2987277 47.082752 30.2665989 63.2597741 28.792821 54.5318875 27.1868897 48.9397684 25.3464959 65.0471374 24.0427209 34.6431794 21.9883416 63.1793207 20.5083803 45.1904033 18.6257271 67.4886423 17.2796403 40.1878142 15.2914941 65.6121355 13.8904705 50.6823009 12.0633019 60.6093474 10.504978 51.9121745 8.80112006 64.8821841 7.16049383 59.3026688"></polyline>
            </g>
            <rect id="矩形" fill="#00A5A7" x="64" y="52" width="12" height="2" rx="1"></rect>
            <rect id="矩形备份-100" fill="#D4D9E6" x="64" y="57" width="21" height="2" rx="1"></rect>
            <path d="M80.5,157 C81.3284271,157 82,157.671573 82,158.5 L81.999,160 L83.5,160 C84.3284271,160 85,160.671573 85,161.5 C85,162.328427 84.3284271,163 83.5,163 L81.999,163 L82,164.5 C82,165.328427 81.3284271,166 80.5,166 C79.6715729,166 79,165.328427 79,164.5 L78.999,163 L77.5,163 C76.6715729,163 76,162.328427 76,161.5 C76,160.671573 76.6715729,160 77.5,160 L78.999,160 L79,158.5 C79,157.671573 79.6715729,157 80.5,157 Z" id="形状结合" fill="#ACBCF0" transform="translate(80.500000, 161.500000) rotate(-360.000000) translate(-80.500000, -161.500000) "></path>
            <circle id="椭圆形" fill="#ACBCF0" cx="42.782172" cy="95.5" r="1.5"></circle>
            <circle id="椭圆形备份" fill="#BBE3E3" cx="207.5" cy="80.5" r="1.5"></circle>
            <circle id="椭圆形" fill-opacity="0.1" fill="#00A5A7" cx="181" cy="51" r="18"></circle>
            <circle id="椭圆形备份-3" fill-opacity="0.1" fill="#00A5A7" cx="55" cy="135" r="18"></circle>
            <path d="M196.071045,31.0788984 C193.196838,29.1351405 189.730982,28 186,28 C176.058875,28 168,36.0588745 168,46 C168,55.9411255 176.058875,64 186,64 C195.941125,64 204,55.9411255 204,46 C204,42.4508045 202.972781,39.1415289 201.199425,36.3532559" id="路径" stroke="#014848" stroke-width="2" fill="#97ABEF" stroke-linecap="round"></path>
            <g id="标量数据" transform="translate(176.000000, 39.000000)" fill="#FFFFFF" fill-rule="nonzero" stroke="#FFFFFF" stroke-width="0.5">
                <path d="M19.4568327,4.64485543 L16.8588869,4.64485543 L14.3339644,1.19841951 C14.1401169,0.935893854 13.7639172,0.87395366 13.4913873,1.05969162 C13.4128447,1.10852628 13.3473899,1.17471693 13.3004032,1.2528226 L10.800758,5.4500212 L10.1660167,3.54591296 C10.0869135,3.31540358 9.86892512,3.15624819 9.61834159,3.14605022 L9.51723234,3.14605022 C9.27947208,3.17269542 9.0699471,3.30967152 8.95551432,3.5132711 L8.07361702,4.91143058 L7.27316884,2.50681388 C7.17122855,2.19987302 6.83202092,2.03074255 6.51484951,2.1287124 L6.46710348,2.15047363 L6.4053145,2.17495502 C6.30823859,2.22633196 6.22760036,2.30254918 6.17220152,2.39528754 L1.43411001,10.3326988 C0.880121082,10.3003584 0.361869088,10.5987844 0.126587869,11.0856115 C-0.10869335,11.5724386 -0.0133365569,12.1490372 0.367167971,12.5403391 C0.747672499,12.931641 1.33623574,13.0583696 1.85208164,12.8600686 C2.36792754,12.6617675 2.70654733,12.1786121 2.70640133,11.6410931 C2.70510911,11.383169 2.62497076,11.1313936 2.47609694,10.917532 L6.54012682,4.10082449 L7.32934065,6.47551949 C7.43246483,6.78136996 7.77130625,6.94910239 8.08765998,6.85090083 C8.20922698,6.81269705 8.31469172,6.73728238 8.38817912,6.63600861 C8.42746843,6.59418514 8.4622852,6.54861692 8.49209694,6.50000089 L9.39646296,5.06375924 L10.0649074,7.07395351 C10.1680316,7.37980398 10.506873,7.54753641 10.8232267,7.44933485 C10.988233,7.39726211 11.1215701,7.27805717 11.1883434,7.12291629 L13.88459,2.59929914 L15.9517123,5.4200995 C16.0040987,5.49095993 16.0722448,5.54952364 16.1511222,5.59146924 C16.2443558,5.65894791 16.3577202,5.69522794 16.47411,5.69483511 L19.4568327,5.69483511 C19.756203,5.69483511 19.9988906,5.45978915 19.9988906,5.16984527 C19.9988906,4.87990139 19.756203,4.64485543 19.4568327,4.64485543 L19.4568327,4.64485543 Z" id="路径"></path>
            </g>
            <path d="M72.5637829,141.9082 C73.0480419,141.29499 73.4883661,140.64548 73.8800055,139.964421 C75.2286726,137.619092 76,134.899623 76,132 C76,123.163444 68.836556,116 60,116 C54.8379246,116 50.2468118,118.444581 47.3211786,122.239227 C45.2386475,124.94034 44,128.325519 44,132 C44,132.792904 44.0576762,133.572337 44.1690622,134.334332 C44.686342,137.873063 46.3619808,141.035718 48.7986984,143.425016 C51.6848124,146.254966 55.6386189,148 60,148 C62.3396615,148 64.562032,147.497817 66.5652032,146.59536" id="路径" stroke="#014848" stroke-width="2" fill="#A2E5E6" stroke-linecap="round"></path>
            <g id="训练" transform="translate(53.000000, 125.000000)" fill="#FFFFFF" fill-rule="nonzero">
                <path d="M8.26258784,12.4696087 C6.80172526,12.8643923 5.24048314,12.5664688 4.02764947,11.6614782 C4.70132182,10.6541797 4.43324705,9.29173197 3.42817478,8.61474268 C2.42310252,7.93775339 1.05977846,8.20133535 0.37947959,9.20417043 C-0.300819277,10.2070055 -0.0417330081,11.5711911 0.958853992,12.2547921 C1.61903935,12.6986503 2.466863,12.7533489 3.17861025,12.3980032 C4.68268139,13.6168818 6.6821565,14.0358165 8.54900997,13.5232221 C8.83912264,13.4346275 9.00351743,13.1286658 8.91726482,12.8378483 C8.82470833,12.5604737 8.53809888,12.3973313 8.25234539,12.4593663 L8.26258784,12.4696087 Z M6.96346106,1.69555024e-05 C5.81219867,0.00296189179 4.85992661,0.897112933 4.78461353,2.04591296 C2.97721259,2.74194983 1.6146082,4.26441927 1.12251942,6.13765553 C1.05013199,6.43051711 1.2216109,6.72835102 1.51122863,6.81278687 C1.80409521,6.88518364 2.10193929,6.71370276 2.18637524,6.42407766 C2.56851741,4.95723094 3.60673288,3.74911472 4.99941486,3.15069277 C5.47073013,4.13302191 6.5902358,4.62219475 7.63126622,4.30069158 C8.67229664,3.97918842 9.32101069,2.94393332 9.15633125,1.86690533 C8.9916518,0.789877334 8.06322504,-0.00423020041 6.97368824,1.69555024e-05 L6.96346106,1.69555024e-05 Z M12.9373866,8.61315238 C13.2437174,6.70601899 12.6202934,4.76731954 11.2597778,3.39619091 C11.1263669,3.23355495 10.9121643,3.16080724 10.7073016,3.20855838 C10.5024389,3.25630952 10.342478,3.41627043 10.2947268,3.62113316 C10.2469757,3.82599589 10.3197234,4.04019848 10.4823594,4.17360933 C11.5632205,5.24493438 12.091332,6.75382354 11.91447,8.2653519 C10.7998343,8.15559167 9.77804083,8.89340843 9.5315878,9.98598388 C9.28513476,11.0785593 9.89123761,12.1835818 10.9450552,12.5629612 C11.9988728,12.9423406 13.1702366,12.4772145 13.6767443,11.47826 C14.1832521,10.4793055 13.8662113,9.25950204 12.9373866,8.63360675 L12.9373866,8.61315238 Z" id="形状"></path>
            </g>
        </g>
    </g>
</svg>