<?xml version="1.0" encoding="UTF-8"?>
<svg width="240px" height="180px" viewBox="0 0 240 180" version="1.1" xmlns="http://www.w3.org/2000/svg" xmlns:xlink="http://www.w3.org/1999/xlink">
    <!-- Generator: Sketch 63.1 (92452) - https://sketch.com -->
    <title>训练标量信息</title>
    <desc>Created with Sketch.</desc>
    <defs>
        <linearGradient x1="100%" y1="50%" x2="0%" y2="50%" id="linearGradient-1">
            <stop stop-color="#FAFAFA" offset="0%"></stop>
            <stop stop-color="#FAFAFA" offset="100%"></stop>
        </linearGradient>
    </defs>
    <g id="智能小助手" stroke="none" stroke-width="1" fill="none" fill-rule="evenodd">
        <g id="训练标量信息">
            <path d="M136.782172,18 C137.610599,18 138.282172,18.6715729 138.282172,19.5 L138.281172,21 L139.782172,21 C140.610599,21 141.282172,21.6715729 141.282172,22.5 C141.282172,23.3284271 140.610599,24 139.782172,24 L138.281172,24 L138.282172,25.5 C138.282172,26.3284271 137.610599,27 136.782172,27 C135.953745,27 135.282172,26.3284271 135.282172,25.5 L135.281172,24 L133.782172,24 C132.953745,24 132.282172,23.3284271 132.282172,22.5 C132.282172,21.6715729 132.953745,21 133.782172,21 L135.281172,21 L135.282172,19.5 C135.282172,18.6715729 135.953745,18 136.782172,18 Z" id="形状结合备份" fill="#CCCCCC" transform="translate(136.782172, 22.500000) rotate(-360.000000) translate(-136.782172, -22.500000) "></path>
            <path d="M43.0527181,75.2196611 L142.238742,22.0699563 C168.735071,7.87166467 202.615796,16.2975618 217.913459,40.8897243 C233.211122,65.4818867 224.132809,96.9277629 197.63648,111.126055 L98.4504561,164.275759 C71.9541266,178.474051 38.0734016,170.048154 22.7757386,145.455991 C7.47807566,120.863829 16.5563886,89.4179527 43.0527181,75.2196611 Z" id="矩形" fill="url(#linearGradient-1)"></path>
            <path d="M44.5,81 L44.5,78 M44,67.433713 L44,52.721519 C44,50.6661808 45.6569649,49 47.7009346,49 L172.299065,49 C174.343035,49 176,50.6661808 176,52.721519 L176,143.278481 C176,145.333819 174.343035,147 172.299065,147 L47.7009346,147 C45.6569649,147 44,145.333819 44,143.278481 L44,91.157947 L44,91.157947" id="形状" fill-opacity="0.1" fill="#000000"></path>
            <path d="M56.217828,73 L56.217828,70 M55.717828,59.433713 L55.717828,44.721519 C55.717828,42.6661808 57.3747928,41 59.4187626,41 L184.016893,41 C186.060863,41 187.717828,42.6661808 187.717828,44.721519 L187.717828,135.278481 C187.717828,137.333819 186.060863,139 184.016893,139 L59.4187626,139 C57.3747928,139 55.717828,137.333819 55.717828,135.278481 L55.717828,83.157947 L55.717828,83.157947" id="形状" stroke="#666666" stroke-width="2" fill="#FFFFFF" stroke-linecap="round"></path>
            <g id="编组-30" transform="translate(65.000000, 55.000000)">
                <rect id="矩形" stroke="#CCCCCC" stroke-width="0.2" fill="#F5F5F5" x="0" y="0" width="116" height="70"></rect>
                <line x1="0" y1="4.74576271" x2="116" y2="4.74576271" id="路径-63" stroke="#D4D9E6" stroke-width="0.2"></line>
                <line x1="0" y1="8.30508475" x2="116" y2="8.30508475" id="路径-63备份" stroke="#D4D9E6" stroke-width="0.2"></line>
                <line x1="0" y1="11.8644068" x2="116" y2="11.8644068" id="路径-63备份-2" stroke="#D4D9E6" stroke-width="0.2"></line>
                <line x1="0" y1="15.4237288" x2="116" y2="15.4237288" id="路径-63备份-3" stroke="#D4D9E6" stroke-width="0.2"></line>
                <line x1="0" y1="18.9830508" x2="116" y2="18.9830508" id="路径-63备份-4" stroke="#D4D9E6" stroke-width="0.2"></line>
                <line x1="0" y1="22.5423729" x2="116" y2="22.5423729" id="路径-63备份-5" stroke="#D4D9E6" stroke-width="0.2"></line>
                <line x1="0" y1="26.1016949" x2="116" y2="26.1016949" id="路径-63备份-6" stroke="#D4D9E6" stroke-width="0.2"></line>
                <line x1="0" y1="29.6610169" x2="116" y2="29.6610169" id="路径-63备份-7" stroke="#D4D9E6" stroke-width="0.2"></line>
                <line x1="0" y1="33.220339" x2="116" y2="33.220339" id="路径-63备份-8" stroke="#D4D9E6" stroke-width="0.2"></line>
                <line x1="0" y1="36.779661" x2="116" y2="36.779661" id="路径-63备份-9" stroke="#D4D9E6" stroke-width="0.2"></line>
                <line x1="0" y1="40.3389831" x2="116" y2="40.3389831" id="路径-63备份-10" stroke="#D4D9E6" stroke-width="0.2"></line>
                <line x1="0" y1="43.8983051" x2="116" y2="43.8983051" id="路径-63备份-11" stroke="#D4D9E6" stroke-width="0.2"></line>
                <line x1="0" y1="47.4576271" x2="116" y2="47.4576271" id="路径-63备份-12" stroke="#D4D9E6" stroke-width="0.2"></line>
                <line x1="0" y1="51.0169492" x2="116" y2="51.0169492" id="路径-63备份-13" stroke="#D4D9E6" stroke-width="0.2"></line>
                <line x1="0" y1="54.5762712" x2="116" y2="54.5762712" id="路径-63备份-14" stroke="#D4D9E6" stroke-width="0.2"></line>
                <line x1="0" y1="58.1355932" x2="116" y2="58.1355932" id="路径-63备份-15" stroke="#D4D9E6" stroke-width="0.2"></line>
                <line x1="0" y1="61.6949153" x2="116" y2="61.6949153" id="路径-63备份-16" stroke="#D4D9E6" stroke-width="0.2"></line>
                <line x1="0" y1="65.2542373" x2="116" y2="65.2542373" id="路径-63备份-17" stroke="#D4D9E6" stroke-width="0.2"></line>
                <line x1="8.75480099" y1="8.37871439e-15" x2="8.75480099" y2="70" id="路径-64" stroke="#D4D9E6" stroke-width="0.2"></line>
                <line x1="22.9135802" y1="8.37871439e-15" x2="22.9135802" y2="70" id="路径-64备份" stroke="#D4D9E6" stroke-width="0.2"></line>
                <line x1="37.2345679" y1="8.37871439e-15" x2="37.2345679" y2="70" id="路径-64备份-2" stroke="#D4D9E6" stroke-width="0.2"></line>
                <line x1="51.5555556" y1="8.37871439e-15" x2="51.5555556" y2="70" id="路径-64备份-3" stroke="#D4D9E6" stroke-width="0.2"></line>
                <line x1="65.8765432" y1="8.37871439e-15" x2="65.8765432" y2="70" id="路径-64备份-4" stroke="#D4D9E6" stroke-width="0.2"></line>
                <line x1="80.1975309" y1="8.37871439e-15" x2="80.1975309" y2="70" id="路径-64备份-5" stroke="#D4D9E6" stroke-width="0.2"></line>
                <line x1="94.5185185" y1="8.37871439e-15" x2="94.5185185" y2="70" id="路径-64备份-6" stroke="#D4D9E6" stroke-width="0.2"></line>
                <line x1="108.839506" y1="8.37871439e-15" x2="108.839506" y2="70" id="路径-64备份-7" stroke="#D4D9E6" stroke-width="0.2"></line>
                <polyline id="路径-34" stroke="#999999" opacity="0.8" stroke-linecap="round" stroke-linejoin="round" points="107.407407 12.9246957 105.856959 4.22466196 103.98693 17.2550375 102.513387 11.6148246 100.744417 18.4329699 99.1887275 3.55932203 97.4024624 13.4715093 95.7211678 10.9945269 93.8566702 27.1106523 92.5756956 5.96168854 90.587627 25.2104635 89.2100293 13.3598778 87.3266185 23.3073559 85.7991547 14.5989722 83.9470994 21.4473005 82.5126864 18.8806316 80.4805576 35.0576537 79.0067797 26.3297672 77.4008484 20.737648 75.5604546 36.845017 74.2566796 6.441059 72.2023003 34.9772003 70.722339 16.9882829 68.8396858 39.2865219 67.493599 11.9856939 65.5054527 37.4100151 64.1044292 22.4801805 62.2772606 32.407227 60.7189366 23.7100542 59.0150787 36.6800637 57.3744525 31.1005484 57.3275823 31.1175753 55.7771335 22.4175416 53.782361 44.756511 52.2994288 39.816945 50.5304587 46.6350903 48.9747688 31.7614424 47.1885037 41.6736296 45.5072091 39.1966473 43.6427115 55.3127727 42.3617369 34.1638089 40.3736683 53.4125839 38.9960706 41.5619982 37.1126598 51.5094763 35.585196 42.8010926 33.7331407 49.6494209 32.2987277 47.082752 30.2665989 63.2597741 28.792821 54.5318875 27.1868897 48.9397684 25.3464959 65.0471374 24.0427209 34.6431794 21.9883416 63.1793207 20.5083803 45.1904033 18.6257271 67.4886423 17.2796403 40.1878142 15.2914941 65.6121355 13.8904705 50.6823009 12.0633019 60.6093474 10.504978 51.9121745 8.80112006 64.8821841 7.16049383 59.3026688"></polyline>
            </g>
            <path d="M80.5,157 C81.3284271,157 82,157.671573 82,158.5 L81.999,160 L83.5,160 C84.3284271,160 85,160.671573 85,161.5 C85,162.328427 84.3284271,163 83.5,163 L81.999,163 L82,164.5 C82,165.328427 81.3284271,166 80.5,166 C79.6715729,166 79,165.328427 79,164.5 L78.999,163 L77.5,163 C76.6715729,163 76,162.328427 76,161.5 C76,160.671573 76.6715729,160 77.5,160 L78.999,160 L79,158.5 C79,157.671573 79.6715729,157 80.5,157 Z" id="形状结合" fill="#CCCCCC" transform="translate(80.500000, 161.500000) rotate(-360.000000) translate(-80.500000, -161.500000) "></path>
            <circle id="椭圆形" fill="#BBBBBB" cx="42.782172" cy="95.5" r="1.5"></circle>
            <circle id="椭圆形备份" fill="#BBBBBB" cx="207.5" cy="80.5" r="1.5"></circle>
        </g>
    </g>
</svg>