<?xml version="1.0" encoding="UTF-8"?>
<svg width="240px" height="180px" viewBox="0 0 240 180" version="1.1" xmlns="http://www.w3.org/2000/svg" xmlns:xlink="http://www.w3.org/1999/xlink">
    <!-- Generator: Sketch 63.1 (92452) - https://sketch.com -->
    <title>张量</title>
    <desc>Created with Sketch.</desc>
    <defs>
        <linearGradient x1="100%" y1="50%" x2="0%" y2="50%" id="linearGradient-1">
            <stop stop-color="#EDF2FF" offset="0%"></stop>
            <stop stop-color="#ECFEFE" offset="100%"></stop>
        </linearGradient>
    </defs>
    <g id="智能小助手" stroke="none" stroke-width="1" fill="none" fill-rule="evenodd">
        <g id="张量">
            <path d="M136.782172,18 C137.610599,18 138.282172,18.6715729 138.282172,19.5 L138.281172,21 L139.782172,21 C140.610599,21 141.282172,21.6715729 141.282172,22.5 C141.282172,23.3284271 140.610599,24 139.782172,24 L138.281172,24 L138.282172,25.5 C138.282172,26.3284271 137.610599,27 136.782172,27 C135.953745,27 135.282172,26.3284271 135.282172,25.5 L135.281172,24 L133.782172,24 C132.953745,24 132.282172,23.3284271 132.282172,22.5 C132.282172,21.6715729 132.953745,21 133.782172,21 L135.281172,21 L135.282172,19.5 C135.282172,18.6715729 135.953745,18 136.782172,18 Z" id="形状结合备份" fill="#BBE3E3" transform="translate(136.782172, 22.500000) rotate(-360.000000) translate(-136.782172, -22.500000) "></path>
            <path d="M43.0527181,75.2196611 L142.238742,22.0699563 C168.735071,7.87166467 202.615796,16.2975618 217.913459,40.8897243 C233.211122,65.4818867 224.132809,96.9277629 197.63648,111.126055 L98.4504561,164.275759 C71.9541266,178.474051 38.0734016,170.048154 22.7757386,145.455991 C7.47807566,120.863829 16.5563886,89.4179527 43.0527181,75.2196611 Z" id="矩形" fill="url(#linearGradient-1)"></path>
            <path d="M44.5,81 L44.5,78 M44,67.433713 L44,52.721519 C44,50.6661808 45.6569649,49 47.7009346,49 L172.299065,49 C174.343035,49 176,50.6661808 176,52.721519 L176,143.278481 C176,145.333819 174.343035,147 172.299065,147 L47.7009346,147 C45.6569649,147 44,145.333819 44,143.278481 L44,91.157947 L44,91.157947" id="形状" fill-opacity="0.1" fill="#00A5A7"></path>
            <path d="M56.5,73 L56.5,70 M56,59.433713 L56,44.721519 C56,42.6661808 57.6569649,41 59.7009346,41 L184.299065,41 C186.343035,41 188,42.6661808 188,44.721519 L188,135.278481 C188,137.333819 186.343035,139 184.299065,139 L59.7009346,139 C57.6569649,139 56,137.333819 56,135.278481 L56,83.157947 L56,83.157947" id="形状" stroke="#014848" stroke-width="2" fill="#FFFFFF" stroke-linecap="round"></path>
            <g id="编组-29" transform="translate(64.000000, 76.000000)">
                <rect id="矩形" stroke="#D4D9E6" stroke-width="0.2" fill="#FFFFFF" x="0" y="0" width="19.3333333" height="5"></rect>
                <rect id="矩形备份-200" stroke="#D4D9E6" stroke-width="0.2" fill="#FFFFFF" x="19.3333333" y="0" width="19.3333333" height="5"></rect>
                <rect id="矩形备份-191" stroke="#D4D9E6" stroke-width="0.2" fill="#FFFFFF" x="0" y="5" width="19.3333333" height="5"></rect>
                <rect id="矩形备份-201" stroke="#D4D9E6" stroke-width="0.2" fill-opacity="0.6" fill="#00A5A7" x="19.3333333" y="5" width="19.3333333" height="5"></rect>
                <rect id="矩形备份-192" stroke="#D4D9E6" stroke-width="0.2" fill="#FFFFFF" x="0" y="10" width="19.3333333" height="5"></rect>
                <rect id="矩形备份-202" stroke="#D4D9E6" stroke-width="0.2" fill="#FFFFFF" x="19.3333333" y="10" width="19.3333333" height="5"></rect>
                <rect id="矩形备份-193" stroke="#D4D9E6" stroke-width="0.2" fill="#FFFFFF" x="0" y="15" width="19.3333333" height="5"></rect>
                <rect id="矩形备份-203" stroke="#D4D9E6" stroke-width="0.2" fill="#FFFFFF" x="19.3333333" y="15" width="19.3333333" height="5"></rect>
                <rect id="矩形备份-194" stroke="#D4D9E6" stroke-width="0.2" fill="#FFFFFF" x="0" y="20" width="19.3333333" height="5"></rect>
                <rect id="矩形备份-204" stroke="#D4D9E6" stroke-width="0.2" fill="#FFFFFF" x="19.3333333" y="20" width="19.3333333" height="5"></rect>
                <rect id="矩形备份-195" stroke="#D4D9E6" stroke-width="0.2" fill="#FFFFFF" x="0" y="25" width="19.3333333" height="5"></rect>
                <rect id="矩形备份-205" stroke="#D4D9E6" stroke-width="0.2" fill-opacity="0.1" fill="#E37D29" x="19.3333333" y="25" width="19.3333333" height="5"></rect>
                <rect id="矩形备份-196" stroke="#D4D9E6" stroke-width="0.2" fill="#FFFFFF" x="0" y="30" width="19.3333333" height="5"></rect>
                <rect id="矩形备份-206" stroke="#D4D9E6" stroke-width="0.2" fill="#FFFFFF" x="19.3333333" y="30" width="19.3333333" height="5"></rect>
                <rect id="矩形备份-197" stroke="#D4D9E6" stroke-width="0.2" fill="#FFFFFF" x="0" y="35" width="19.3333333" height="5"></rect>
                <rect id="矩形备份-207" stroke="#D4D9E6" stroke-width="0.2" fill="#FFFFFF" x="19.3333333" y="35" width="19.3333333" height="5"></rect>
                <rect id="矩形备份-198" stroke="#D4D9E6" stroke-width="0.2" fill="#FFFFFF" x="0" y="40" width="19.3333333" height="5"></rect>
                <rect id="矩形备份-208" stroke="#D4D9E6" stroke-width="0.2" fill-opacity="0.1" fill="#00A5A7" x="19.3333333" y="40" width="19.3333333" height="5"></rect>
                <rect id="矩形备份-199" stroke="#D4D9E6" stroke-width="0.2" fill="#FFFFFF" x="0" y="45" width="19.3333333" height="5"></rect>
                <rect id="矩形备份-209" stroke="#D4D9E6" stroke-width="0.2" fill="#FFFFFF" x="19.3333333" y="45" width="19.3333333" height="5"></rect>
                <rect id="矩形备份-219" stroke="#D4D9E6" stroke-width="0.2" fill="#FFFFFF" x="38.6666667" y="0" width="19.3333333" height="5"></rect>
                <rect id="矩形备份-218" stroke="#D4D9E6" stroke-width="0.2" fill="#FFFFFF" x="38.6666667" y="5" width="19.3333333" height="5"></rect>
                <rect id="矩形备份-217" stroke="#D4D9E6" stroke-width="0.2" fill-opacity="0.5" fill="#E37D29" x="38.6666667" y="10" width="19.3333333" height="5"></rect>
                <rect id="矩形备份-216" stroke="#D4D9E6" stroke-width="0.2" fill-opacity="0.7" fill="#00A5A7" x="38.6666667" y="15" width="19.3333333" height="5"></rect>
                <rect id="矩形备份-215" stroke="#D4D9E6" stroke-width="0.2" fill="#FFFFFF" x="38.6666667" y="20" width="19.3333333" height="5"></rect>
                <rect id="矩形备份-214" stroke="#D4D9E6" stroke-width="0.2" fill="#FFFFFF" x="38.6666667" y="25" width="19.3333333" height="5"></rect>
                <rect id="矩形备份-213" stroke="#D4D9E6" stroke-width="0.2" fill="#FFFFFF" x="38.6666667" y="30" width="19.3333333" height="5"></rect>
                <rect id="矩形备份-212" stroke="#D4D9E6" stroke-width="0.2" fill-opacity="0.2" fill="#00A5A7" x="38.6666667" y="35" width="19.3333333" height="5"></rect>
                <rect id="矩形备份-211" stroke="#D4D9E6" stroke-width="0.2" fill="#FFFFFF" x="38.6666667" y="40" width="19.3333333" height="5"></rect>
                <rect id="矩形备份-210" stroke="#D4D9E6" stroke-width="0.2" fill="#FFFFFF" x="38.6666667" y="45" width="19.3333333" height="5"></rect>
                <rect id="矩形备份-229" stroke="#D4D9E6" stroke-width="0.2" fill="#FFFFFF" x="58" y="0" width="19.3333333" height="5"></rect>
                <rect id="矩形备份-228" stroke="#D4D9E6" stroke-width="0.2" fill="#FFFFFF" x="58" y="5" width="19.3333333" height="5"></rect>
                <rect id="矩形备份-227" stroke="#D4D9E6" stroke-width="0.2" fill-opacity="0.7" fill="#00A5A7" x="58" y="10" width="19.3333333" height="5"></rect>
                <rect id="矩形备份-226" stroke="#D4D9E6" stroke-width="0.2" fill="#FFFFFF" x="58" y="15" width="19.3333333" height="5"></rect>
                <rect id="矩形备份-225" stroke="#D4D9E6" stroke-width="0.2" fill="#FFFFFF" x="58" y="20" width="19.3333333" height="5"></rect>
                <rect id="矩形备份-224" stroke="#D4D9E6" stroke-width="0.2" fill-opacity="0.4" fill="#00A5A7" x="58" y="25" width="19.3333333" height="5"></rect>
                <rect id="矩形备份-223" stroke="#D4D9E6" stroke-width="0.2" fill-opacity="0.1" fill="#E37D29" x="58" y="30" width="19.3333333" height="5"></rect>
                <rect id="矩形备份-222" stroke="#D4D9E6" stroke-width="0.2" fill="#FFFFFF" x="58" y="35" width="19.3333333" height="5"></rect>
                <rect id="矩形备份-221" stroke="#D4D9E6" stroke-width="0.2" fill-opacity="0.3" fill="#E37D29" x="58" y="40" width="19.3333333" height="5"></rect>
                <rect id="矩形备份-220" stroke="#D4D9E6" stroke-width="0.2" fill="#FFFFFF" x="58" y="45" width="19.3333333" height="5"></rect>
                <rect id="矩形备份-239" stroke="#D4D9E6" stroke-width="0.2" fill="#FFFFFF" x="77.3333333" y="0" width="19.3333333" height="5"></rect>
                <rect id="矩形备份-238" stroke="#D4D9E6" stroke-width="0.2" fill-opacity="0.3" fill="#E37D29" x="77.3333333" y="5" width="19.3333333" height="5"></rect>
                <rect id="矩形备份-237" stroke="#D4D9E6" stroke-width="0.2" fill="#FFFFFF" x="77.3333333" y="10" width="19.3333333" height="5"></rect>
                <rect id="矩形备份-236" stroke="#D4D9E6" stroke-width="0.2" fill-opacity="0.2" fill="#00A5A7" x="77.3333333" y="15" width="19.3333333" height="5"></rect>
                <rect id="矩形备份-235" stroke="#D4D9E6" stroke-width="0.2" fill-opacity="0.2" fill="#E37D29" x="77.3333333" y="20" width="19.3333333" height="5"></rect>
                <rect id="矩形备份-234" stroke="#D4D9E6" stroke-width="0.2" fill="#FFFFFF" x="77.3333333" y="25" width="19.3333333" height="5"></rect>
                <rect id="矩形备份-233" stroke="#D4D9E6" stroke-width="0.2" fill="#FFFFFF" x="77.3333333" y="30" width="19.3333333" height="5"></rect>
                <rect id="矩形备份-232" stroke="#D4D9E6" stroke-width="0.2" fill="#FFFFFF" x="77.3333333" y="35" width="19.3333333" height="5"></rect>
                <rect id="矩形备份-231" stroke="#D4D9E6" stroke-width="0.2" fill="#FFFFFF" x="77.3333333" y="40" width="19.3333333" height="5"></rect>
                <rect id="矩形备份-230" stroke="#D4D9E6" stroke-width="0.2" fill-opacity="0.5" fill="#00A5A7" x="77.3333333" y="45" width="19.3333333" height="5"></rect>
                <rect id="矩形备份-249" stroke="#D4D9E6" stroke-width="0.2" fill="#FFFFFF" x="96.6666667" y="0" width="19.3333333" height="5"></rect>
                <rect id="矩形备份-248" stroke="#D4D9E6" stroke-width="0.2" fill="#FFFFFF" x="96.6666667" y="5" width="19.3333333" height="5"></rect>
                <rect id="矩形备份-247" stroke="#D4D9E6" stroke-width="0.2" fill="#FFFFFF" x="96.6666667" y="10" width="19.3333333" height="5"></rect>
                <rect id="矩形备份-246" stroke="#D4D9E6" stroke-width="0.2" fill="#FFFFFF" x="96.6666667" y="15" width="19.3333333" height="5"></rect>
                <rect id="矩形备份-245" stroke="#D4D9E6" stroke-width="0.2" fill="#FFFFFF" x="96.6666667" y="20" width="19.3333333" height="5"></rect>
                <rect id="矩形备份-244" stroke="#D4D9E6" stroke-width="0.2" fill="#FFFFFF" x="96.6666667" y="25" width="19.3333333" height="5"></rect>
                <rect id="矩形备份-243" stroke="#D4D9E6" stroke-width="0.2" fill-opacity="0.1" fill="#E37D29" x="96.6666667" y="30" width="19.3333333" height="5"></rect>
                <rect id="矩形备份-242" stroke="#D4D9E6" stroke-width="0.2" fill="#FFFFFF" x="96.6666667" y="35" width="19.3333333" height="5"></rect>
                <rect id="矩形备份-241" stroke="#D4D9E6" stroke-width="0.2" fill-opacity="0.4" fill="#00A5A7" x="96.6666667" y="40" width="19.3333333" height="5"></rect>
                <rect id="矩形备份-240" stroke="#D4D9E6" stroke-width="0.2" fill="#FFFFFF" x="96.6666667" y="45" width="19.3333333" height="5"></rect>
                <path d="M9.66666667,8.8025 C10.0188095,8.8025 10.2839524,8.66 10.4662381,8.37875 C10.6236667,8.13875 10.702381,7.81625 10.702381,7.41125 C10.702381,7.00625 10.6236667,6.68375 10.4662381,6.44375 C10.2839524,6.15875 10.0188095,6.02 9.66666667,6.02 C9.31038095,6.02 9.0452381,6.15875 8.86709524,6.44375 C8.70966667,6.68375 8.63095238,7.00625 8.63095238,7.41125 C8.63095238,7.81625 8.70966667,8.13875 8.86709524,8.37875 C9.0452381,8.66 9.31038095,8.8025 9.66666667,8.8025 Z M9.66666667,8.54 C9.40152381,8.54 9.21095238,8.40875 9.09495238,8.15375 C9.01209524,7.97 8.97066667,7.7225 8.97066667,7.41125 C8.97066667,7.09625 9.01209524,6.84875 9.09495238,6.66875 C9.21095238,6.41 9.40152381,6.2825 9.66666667,6.2825 C9.93180952,6.2825 10.122381,6.41 10.238381,6.66875 C10.3212381,6.84875 10.3668095,7.09625 10.3668095,7.41125 C10.3668095,7.7225 10.3212381,7.97 10.238381,8.15375 C10.122381,8.40875 9.93180952,8.54 9.66666667,8.54 Z" id="0" fill="#D4D9E6" fill-rule="nonzero"></path>
                <path d="M29,3.8025 C29.3521429,3.8025 29.6172857,3.66 29.7995714,3.37875 C29.957,3.13875 30.0357143,2.81625 30.0357143,2.41125 C30.0357143,2.00625 29.957,1.68375 29.7995714,1.44375 C29.6172857,1.15875 29.3521429,1.02 29,1.02 C28.6437143,1.02 28.3785714,1.15875 28.2004286,1.44375 C28.043,1.68375 27.9642857,2.00625 27.9642857,2.41125 C27.9642857,2.81625 28.043,3.13875 28.2004286,3.37875 C28.3785714,3.66 28.6437143,3.8025 29,3.8025 Z M29,3.54 C28.7348571,3.54 28.5442857,3.40875 28.4282857,3.15375 C28.3454286,2.97 28.304,2.7225 28.304,2.41125 C28.304,2.09625 28.3454286,1.84875 28.4282857,1.66875 C28.5442857,1.41 28.7348571,1.2825 29,1.2825 C29.2651429,1.2825 29.4557143,1.41 29.5717143,1.66875 C29.6545714,1.84875 29.7001429,2.09625 29.7001429,2.41125 C29.7001429,2.7225 29.6545714,2.97 29.5717143,3.15375 C29.4557143,3.40875 29.2651429,3.54 29,3.54 Z" id="0" fill="#D4D9E6" fill-rule="nonzero"></path>
                <path d="M48.7206905,3.75 L48.7206905,1.0725 L48.4555476,1.0725 C48.356119,1.17375 48.240119,1.26375 48.0992619,1.34625 C47.9584048,1.42125 47.8175476,1.47375 47.6849762,1.5075 L47.6849762,1.815 C47.9625476,1.74 48.1945476,1.62 48.3809762,1.4475 L48.3809762,3.75 L48.7206905,3.75 Z" id="1" fill="#D4D9E6" fill-rule="nonzero"></path>
                <path d="M68.6526667,3.75 L68.6526667,3.47625 L67.0990952,3.47625 C67.1529524,3.29625 67.368381,3.09 67.745381,2.86125 C68.0519524,2.67375 68.2549524,2.5275 68.3585238,2.43 C68.5490952,2.2425 68.6485238,2.0325 68.6485238,1.8 C68.6485238,1.5675 68.557381,1.37625 68.383381,1.23375 C68.2052381,1.09125 67.9815238,1.02 67.7080952,1.02 C67.4098095,1.02 67.165381,1.11 66.9830952,1.29 C66.8008095,1.46625 66.7055238,1.70625 66.7055238,2.00625 L67.0452381,2.00625 C67.049381,1.77 67.1115238,1.59 67.2275238,1.47 C67.3352381,1.3425 67.4926667,1.2825 67.6956667,1.2825 C67.8862381,1.2825 68.0395238,1.3275 68.1472381,1.4175 C68.2549524,1.5075 68.3088095,1.63125 68.3088095,1.79625 C68.3088095,1.96875 68.2300952,2.13 68.0809524,2.27625 C68.0022381,2.35125 67.8489524,2.46 67.6169524,2.61 C67.3020952,2.805 67.0908095,2.96625 66.9748095,3.08625 C66.7759524,3.285 66.6806667,3.50625 66.6806667,3.75 L68.6526667,3.75 Z" id="2" fill="#D4D9E6" fill-rule="nonzero"></path>
                <path d="M87.0082857,3.8025 C87.3148571,3.8025 87.5634286,3.72375 87.754,3.56625 C87.9404286,3.4125 88.0357143,3.21375 88.0357143,2.97 C88.0357143,2.8125 87.986,2.68125 87.8865714,2.57625 C87.7954286,2.47125 87.6628571,2.39625 87.4888571,2.3475 C87.812,2.25 87.9735714,2.0475 87.9735714,1.7475 C87.9735714,1.5225 87.8865714,1.34625 87.7167143,1.215 C87.5427143,1.08375 87.3107143,1.02 87.029,1.02 C86.7472857,1.02 86.5194286,1.09125 86.3454286,1.2375 C86.1631429,1.38375 86.0554286,1.58625 86.0305714,1.845 L86.3661429,1.845 C86.3868571,1.665 86.4531429,1.52625 86.5691429,1.42875 C86.681,1.33125 86.8342857,1.28625 87.0331429,1.28625 C87.2237143,1.28625 87.377,1.3275 87.4847143,1.4175 C87.5841429,1.5 87.638,1.61625 87.638,1.76625 C87.638,1.91625 87.5841429,2.0325 87.4805714,2.115 C87.377,2.19375 87.2278571,2.235 87.029,2.235 L86.8011429,2.235 L86.8011429,2.475 L87.0414286,2.475 C87.2485714,2.475 87.406,2.51625 87.522,2.60625 C87.638,2.69625 87.696,2.82 87.696,2.98125 C87.696,3.13875 87.6338571,3.27 87.5178571,3.375 C87.3894286,3.48375 87.2195714,3.54 87.0082857,3.54 C86.8218571,3.54 86.6685714,3.49125 86.5442857,3.40125 C86.3992857,3.2925 86.3205714,3.13125 86.3122857,2.92125 L85.9684286,2.92125 C85.9932857,3.22125 86.1092857,3.45 86.3205714,3.6075 C86.4987143,3.735 86.7265714,3.8025 87.0082857,3.8025 Z" id="3" fill="#D4D9E6" fill-rule="nonzero"></path>
                <path d="M107.000333,3.75 L107.000333,3.1425 L107.480905,3.1425 L107.480905,2.89125 L107.000333,2.89125 L107.000333,1.0725 L106.681333,1.0725 L105.189905,2.85 L105.189905,3.1425 L106.67719,3.1425 L106.67719,3.75 L107.000333,3.75 Z M106.67719,2.89125 L105.475762,2.89125 L106.664762,1.47375 L106.67719,1.47375 L106.67719,2.89125 Z" id="4" fill="#D4D9E6" fill-rule="nonzero"></path>
                <path d="M10.0540238,13.75 L10.0540238,11.0725 L9.78888095,11.0725 C9.68945238,11.17375 9.57345238,11.26375 9.43259524,11.34625 C9.2917381,11.42125 9.15088095,11.47375 9.01830952,11.5075 L9.01830952,11.815 C9.29588095,11.74 9.52788095,11.62 9.71430952,11.4475 L9.71430952,13.75 L10.0540238,13.75 Z" id="1" fill="#D4D9E6" fill-rule="nonzero"></path>
                <path d="M10.6526667,18.75 L10.6526667,18.47625 L9.09909524,18.47625 C9.15295238,18.29625 9.36838095,18.09 9.74538095,17.86125 C10.0519524,17.67375 10.2549524,17.5275 10.3585238,17.43 C10.5490952,17.2425 10.6485238,17.0325 10.6485238,16.8 C10.6485238,16.5675 10.557381,16.37625 10.383381,16.23375 C10.2052381,16.09125 9.98152381,16.02 9.70809524,16.02 C9.40980952,16.02 9.16538095,16.11 8.98309524,16.29 C8.80080952,16.46625 8.70552381,16.70625 8.70552381,17.00625 L9.0452381,17.00625 C9.04938095,16.77 9.11152381,16.59 9.22752381,16.47 C9.3352381,16.3425 9.49266667,16.2825 9.69566667,16.2825 C9.8862381,16.2825 10.0395238,16.3275 10.1472381,16.4175 C10.2549524,16.5075 10.3088095,16.63125 10.3088095,16.79625 C10.3088095,16.96875 10.2300952,17.13 10.0809524,17.27625 C10.0022381,17.35125 9.84895238,17.46 9.61695238,17.61 C9.30209524,17.805 9.09080952,17.96625 8.97480952,18.08625 C8.77595238,18.285 8.68066667,18.50625 8.68066667,18.75 L10.6526667,18.75 Z" id="2" fill="#D4D9E6" fill-rule="nonzero"></path>
                <path d="M9.67495238,23.8025 C9.98152381,23.8025 10.2300952,23.72375 10.4206667,23.56625 C10.6070952,23.4125 10.702381,23.21375 10.702381,22.97 C10.702381,22.8125 10.6526667,22.68125 10.5532381,22.57625 C10.4620952,22.47125 10.3295238,22.39625 10.1555238,22.3475 C10.4786667,22.25 10.6402381,22.0475 10.6402381,21.7475 C10.6402381,21.5225 10.5532381,21.34625 10.383381,21.215 C10.209381,21.08375 9.97738095,21.02 9.69566667,21.02 C9.41395238,21.02 9.18609524,21.09125 9.01209524,21.2375 C8.82980952,21.38375 8.72209524,21.58625 8.6972381,21.845 L9.03280952,21.845 C9.05352381,21.665 9.11980952,21.52625 9.23580952,21.42875 C9.34766667,21.33125 9.50095238,21.28625 9.69980952,21.28625 C9.89038095,21.28625 10.0436667,21.3275 10.151381,21.4175 C10.2508095,21.5 10.3046667,21.61625 10.3046667,21.76625 C10.3046667,21.91625 10.2508095,22.0325 10.1472381,22.115 C10.0436667,22.19375 9.89452381,22.235 9.69566667,22.235 L9.46780952,22.235 L9.46780952,22.475 L9.70809524,22.475 C9.9152381,22.475 10.0726667,22.51625 10.1886667,22.60625 C10.3046667,22.69625 10.3626667,22.82 10.3626667,22.98125 C10.3626667,23.13875 10.3005238,23.27 10.1845238,23.375 C10.0560952,23.48375 9.8862381,23.54 9.67495238,23.54 C9.48852381,23.54 9.3352381,23.49125 9.21095238,23.40125 C9.06595238,23.2925 8.9872381,23.13125 8.97895238,22.92125 L8.63509524,22.92125 C8.65995238,23.22125 8.77595238,23.45 8.9872381,23.6075 C9.16538095,23.735 9.3932381,23.8025 9.67495238,23.8025 Z" id="3" fill="#D4D9E6" fill-rule="nonzero"></path>
                <path d="M10.3336667,28.75 L10.3336667,28.1425 L10.8142381,28.1425 L10.8142381,27.89125 L10.3336667,27.89125 L10.3336667,26.0725 L10.0146667,26.0725 L8.5232381,27.85 L8.5232381,28.1425 L10.0105238,28.1425 L10.0105238,28.75 L10.3336667,28.75 Z M10.0105238,27.89125 L8.80909524,27.89125 L9.99809524,26.47375 L10.0105238,26.47375 L10.0105238,27.89125 Z" id="4" fill="#D4D9E6" fill-rule="nonzero"></path>
                <path d="M9.64180952,33.8025 C9.93180952,33.8025 10.180381,33.72 10.3792381,33.55875 C10.5905238,33.38625 10.6982381,33.165 10.6982381,32.895 C10.6982381,32.60625 10.6070952,32.38125 10.4330952,32.21625 C10.2590952,32.055 10.0312381,31.97625 9.74952381,31.97625 C9.61280952,31.97625 9.48852381,31.995 9.37252381,32.04 C9.24409524,32.085 9.13638095,32.1525 9.05352381,32.2425 L9.03695238,32.2425 L9.13638095,31.34625 L10.5780952,31.34625 L10.5780952,31.0725 L8.85880952,31.0725 L8.70138095,32.55 L9.02452381,32.55 C9.08252381,32.445 9.17366667,32.3625 9.28966667,32.31 C9.40152381,32.25375 9.52580952,32.2275 9.66666667,32.2275 C9.88209524,32.2275 10.0519524,32.28375 10.1720952,32.40375 C10.296381,32.52 10.3626667,32.685 10.3626667,32.89875 C10.3626667,33.08625 10.2922381,33.24 10.1596667,33.36 C10.0229524,33.48 9.85309524,33.54 9.64595238,33.54 C9.46366667,33.54 9.31038095,33.49875 9.19438095,33.42 C9.06180952,33.33 8.9872381,33.19875 8.97066667,33.03 L8.63509524,33.03 C8.65580952,33.27375 8.76766667,33.46875 8.97480952,33.61125 C9.15709524,33.73875 9.38080952,33.8025 9.64180952,33.8025 Z" id="5" fill="#D4D9E6" fill-rule="nonzero"></path>
                <path d="M9.70395238,38.8025 C9.99395238,38.8025 10.2300952,38.7125 10.4206667,38.54 C10.6070952,38.3675 10.702381,38.14625 10.702381,37.88375 C10.702381,37.62125 10.615381,37.41125 10.4455238,37.24625 C10.2715238,37.08125 10.0436667,36.99875 9.76195238,36.99875 C9.58795238,36.99875 9.43466667,37.03625 9.30209524,37.115 C9.1612381,37.19 9.05766667,37.29875 8.98309524,37.4375 L8.96652381,37.4375 C8.96238095,37.38875 8.96238095,37.355 8.96238095,37.34 C8.96238095,37.03625 9.02452381,36.785 9.15709524,36.59 C9.28966667,36.38 9.47195238,36.27875 9.70395238,36.27875 C10.0478095,36.27875 10.2508095,36.42875 10.3170952,36.73625 L10.6526667,36.73625 C10.5698095,36.25625 10.2549524,36.02 9.70809524,36.02 C9.37252381,36.02 9.10738095,36.15875 8.91266667,36.44 C8.7262381,36.70625 8.63509524,37.055 8.63509524,37.4825 C8.63509524,37.89125 8.71795238,38.21 8.89195238,38.43875 C9.0742381,38.67875 9.34352381,38.8025 9.70395238,38.8025 Z M9.69566667,38.54375 C9.48852381,38.54375 9.32695238,38.48 9.20266667,38.3525 C9.07838095,38.2325 9.02038095,38.07875 9.02038095,37.89125 C9.02038095,37.70375 9.08252381,37.55375 9.21095238,37.43375 C9.33938095,37.31375 9.50095238,37.25375 9.69566667,37.25375 C9.89866667,37.25375 10.0602381,37.31 10.1845238,37.43 C10.3046667,37.5425 10.3668095,37.6925 10.3668095,37.88375 C10.3668095,38.075 10.3046667,38.2325 10.180381,38.36 C10.0560952,38.48 9.89452381,38.54375 9.69566667,38.54375 Z" id="6" fill="#D4D9E6" fill-rule="nonzero"></path>
                <polygon id="7" fill="#D4D9E6" fill-rule="nonzero" points="9.52788095 43.75 10.6174524 41.32375 10.6174524 41.0725 8.67445238 41.0725 8.67445238 41.35375 10.2694524 41.35375 9.16745238 43.75"></polygon>
                <path d="M9.66666667,48.8025 C10.006381,48.8025 10.2715238,48.7275 10.4620952,48.58125 C10.644381,48.43875 10.7355238,48.2475 10.7355238,48.01125 C10.7355238,47.83875 10.6775238,47.68875 10.5615238,47.56125 C10.4538095,47.44125 10.3212381,47.3625 10.1679524,47.32875 L10.1679524,47.32125 C10.3212381,47.2725 10.4372381,47.19375 10.5200952,47.08875 C10.5946667,46.99125 10.6319524,46.87125 10.6319524,46.72875 C10.6319524,46.53375 10.5490952,46.36875 10.3916667,46.2375 C10.2176667,46.09125 9.9732381,46.02 9.66666667,46.02 C9.35595238,46.02 9.11566667,46.09125 8.94166667,46.2375 C8.78009524,46.36875 8.70138095,46.53375 8.70138095,46.72875 C8.70138095,46.87125 8.73866667,46.99125 8.8132381,47.08875 C8.89195238,47.19375 9.00795238,47.2725 9.16538095,47.32125 L9.16538095,47.32875 C9.00795238,47.3625 8.87952381,47.44125 8.77180952,47.56125 C8.65580952,47.68875 8.59780952,47.83875 8.59780952,48.01125 C8.59780952,48.2475 8.68895238,48.43875 8.8712381,48.58125 C9.05766667,48.7275 9.32280952,48.8025 9.66666667,48.8025 Z M9.66666667,47.22 C9.43466667,47.22 9.26480952,47.1675 9.15709524,47.07 C9.06595238,46.9875 9.02038095,46.875 9.02038095,46.74 C9.02038095,46.60875 9.07009524,46.5 9.17366667,46.4175 C9.28966667,46.32 9.45538095,46.27125 9.66666667,46.27125 C9.87380952,46.27125 10.0395238,46.32 10.1596667,46.4175 C10.2590952,46.5 10.3129524,46.60875 10.3129524,46.74 C10.3129524,46.875 10.267381,46.9875 10.1762381,47.07 C10.064381,47.1675 9.89452381,47.22 9.66666667,47.22 Z M9.66666667,48.55125 C9.42638095,48.55125 9.23995238,48.49875 9.11566667,48.3975 C8.99138095,48.3 8.93338095,48.16875 8.93338095,48.01125 C8.93338095,47.85 8.99138095,47.71875 9.11566667,47.62125 C9.24409524,47.5125 9.42638095,47.46 9.66666667,47.46 C9.90280952,47.46 10.0892381,47.5125 10.2218095,47.62125 C10.3378095,47.71875 10.3999524,47.85 10.3999524,48.01125 C10.3999524,48.16875 10.3378095,48.29625 10.2218095,48.39375 C10.0892381,48.49875 9.90695238,48.55125 9.66666667,48.55125 Z" id="8" fill="#D4D9E6" fill-rule="nonzero"></path>
            </g>
            <rect id="矩形" fill="#00A5A7" x="64" y="61" width="12" height="2" rx="1"></rect>
            <path d="M56,51 L126,51 C126.552285,51 127,51.4477153 127,52 C127,52.5522847 126.552285,53 126,53 L56,53 L56,53 L56,51 Z" id="矩形" fill="#00A5A7" opacity="0.1"></path>
            <rect id="矩形备份-100" fill="#D4D9E6" x="64" y="66" width="21" height="2" rx="1"></rect>
            <path d="M80.5,157 C81.3284271,157 82,157.671573 82,158.5 L81.999,160 L83.5,160 C84.3284271,160 85,160.671573 85,161.5 C85,162.328427 84.3284271,163 83.5,163 L81.999,163 L82,164.5 C82,165.328427 81.3284271,166 80.5,166 C79.6715729,166 79,165.328427 79,164.5 L78.999,163 L77.5,163 C76.6715729,163 76,162.328427 76,161.5 C76,160.671573 76.6715729,160 77.5,160 L78.999,160 L79,158.5 C79,157.671573 79.6715729,157 80.5,157 Z" id="形状结合" fill="#ACBCF0" transform="translate(80.500000, 161.500000) rotate(-360.000000) translate(-80.500000, -161.500000) "></path>
            <circle id="椭圆形" fill="#ACBCF0" cx="42.782172" cy="95.5" r="1.5"></circle>
            <circle id="椭圆形备份" fill="#BBE3E3" cx="207.5" cy="80.5" r="1.5"></circle>
            <circle id="椭圆形" fill-opacity="0.1" fill="#00A5A7" cx="181" cy="51" r="18"></circle>
            <circle id="椭圆形备份-3" fill-opacity="0.1" fill="#00A5A7" cx="55" cy="135" r="18"></circle>
            <path d="M196.071045,31.0788984 C193.196838,29.1351405 189.730982,28 186,28 C176.058875,28 168,36.0588745 168,46 C168,55.9411255 176.058875,64 186,64 C195.941125,64 204,55.9411255 204,46 C204,42.4508045 202.972781,39.1415289 201.199425,36.3532559" id="路径" stroke="#014848" stroke-width="2" fill="#97ABEF" stroke-linecap="round"></path>
            <g id="正数" transform="translate(177.000000, 37.000000)" fill="#FFFFFF" fill-rule="nonzero">
                <path d="M0.555998744,14.4313756 C0.16705402,13.9972048 -0.0228957286,13.4183103 0.0132851759,12.8394158 L0.0132851759,9.39318467 C-0.0228957286,8.80524497 0.185144472,8.23539573 0.574089196,7.79217965 C1.00826005,7.3941897 1.59619975,7.19519472 2.18413945,7.23137563 C2.78112437,7.1861495 3.36001884,7.38514447 3.80323492,7.79217965 C4.19217965,8.2263505 4.39117462,8.80524497 4.34594849,9.39318467 L4.34594849,12.8394158 C4.3821294,13.4183103 4.18313442,13.9972048 3.80323492,14.4313756 C3.36001884,14.8293656 2.78112437,15.0374058 2.18413945,15.0012249 C1.5781093,15.0374058 0.990169598,14.8293656 0.555998744,14.4313756 Z M2.98916457,13.6806219 C3.18815955,13.445446 3.27861181,13.1379083 3.26052136,12.8394158 L3.26052136,9.39318467 C3.27861181,9.08564698 3.18815955,8.7781093 2.98916457,8.54293342 C2.76303392,8.32584799 2.46454146,8.21730528 2.15700377,8.24444095 C1.84946608,8.21730528 1.54192839,8.32584799 1.32484296,8.54293342 C1.13489322,8.78715452 1.03539573,9.08564698 1.05348618,9.39318467 L1.05348618,12.8394158 C1.03539573,13.1469535 1.12584799,13.445446 1.32484296,13.6806219 C1.55097362,13.8977073 1.84946608,14.00625 2.15700377,13.9791143 C2.46454146,14.00625 2.76303392,13.8977073 2.98916457,13.6806219 L2.98916457,13.6806219 Z M5.49469221,13.8524812 L6.56202889,13.8524812 L6.56202889,14.9198178 L5.49469221,14.9198178 L5.49469221,13.8524812 L5.49469221,13.8524812 Z M8.25348618,14.4313756 C7.86454146,13.9972048 7.67459171,13.4183103 7.71077261,12.8394158 L7.71077261,9.39318467 C7.67459171,8.80524497 7.87358668,8.23539573 8.25348618,7.79217965 C8.69670226,7.3941897 9.27559673,7.19519472 9.87258166,7.23137563 C10.4605214,7.1861495 11.0484611,7.38514447 11.4826319,7.79217965 C11.8715766,8.2263505 12.0796168,8.80524497 12.0434359,9.39318467 L12.0434359,12.8394158 C12.0796168,13.4183103 11.8806219,13.9972048 11.4826319,14.4313756 C11.0484611,14.8384108 10.4605214,15.0374058 9.87258166,15.0012249 C9.28464196,15.0374058 8.69670226,14.8293656 8.25348618,14.4313756 Z M10.7137877,13.6806219 C10.9127827,13.445446 11.0032349,13.1379083 10.9851445,12.8394158 L10.9851445,9.39318467 C11.0032349,9.08564698 10.9127827,8.7781093 10.7137877,8.54293342 C10.487657,8.32584799 10.1891646,8.21730528 9.88162688,8.24444095 C9.5740892,8.21730528 9.26655151,8.32584799 9.04946608,8.54293342 C8.85951633,8.78715452 8.76001884,9.08564698 8.7781093,9.39318467 L8.7781093,12.8394158 C8.76001884,13.1469535 8.85047111,13.445446 9.04946608,13.6806219 C9.27559673,13.8977073 9.5740892,14.00625 9.88162688,13.9791143 C10.1801193,14.00625 10.487657,13.8977073 10.7137877,13.6806219 Z M14.1600188,14.4313756 C13.7710741,13.9972048 13.5720791,13.4273555 13.5992148,12.8394158 L13.5992148,9.39318467 C13.5630339,8.80524497 13.7710741,8.23539573 14.1600188,7.79217965 C14.6032349,7.3941897 15.1821294,7.1861495 15.7791143,7.23137563 C16.367054,7.1861495 16.9549937,7.38514447 17.3891646,7.79217965 C17.7781093,8.2263505 17.9861495,8.80524497 17.9499686,9.39318467 L17.9499686,12.8394158 C17.9861495,13.4183103 17.7871545,13.9972048 17.3891646,14.4313756 C16.9549937,14.8384108 16.367054,15.0374058 15.7791143,15.0012249 C15.1821294,15.0374058 14.5941897,14.8293656 14.1600188,14.4313756 Z M16.6022299,13.6806219 C16.8012249,13.445446 16.8916771,13.1379083 16.8735867,12.8394158 L16.8735867,9.39318467 C16.9007224,9.08564698 16.8102701,8.7781093 16.6112751,8.54293342 C16.3851445,8.32584799 16.086652,8.21730528 15.7791143,8.24444095 C15.4715766,8.21730528 15.1549937,8.32584799 14.9379083,8.54293342 C14.7479585,8.78715452 14.6575063,9.09469221 14.6755967,9.39318467 L14.6755967,12.8394158 C14.6484611,13.1379083 14.7298681,13.445446 14.9107726,13.6806219 C15.1369033,13.8977073 15.4353957,14.00625 15.7429334,13.9791143 C16.0595163,14.0152952 16.3760992,13.9067525 16.6022299,13.6806219 L16.6022299,13.6806219 Z" id="形状"></path>
                <path d="M17.3891646,3.97509422 L11.9077575,3.97509422 C11.5640389,3.97509422 11.2926822,3.70373744 11.2926822,3.36001884 C11.2926822,3.02534548 11.5640389,2.75398869 11.8987123,2.75398869 L17.3891646,2.75398869 C17.7238379,2.75398869 17.9951947,3.02534548 17.9951947,3.36001884 C18.0042399,3.69469221 17.7328832,3.96604899 17.3982098,3.97509422 L17.3891646,3.97509422 Z" id="路径"></path>
                <path d="M15.2544912,0.619315327 L15.2544912,6.10072236 C15.2544912,6.44444095 14.9831344,6.71579774 14.6394158,6.71579774 C14.3047425,6.71579774 14.0333857,6.44444095 14.0333857,6.10976759 L14.0333857,0.619315327 C14.0333857,0.28464196 14.3047425,0.0132851759 14.6394158,0.0132851759 C14.9740892,0.00423994975 15.245446,0.275596734 15.2544912,0.610270101 L15.2544912,0.619315327 Z" id="路径"></path>
            </g>
            <path d="M72.5637829,141.9082 C73.0480419,141.29499 73.4883661,140.64548 73.8800055,139.964421 C75.2286726,137.619092 76,134.899623 76,132 C76,123.163444 68.836556,116 60,116 C54.8379246,116 50.2468118,118.444581 47.3211786,122.239227 C45.2386475,124.94034 44,128.325519 44,132 C44,132.792904 44.0576762,133.572337 44.1690622,134.334332 C44.686342,137.873063 46.3619808,141.035718 48.7986984,143.425016 C51.6848124,146.254966 55.6386189,148 60,148 C62.3396615,148 64.562032,147.497817 66.5652032,146.59536" id="路径" stroke="#014848" stroke-width="2" fill="#A2E5E6" stroke-linecap="round"></path>
            <g id="正数备份" transform="translate(51.000000, 125.000000)" fill="#FFFFFF" fill-rule="nonzero">
                <path d="M0.555998744,12.4313756 C0.16705402,11.9972048 -0.0228957286,11.4183103 0.0132851759,10.8394158 L0.0132851759,7.39318467 C-0.0228957286,6.80524497 0.185144472,6.23539573 0.574089196,5.79217965 C1.00826005,5.3941897 1.59619975,5.19519472 2.18413945,5.23137563 C2.78112437,5.1861495 3.36001884,5.38514447 3.80323492,5.79217965 C4.19217965,6.2263505 4.39117462,6.80524497 4.34594849,7.39318467 L4.34594849,10.8394158 C4.3821294,11.4183103 4.18313442,11.9972048 3.80323492,12.4313756 C3.36001884,12.8293656 2.78112437,13.0374058 2.18413945,13.0012249 C1.5781093,13.0374058 0.990169598,12.8293656 0.555998744,12.4313756 Z M2.98916457,11.6806219 C3.18815955,11.445446 3.27861181,11.1379083 3.26052136,10.8394158 L3.26052136,7.39318467 C3.27861181,7.08564698 3.18815955,6.7781093 2.98916457,6.54293342 C2.76303392,6.32584799 2.46454146,6.21730528 2.15700377,6.24444095 C1.84946608,6.21730528 1.54192839,6.32584799 1.32484296,6.54293342 C1.13489322,6.78715452 1.03539573,7.08564698 1.05348618,7.39318467 L1.05348618,10.8394158 C1.03539573,11.1469535 1.12584799,11.445446 1.32484296,11.6806219 C1.55097362,11.8977073 1.84946608,12.00625 2.15700377,11.9791143 C2.46454146,12.00625 2.76303392,11.8977073 2.98916457,11.6806219 L2.98916457,11.6806219 Z M5.49469221,11.8524812 L6.56202889,11.8524812 L6.56202889,12.9198178 L5.49469221,12.9198178 L5.49469221,11.8524812 L5.49469221,11.8524812 Z M8.25348618,12.4313756 C7.86454146,11.9972048 7.67459171,11.4183103 7.71077261,10.8394158 L7.71077261,7.39318467 C7.67459171,6.80524497 7.87358668,6.23539573 8.25348618,5.79217965 C8.69670226,5.3941897 9.27559673,5.19519472 9.87258166,5.23137563 C10.4605214,5.1861495 11.0484611,5.38514447 11.4826319,5.79217965 C11.8715766,6.2263505 12.0796168,6.80524497 12.0434359,7.39318467 L12.0434359,10.8394158 C12.0796168,11.4183103 11.8806219,11.9972048 11.4826319,12.4313756 C11.0484611,12.8384108 10.4605214,13.0374058 9.87258166,13.0012249 C9.28464196,13.0374058 8.69670226,12.8293656 8.25348618,12.4313756 Z M10.7137877,11.6806219 C10.9127827,11.445446 11.0032349,11.1379083 10.9851445,10.8394158 L10.9851445,7.39318467 C11.0032349,7.08564698 10.9127827,6.7781093 10.7137877,6.54293342 C10.487657,6.32584799 10.1891646,6.21730528 9.88162688,6.24444095 C9.5740892,6.21730528 9.26655151,6.32584799 9.04946608,6.54293342 C8.85951633,6.78715452 8.76001884,7.08564698 8.7781093,7.39318467 L8.7781093,10.8394158 C8.76001884,11.1469535 8.85047111,11.445446 9.04946608,11.6806219 C9.27559673,11.8977073 9.5740892,12.00625 9.88162688,11.9791143 C10.1801193,12.00625 10.487657,11.8977073 10.7137877,11.6806219 Z M14.1600188,12.4313756 C13.7710741,11.9972048 13.5720791,11.4273555 13.5992148,10.8394158 L13.5992148,7.39318467 C13.5630339,6.80524497 13.7710741,6.23539573 14.1600188,5.79217965 C14.6032349,5.3941897 15.1821294,5.1861495 15.7791143,5.23137563 C16.367054,5.1861495 16.9549937,5.38514447 17.3891646,5.79217965 C17.7781093,6.2263505 17.9861495,6.80524497 17.9499686,7.39318467 L17.9499686,10.8394158 C17.9861495,11.4183103 17.7871545,11.9972048 17.3891646,12.4313756 C16.9549937,12.8384108 16.367054,13.0374058 15.7791143,13.0012249 C15.1821294,13.0374058 14.5941897,12.8293656 14.1600188,12.4313756 Z M16.6022299,11.6806219 C16.8012249,11.445446 16.8916771,11.1379083 16.8735867,10.8394158 L16.8735867,7.39318467 C16.9007224,7.08564698 16.8102701,6.7781093 16.6112751,6.54293342 C16.3851445,6.32584799 16.086652,6.21730528 15.7791143,6.24444095 C15.4715766,6.21730528 15.1549937,6.32584799 14.9379083,6.54293342 C14.7479585,6.78715452 14.6575063,7.09469221 14.6755967,7.39318467 L14.6755967,10.8394158 C14.6484611,11.1379083 14.7298681,11.445446 14.9107726,11.6806219 C15.1369033,11.8977073 15.4353957,12.00625 15.7429334,11.9791143 C16.0595163,12.0152952 16.3760992,11.9067525 16.6022299,11.6806219 L16.6022299,11.6806219 Z" id="形状"></path>
                <path d="M17.3891646,1.97509422 L11.9077575,1.97509422 C11.5640389,1.97509422 11.2926822,1.70373744 11.2926822,1.36001884 C11.2926822,1.02534548 11.5640389,0.753988693 11.8987123,0.753988693 L17.3891646,0.753988693 C17.7238379,0.753988693 17.9951947,1.02534548 17.9951947,1.36001884 C18.0042399,1.69469221 17.7328832,1.96604899 17.3982098,1.97509422 L17.3891646,1.97509422 Z" id="路径"></path>
            </g>
        </g>
    </g>
</svg>