<svg xmlns="http://www.w3.org/2000/svg" viewBox="0 0 18.09 12"><defs><style>.cls-1{fill:gray;}</style></defs><g id="图层_2" data-name="图层 2"><g id="图层_1-2" data-name="图层 1"><path class="cls-1" d="M7,2.08a2.08,2.08,0,0,0,1.7,2.05V7.87a2,2,0,0,0-1.32.85L4.11,6.92a2,2,0,0,0,.06-.49,2.1,2.1,0,1,0-.33,1.12L7,9.34A2.24,2.24,0,0,0,7,9.91,2.09,2.09,0,1,0,9.34,7.85V4.14a2.1,2.1,0,0,0,1.27-.68l3.56,2.81L14.38,6a2.06,2.06,0,0,0-.46,1.3A2.08,2.08,0,1,0,14.4,6l.19-.24L11,2.87a2.14,2.14,0,0,0,.16-.79A2.09,2.09,0,0,0,7,2.08ZM2.08,7.83a1.4,1.4,0,1,1,1.4-1.4,1.23,1.23,0,0,1-.09.47l-.17.31h0A1.4,1.4,0,0,1,2.08,7.83Zm8.36,2.08a1.4,1.4,0,1,1-2.79,0,1.4,1.4,0,0,1,2.79,0Zm5.56-4A1.4,1.4,0,1,1,14.61,7.3,1.4,1.4,0,0,1,16,5.91ZM10.44,2.08a1.4,1.4,0,1,1-2.79,0,1.4,1.4,0,0,1,2.79,0Z"/></g></g></svg>