<svg xmlns="http://www.w3.org/2000/svg" viewBox="0 0 27.36 18"><defs><style>.cls-1{fill:#00a5a7;}</style></defs><title>资源 2packing</title><g id="图层_2" data-name="图层 2"><g id="图层_1-2" data-name="图层 1"><path class="cls-1" d="M21.6,7.92h2.16A2.37,2.37,0,0,0,25.92,5.4a2.37,2.37,0,0,0-2.16-2.52H20.18V1.44h3.58a3.79,3.79,0,0,1,3.6,4,3.79,3.79,0,0,1-3.6,4H21.6v.76L19.8,8.67l1.8-1.46v.71ZM10.44,0h6.48a2.52,2.52,0,0,1,0,5H10.44a2.52,2.52,0,1,1,0-5Zm0,1.44a1.08,1.08,0,1,0,0,2.16h6.48a1.08,1.08,0,0,0,0-2.16ZM5.76,15.12v-.71l1.8,1.46-1.8,1.45v-.76H3.6a3.79,3.79,0,0,1-3.6-4,3.79,3.79,0,0,1,3.6-4H7.2v1.44H3.6A2.37,2.37,0,0,0,1.44,12.6,2.37,2.37,0,0,0,3.6,15.12Zm4.68-8.64h6.48a2.52,2.52,0,0,1,0,5H10.44a2.52,2.52,0,1,1,0-5Zm0,1.44a1.08,1.08,0,1,0,0,2.16h6.48a1.08,1.08,0,0,0,0-2.16Zm0,5h6.48a2.52,2.52,0,0,1,0,5H10.44a2.52,2.52,0,0,1,0-5Zm0,1.44a1.08,1.08,0,0,0,0,2.16h6.48a1.08,1.08,0,0,0,0-2.16Z"/></g></g></svg>