<?xml version="1.0" encoding="utf-8"?>
<!-- Generator: Adobe Illustrator 21.0.2, SVG Export Plug-In . SVG Version: 6.00 Build 0)  -->
<svg version="1.1" id="图层_1" xmlns="http://www.w3.org/2000/svg" xmlns:xlink="http://www.w3.org/1999/xlink" x="0px" y="0px" viewBox="0 0 301 95" style="enable-background:new 0 0 301 95;" xml:space="preserve">
    <style type="text/css">
    .st0{opacity:0.8;fill:#28292B;}
    .st1{opacity:0.1;fill:#DDE6FF;}
    .st2{fill:none;stroke:#2556C1;stroke-width:2;}
    .st3{fill:none;stroke:#7487B7;stroke-width:2;stroke-miterlimit:10;}
    .st4{fill:none;stroke:#6882DA;stroke-width:2;stroke-dasharray:2,2;}
    .st5{fill:#A6B6EA;}
    .st6{fill:#B5B8BA;}
    .st7{fill:#7487B7;}
    .st8{fill:none;stroke:#6882DA;stroke-width:2;}
    .st9{fill:#6882DA;}
    .st10{fill:none;}
</style>
    <title>编组 10</title>
    <desc>Created with Sketch.</desc>
    <g id="页面-1">
        <g id="编组-10">
            <g id="编组-9" transform="translate(3.000000, 3.000000)">
                <g id="编组-8">
                    <g>
                        <g id="编组-5_8_">
                            <g id="矩形_15_">
                                <path class="st0" d="M5,0h285c2.8,0,5,2.2,5,5v79c0,2.8-2.2,5-5,5H5c-2.8,0-5-2.2-5-5V5C0,2.2,2.2,0,5,0z" />
                            </g>
                        </g>
                    </g>
                </g>
                <polygon id="矩形_1_" class="st1" points="14,10 282,10 282,63 14,63" />
                <polygon id="路径-3" class="st2" points="56.5,35.5 107.5,21.5 149.7,36.5 108.5,51.5" />
                <polyline id="路径-4" class="st3" points="106.1,35.5 146,21.5 192.3,21.5 239.5,35.5 150,51.5" />
                <line id="路径-6" class="st4" x1="106.1" y1="35.5" x2="108.5" y2="51.5" />
                <path id="路径-5" class="st4" d="M146,21.5l48,13L149.7,37l0.3,14.5" />
                <path id="矩形_2_" class="st5" d="M19.5,14h19.8c0.8,0,1.5,0.7,1.5,1.5l0,0c0,0.8-0.7,1.5-1.5,1.5H19.5c-0.8,0-1.5-0.7-1.5-1.5
                l0,0C18,14.7,18.7,14,19.5,14z" />
                <path id="矩形-copy-16" class="st6" d="M144.5,49h10.3c0.8,0,1.5,0.7,1.5,1.5v2c0,0.8-0.7,1.5-1.5,1.5h-10.3
                c-0.8,0-1.5-0.7-1.5-1.5v-2C143,49.7,143.7,49,144.5,49z" />
                <path id="矩形-copy-17" class="st6" d="M184.3,19h16c0.8,0,1.5,0.7,1.5,1.5v2c0,0.8-0.7,1.5-1.5,1.5h-16
                c-0.8,0-1.5-0.7-1.5-1.5v-2C182.8,19.7,183.5,19,184.3,19z" />
                <path id="矩形-copy-17备份" class="st6" d="M231.5,33h16c0.8,0,1.5,0.7,1.5,1.5v2c0,0.8-0.7,1.5-1.5,1.5h-16
                c-0.8,0-1.5-0.7-1.5-1.5v-2C230,33.7,230.7,33,231.5,33z" />
                <path id="矩形-copy-17备份-2" class="st6" d="M48.5,33h16c0.8,0,1.5,0.7,1.5,1.5v2c0,0.8-0.7,1.5-1.5,1.5h-16
                c-0.8,0-1.5-0.7-1.5-1.5v-2C47,33.7,47.7,33,48.5,33z" />
                <ellipse id="椭圆形" class="st6" cx="107.5" cy="21.5" rx="11.5" ry="2.5" />
                <ellipse id="椭圆形_1_" class="st6" cx="146" cy="21.5" rx="7" ry="2.5" />
                <ellipse id="椭圆形备份-2" class="st6" cx="150" cy="36.5" rx="5" ry="2.5" />
                <ellipse id="椭圆形备份-3" class="st6" cx="194" cy="34.5" rx="7" ry="2.5" />
                <ellipse id="椭圆形备份-4" class="st6" cx="108.5" cy="51.5" rx="8.5" ry="2.5" />
                <path id="矩形_3_" class="st6" d="M100.5,33h11.3c0.8,0,1.5,0.7,1.5,1.5v2c0,0.8-0.7,1.5-1.5,1.5h-11.3c-0.8,0-1.5-0.7-1.5-1.5
                v-2C99,33.7,99.7,33,100.5,33z" />
                <path id="矩形_4_" class="st7" d="M140,70h16c1.1,0,2,0.9,2,2v4c0,1.1-0.9,2-2,2h-16c-1.1,0-2-0.9-2-2v-4
                C138,70.9,138.9,70,140,70z" />
                <line id="路径-10" class="st8" x1="147.7" y1="63" x2="147.7" y2="68.5" />
                <polygon id="矩形_5_" class="st9" points="145,67 150,67 147.5,70" />
            </g>
            <rect id="矩形_6_" class="st10" width="301" height="95" />
        </g>
    </g>
</svg>
