<?xml version="1.0" encoding="utf-8"?>
<!-- Generator: Adobe Illustrator 21.0.2, SVG Export Plug-In . SVG Version: 6.00 Build 0)  -->
<svg version="1.1" id="图层_1" xmlns="http://www.w3.org/2000/svg" xmlns:xlink="http://www.w3.org/1999/xlink" x="0px" y="0px" viewBox="0 0 296 91" style="enable-background:new 0 0 296 91;" xml:space="preserve">
    <style type="text/css">
    .st0{fill:#141414;}
    .st1{opacity:0.4;fill:#28292B;fill-opacity:0.8;enable-background:new    ;}
    .st2{opacity:0.1;}
    .st3{fill:#DDE6FF;}
    .st4{filter:url(#Adobe_OpacityMaskFilter);}
    .st5{fill:#FFFFFF;}
    .st6{mask:url(#mask-2_1_);}
    .st7{opacity:0.5;fill:none;stroke:#9EB2DD;}
    .st8{fill:#7487B7;}
    .st9{fill:#586278;}
    .st10{fill:#2556C1;}
    .st11{opacity:0.5;fill:#9EB2DD;}
    .st12{fill:#6882DA;}
    .st13{opacity:0.2;fill:#3F3F3F;enable-background:new    ;}
</style>
    <title>编组 24</title>
    <desc>Created with Sketch.</desc>
    <g>
        <path class="st0" d="M296,91H0V2c0-1.1,0.9-2,2-2h292.1c1.1,0,1.9,0.9,1.9,1.9V91z" />
        <g id="引导页_1_">
            <g id="编组-24_1_">
                <g id="编组-20_1_">
                    <g id="编组-12_1_">
                        <path id="矩形_14_" class="st1" d="M2,0h292.1c1.1,0,1.9,0.9,1.9,1.9V91H0V2C0,0.9,0.9,0,2,0z" />
                        <g id="编组-15_1_" transform="translate(17.000000, 16.000000)">
                            <g id="编组-9_1_">
                                <g id="矩形_13_" class="st2">
                                    <g id="蒙版_1_">
                                        <path id="path-1_3_" class="st3" d="M2,0h260.1c1.1,0,2,0.9,2,2v65c0,1.1-0.9,2-2,2H2c-1.1,0-2-0.9-2-2V2C0,0.9,0.9,0,2,0z
                                        " />
                                    </g>
                                    <defs>
                                        <filter id="Adobe_OpacityMaskFilter" filterUnits="userSpaceOnUse">
                                            <feColorMatrix type="matrix" values="1 0 0 0 0  0 1 0 0 0  0 0 1 0 0  0 0 0 1 0" />
                                        </filter>
                                    </defs>
                                    <mask maskUnits="userSpaceOnUse" id="mask-2_1_">
                                        <g class="st4">
                                            <path id="path-1_2_" class="st5" d="M2,0h260.1c1.1,0,2,0.9,2,2v65c0,1.1-0.9,2-2,2H2c-1.1,0-2-0.9-2-2V2C0,0.9,0.9,0,2,0
                                            z" />
                                        </g>
                                    </mask>
                                    <g id="编组-17_1_" class="st6">
                                        <g transform="translate(10.329219, 9.000000)"></g>
                                    </g>
                                </g>
                                <g id="编组-8_1_" transform="translate(10.329219, 8.000000)">
                                    <g id="编组-11_3_">
                                        <path id="矩形_12_" class="st0" d="M1,0h132.3c0.6,0,1,0.4,1,1v55c0,0.6-0.4,1-1,1H1c-0.6,0-1-0.4-1-1V1C0,0.4,0.4,0,1,0
                                        z" />
                                        <g id="编组-2_1_" transform="translate(29.512055, 7.000000)">
                                            <path id="路径-3_1_" class="st7" d="M35.4,15c18.2-1.5,29-4.2,32.5-8" />
                                            <path id="路径-5_1_" class="st7" d="M35.4,15c3.1,3.9,8,6.9,14.8,9" />
                                            <path id="路径-7_1_" class="st7" d="M35.4,15c-6.7,6-11.6,9-14.8,9" />
                                            <path id="路径-6_1_" class="st7" d="M50.2,24c14.3,1,22.6,1.3,25.1,0.8" />
                                            <path id="路径-4_1_" class="st7" d="M35.4,15c-18.2-1.2-28.5-2.8-31-5" />
                                            <path id="路径-8_1_" class="st7" d="M4.4,10c11.6-6,18.5-8.6,20.7-7.9" />
                                            <ellipse id="椭圆形_1_" class="st8" cx="36.2" cy="14.5" rx="6.6" ry="2.5" />
                                            <ellipse id="椭圆形备份_1_" class="st8" cx="70.1" cy="5" rx="5.2" ry="2" />
                                            <ellipse id="椭圆形备份-6_1_" class="st8" cx="25.8" cy="2" rx="5.2" ry="2" />
                                            <ellipse id="椭圆形备份-3_1_" class="st8" cx="50.9" cy="24" rx="5.2" ry="2" />
                                            <ellipse id="椭圆形备份-5_1_" class="st8" cx="19.9" cy="24" rx="5.2" ry="2" />
                                            <ellipse id="椭圆形备份-4_1_" class="st8" cx="75.3" cy="25" rx="3" ry="1" />
                                            <ellipse id="椭圆形备份-2_1_" class="st8" cx="5.2" cy="10" rx="5.2" ry="2" />
                                            <line id="路径-9_1_" class="st7" x1="35.4" y1="34" x2="35.4" y2="38" />
                                            <polygon id="矩形_11_" class="st9" points="31,36 39.8,36 35.4,39" />
                                        </g>
                                        <g id="编组-7_3_" transform="translate(7.378014, 31.000000)">
                                            <g id="编组-10_3_" transform="translate(28.123253, 4.235294)"></g>
                                            <g id="主机-_x28_2_x29__3_"></g>
                                        </g>
                                    </g>
                                </g>
                                <g id="编组-11_2_" transform="translate(78.206946, 39.000000)">
                                    <g id="编组-7_2_">
                                        <g id="编组-10_2_" transform="translate(26.647650, 4.294118)"></g>
                                        <g id="主机-_x28_2_x29__2_"></g>
                                    </g>
                                </g>
                            </g>
                        </g>
                        <path id="矩形备份-29复制备份_1_" class="st10" d="M27.5,20h11c0.3,0,0.5,0.2,0.5,0.5S38.8,21,38.5,21h-11
                        c-0.3,0-0.5-0.2-0.5-0.5S27.2,20,27.5,20z" />
                        <path id="矩形备份_1_" class="st11" d="M104.5,41h8c0.3,0,0.5,0.2,0.5,0.5l0,0c0,0.3-0.2,0.5-0.5,0.5h-8
                        c-0.3,0-0.5-0.2-0.5-0.5l0,0C104,41.2,104.2,41,104.5,41z" />
                        <path id="矩形备份-3_1_" class="st11" d="M86.5,53h8c0.3,0,0.5,0.2,0.5,0.5l0,0c0,0.3-0.2,0.5-0.5,0.5h-8
                        c-0.3,0-0.5-0.2-0.5-0.5l0,0C86,53.2,86.2,53,86.5,53z" />
                        <path id="矩形备份-5_1_" class="st11" d="M101.5,51h8c0.3,0,0.5,0.2,0.5,0.5l0,0c0,0.3-0.2,0.5-0.5,0.5h-8
                        c-0.3,0-0.5-0.2-0.5-0.5l0,0C101,51.2,101.2,51,101.5,51z" />
                        <path id="矩形备份-2_1_" class="st11" d="M72.5,41h9c0.3,0,0.5,0.2,0.5,0.5l0,0c0,0.3-0.2,0.5-0.5,0.5h-9
                        c-0.3,0-0.5-0.2-0.5-0.5l0,0C72,41.2,72.2,41,72.5,41z" />
                        <polygon id="Path_5_" class="st12" points="240.7,45.5 236.6,47.9 236,49 244,45.5 236,42 236.6,43.1" />
                        <path id="Path_4_" class="st5" d="M196.6,44c-2,0-3.6,0.9-3.6,2h1c0-0.8,1.1-1.5,2.6-1.5c1.1,0,2.2,0.4,2.5,1.1h-0.9V46h1.9
                        l0.9-0.9l-0.6-0.2l-0.5,0.5C199.5,44.6,198.1,44,196.6,44z" />
                        <path id="Path_3_" class="st5" d="M196.4,48.5c-1.1,0-2.2-0.4-2.5-1.1h0.9V47h-1.9l-0.9,0.9l0.6,0.2l0.5-0.5
                        c0.5,0.8,1.8,1.4,3.4,1.4c2,0,3.6-0.9,3.6-2h-1C199,47.8,197.9,48.5,196.4,48.5z" />
                        <path id="矩形_10_" class="st13" d="M2,0h292c1.1,0,2,0.9,2,2v8l0,0H0V2C0,0.9,0.9,0,2,0z" />
                    </g>
                </g>
                <path id="矩形_9_" class="st10" d="M87,70h13c1.1,0,2,0.9,2,2v3c0,1.1-0.9,2-2,2H87c-1.1,0-2-0.9-2-2v-3C85,70.9,85.9,70,87,70
                z" />
                <g id="编组-19_1_" transform="translate(190.000000, 33.000000)">
                    <g id="编组-18_1_" transform="translate(20.959493, 5.151786)"></g>
                    <g id="编组-16_1_" transform="translate(0.429624, 6.276786)"></g>
                    <g id="地球-_x28_2_x29__1_" transform="translate(56.219313, 0.964286)"></g>
                </g>
                <g id="编组-23_1_" transform="translate(180.000000, 24.000000)">
                    <path id="矩形备份-12_1_" class="st0" d="M1,0h87.6c0.6,0,1,0.4,1,1v25c0,0.6-0.4,1-1,1H1c-0.6,0-1-0.4-1-1V1
                    C0,0.4,0.4,0,1,0z" />
                    <rect id="矩形备份-4_1_" x="4.9" y="3.5" class="st7" width="80.3" height="20" />
                    <g id="编组-22_1_" transform="translate(0.000000, 29.000000)">
                        <path id="矩形备份-28_1_" class="st0" d="M1,0h87.6c0.6,0,1,0.4,1,1v26c0,0.6-0.4,1-1,1H1c-0.6,0-1-0.4-1-1V1
                        C0,0.4,0.4,0,1,0z" />
                        <path id="矩形备份-29_1_" class="st11" d="M5.1,10h68.5c0.3,0,0.5,0.2,0.5,0.5l0,0c0,0.3-0.2,0.5-0.5,0.5H5.1
                        c-0.3,0-0.5-0.2-0.5-0.5l0,0C4.6,10.2,4.9,10,5.1,10z" />
                        <path id="矩形备份-32_1_" class="st11" d="M5.1,23h68.5c0.3,0,0.5,0.2,0.5,0.5l0,0c0,0.3-0.2,0.5-0.5,0.5H5.1
                        c-0.3,0-0.5-0.2-0.5-0.5l0,0C4.6,23.2,4.9,23,5.1,23z" />
                        <path id="矩形备份-33_1_" class="st11" d="M5.1,7h42.5c0.3,0,0.5,0.2,0.5,0.5l0,0C48.2,7.8,48,8,47.7,8H5.1
                        C4.9,8,4.6,7.8,4.6,7.5l0,0C4.6,7.2,4.9,7,5.1,7z" />
                        <path id="矩形备份-34_1_" class="st11" d="M5.1,20h32.4c0.3,0,0.5,0.2,0.5,0.5l0,0c0,0.3-0.2,0.5-0.5,0.5H5.1
                        c-0.3,0-0.5-0.2-0.5-0.5l0,0C4.6,20.2,4.9,20,5.1,20z" />
                        <path id="矩形备份-30_1_" class="st10" d="M4.9,3H14c0.3,0,0.5,0.2,0.5,0.5l0,0C14.5,3.8,14.3,4,14,4H4.9
                        C4.6,4,4.4,3.8,4.4,3.5l0,0C4.4,3.2,4.6,3,4.9,3z" />
                        <path id="矩形备份-31_1_" class="st10" d="M4.9,16H14c0.3,0,0.5,0.2,0.5,0.5l0,0c0,0.3-0.2,0.5-0.5,0.5H4.9
                        c-0.3,0-0.5-0.2-0.5-0.5l0,0C4.4,16.2,4.6,16,4.9,16z" />
                    </g>
                </g>
                <rect id="矩形_7_" x="37.5" y="28.5" class="st7" width="116" height="36" />
            </g>
        </g>
    </g>
</svg>
