<?xml version="1.0" encoding="utf-8"?>
<!-- Generator: Adobe Illustrator 21.0.2, SVG Export Plug-In . SVG Version: 6.00 Build 0)  -->
<svg version="1.1" id="图层_1" xmlns="http://www.w3.org/2000/svg" xmlns:xlink="http://www.w3.org/1999/xlink" x="0px" y="0px" viewBox="0 0 301 95" style="enable-background:new 0 0 301 95;" xml:space="preserve">
    <style type="text/css">
    .st0{enable-background:new    ;}
    .st1{opacity:0.8;fill:#141414;}
    .st2{opacity:0.4;enable-background:new    ;}
    .st3{opacity:0.8;fill:#28292B;}
    .st4{opacity:0.1;fill:#DDE6FF;}
    .st5{opacity:0.4;fill:none;stroke:#FFFFFF;enable-background:new    ;}
    .st6{fill:#2556C1;}
    .st7{fill:#7487B7;}
    .st8{fill:#B5B8BA;}
    .st9{fill:#2556C1;stroke:#FFFFFF;stroke-width:0.4;}
    .st10{fill:#FFFFFF;stroke:#2556C1;}
    .st11{fill:none;}
</style>
    <title>编组 10</title>
    <desc>Created with Sketch.</desc>
    <g>
        <g id="编组-8_3_" class="st0">
            <g>
                <g id="编组-5_11_">
                    <g id="矩形_12_">
                        <path class="st1" d="M8,3h285c2.8,0,5,2.2,5,5v79c0,2.8-2.2,5-5,5H8c-2.8,0-5-2.2-5-5V8C3,5.2,5.2,3,8,3z" />
                    </g>
                </g>
            </g>
        </g>
        <g id="编组-10_1_">
            <g id="编组-9_2_" transform="translate(3.000000, 3.000000)">
                <g id="编组-8_2_" class="st2">
                    <g>
                        <g id="编组-5_10_">
                            <g id="矩形_11_">
                                <path class="st3" d="M5,0h285c2.8,0,5,2.2,5,5v79c0,2.8-2.2,5-5,5H5c-2.8,0-5-2.2-5-5V5C0,2.2,2.2,0,5,0z" />
                            </g>
                        </g>
                    </g>
                </g>
                <polygon id="矩形_20_" class="st4" points="14,10 282,10 282,63 14,63" />
                <polygon id="路径-3_2_" class="st5" points="56.5,35.5 107.5,21.5 149.7,36.5 108.5,51.5" />
                <polyline id="路径-4_2_" class="st5" points="106.1,35.5 146,21.5 192.3,21.5 239.5,35.5 150,51.5" />
                <line id="路径-6_2_" class="st5" x1="106.1" y1="35.5" x2="108.5" y2="51.5" />
                <polyline id="路径-5_2_" class="st5" points="146,21.5 194,34.5 149.7,37 150,51.5" />
                <path id="矩形_19_" class="st6" d="M19.5,14h19.8c0.8,0,1.5,0.7,1.5,1.5l0,0c0,0.8-0.7,1.5-1.5,1.5H19.5
                c-0.8,0-1.5-0.7-1.5-1.5l0,0C18,14.7,18.7,14,19.5,14z" />
                <path id="矩形-copy-16_1_" class="st7" d="M144.5,49h10.3c0.8,0,1.5,0.7,1.5,1.5v2c0,0.8-0.7,1.5-1.5,1.5h-10.3
                c-0.8,0-1.5-0.7-1.5-1.5v-2C143,49.7,143.7,49,144.5,49z" />
                <path id="矩形-copy-17_1_" class="st7" d="M184.3,19h16c0.8,0,1.5,0.7,1.5,1.5v2c0,0.8-0.7,1.5-1.5,1.5h-16
                c-0.8,0-1.5-0.7-1.5-1.5v-2C182.8,19.7,183.5,19,184.3,19z" />
                <path id="矩形-copy-17备份_1_" class="st7" d="M231.5,33h16c0.8,0,1.5,0.7,1.5,1.5v2c0,0.8-0.7,1.5-1.5,1.5h-16
                c-0.8,0-1.5-0.7-1.5-1.5v-2C230,33.7,230.7,33,231.5,33z" />
                <path id="矩形-copy-17备份-2_1_" class="st7" d="M48.5,33h16c0.8,0,1.5,0.7,1.5,1.5v2c0,0.8-0.7,1.5-1.5,1.5h-16
                c-0.8,0-1.5-0.7-1.5-1.5v-2C47,33.7,47.7,33,48.5,33z" />
                <ellipse id="椭圆形_6_" class="st8" cx="107.5" cy="21.5" rx="11.5" ry="2.5" />
                <ellipse id="椭圆形_5_" class="st8" cx="146" cy="21.5" rx="7" ry="2.5" />
                <ellipse id="椭圆形备份-2_2_" class="st8" cx="150" cy="36.5" rx="5" ry="2.5" />
                <ellipse id="椭圆形备份-3_2_" class="st8" cx="194" cy="34.5" rx="7" ry="2.5" />
                <ellipse id="椭圆形备份-4_2_" class="st8" cx="108.5" cy="51.5" rx="8.5" ry="2.5" />
                <path id="矩形_18_" class="st7" d="M100.5,33h11.3c0.8,0,1.5,0.7,1.5,1.5v2c0,0.8-0.7,1.5-1.5,1.5h-11.3
                c-0.8,0-1.5-0.7-1.5-1.5v-2C99,33.7,99.7,33,100.5,33z" />
                <path id="矩形_15_" class="st6" d="M140,70h16c1.1,0,2,0.9,2,2v4c0,1.1-0.9,2-2,2h-16c-1.1,0-2-0.9-2-2v-4
                C138,70.9,138.9,70,140,70z" />
                <path id="路径_1_" class="st9" d="M150.6,86.7c0,0,0,0,0-1.5c0.6-0.9,0.9-2.2,0.9-2.2v-1.8l0-1.7c0-0.2-0.1-0.4-0.2-0.5
                c-0.2-0.2-0.4-0.2-0.7-0.2c-0.2,0.1-0.4,0.3-0.5,0.5l-0.1,0l0-0.2c0-0.2-0.1-0.4-0.2-0.5c-0.1-0.1-0.3-0.2-0.5-0.2
                c-0.2,0-0.4,0.1-0.5,0.2c-0.1,0.1-0.2,0.3-0.2,0.5l0,0l0-0.1c0-0.2-0.1-0.4-0.2-0.5c-0.1-0.1-0.3-0.2-0.5-0.2s-0.4,0.1-0.5,0.2
                c-0.1,0.1-0.2,0.3-0.2,0.5c0-0.8,0.1-2.7,0.1-2.9c0-0.2,0-0.8-0.6-0.8c-0.6-0.1-0.8,0.5-0.8,0.5l-0.2,5.9l-0.1,0
                c0,0-0.3-0.6-1-1.3s-1.2-0.6-1.7-0.3c-0.5,0.3,0,0.7,0,0.7c0.2,0.1,1.4,1.1,1.6,2.2c-0.1,1.3,1.6,2.4,1.6,2.4l0,1
                c0,0.9,0.9,0.8,0.9,0.8l3,0.1C150.6,87.4,150.6,86.7,150.6,86.7L150.6,86.7z" />
                <circle id="椭圆形_4_" class="st10" cx="161" cy="74" r="3" />
                <circle id="椭圆形备份_2_" class="st10" cx="84" cy="59" r="3" />
                <path id="路径-160_1_" class="st6" d="M165.5,71.3l0.4,0.9c-1,0.5-1.4,1-1.4,1.7l0,0.1l-1,0.1
                C163.4,72.9,164.1,71.9,165.5,71.3z M195.7,70.7l0,1c-0.8,0-1.6,0-2.4,0l-0.6,0l0-1C193.7,70.8,194.7,70.8,195.7,70.7z
                 M186.7,70.5c0.2,0,0.4,0,0.5,0c0.6,0,1.1,0.1,1.6,0.1l0.8,0l-0.1,1c-0.8,0-1.6-0.1-2.5-0.2l-0.3,0l0,0l-0.3,0L186.7,70.5z
                 M201.5,70l0.2,1c-0.8,0.2-1.6,0.3-2.5,0.5l-0.5,0.1l-0.1-1C199.7,70.4,200.6,70.2,201.5,70z M171.6,70.1l0.1,1
                c-0.9,0.1-1.8,0.2-2.6,0.3l-0.4,0.1l-0.2-1C169.5,70.2,170.5,70.1,171.6,70.1z M180.7,70.1c0.7,0,1.5,0.1,2.2,0.1l0.8,0l-0.1,1
                c-0.8-0.1-1.5-0.1-2.3-0.1l-0.7,0L180.7,70.1z M177,69.9l0.6,0l0,1c-0.8,0-1.7,0-2.4,0l-0.6,0l0-1
                C175.3,69.9,176.1,69.9,177,69.9z M209.2,60.5l1.1,10l-4-1.5l-0.1,0c-0.3,0.2-0.7,0.5-1.1,0.7l-0.4,0.2l-0.4-0.9
                c0.3-0.1,0.6-0.3,0.8-0.4l-3.2-1.2L209.2,60.5z" />
                <path id="路径-160备份_1_" class="st6" d="M131,67.1l7.2,7l-9.9,1.6L131,67.1z M125.6,70.3c0.8,0.1,1.6,0.3,2.4,0.4l0.6,0.1
                l-0.2,1c-0.7-0.1-1.5-0.3-2.3-0.4l-0.6-0.1L125.6,70.3z M119.6,69.5c0.8,0.1,1.5,0.2,2.3,0.3l0.7,0.1l-0.1,1
                c-0.7-0.1-1.4-0.2-2.2-0.3l-0.8-0.1L119.6,69.5z M113.6,68.9c0.7,0.1,1.4,0.1,2,0.2l1,0.1l-0.1,1c-0.7-0.1-1.5-0.2-2.2-0.2
                l-0.8-0.1L113.6,68.9z M107.7,68.3c0.6,0.1,1.2,0.1,1.8,0.2l0.6,0.1l0,0l0.6,0.1l-0.1,1c-0.4,0-0.8-0.1-1.2-0.1
                c-0.4,0-0.8-0.1-1.2-0.1l-0.6-0.1L107.7,68.3z M101.7,67.7c0.7,0.1,1.4,0.2,2.2,0.3l0.8,0.1l-0.1,1c-0.8-0.1-1.5-0.2-2.3-0.3
                l-0.7-0.1L101.7,67.7z M95.8,66.7c0.7,0.2,1.5,0.3,2.3,0.4l0.6,0.1l-0.2,1c-0.8-0.1-1.6-0.3-2.4-0.4l-0.6-0.1L95.8,66.7z
                 M90.1,65c0.7,0.3,1.5,0.6,2.3,0.8l0.4,0.1l-0.3,1c-0.9-0.3-1.8-0.5-2.5-0.8L89.7,66L90.1,65z M85.3,61.5l1,0
                c0,0.7,0.4,1.4,1.2,2l0.2,0.1L87,64.5C85.9,63.6,85.3,62.6,85.3,61.5z" />
            </g>
            <rect id="矩形_8_" class="st11" width="301" height="95" />
        </g>
    </g>
</svg>
