<?xml version="1.0" encoding="utf-8"?>
<!-- Generator: Adobe Illustrator 21.0.2, SVG Export Plug-In . SVG Version: 6.00 Build 0)  -->
<svg version="1.1" id="图层_1" xmlns="http://www.w3.org/2000/svg" xmlns:xlink="http://www.w3.org/1999/xlink" x="0px" y="0px" viewBox="0 0 16 16" style="enable-background:new 0 0 16 16;" xml:space="preserve">
    <style type="text/css">
    .st0{fill:#D2EBFD;fill-opacity:0;}
    .st1{fill:#1892A2;}
    .st2{fill:none;stroke:#1892A2;stroke-width:1.4;stroke-linecap:round;}
</style>
    <title>帮助指引-hover</title>
    <desc>Created with Sketch.</desc>
    <g id="帮助指引-hover">
        <g id="分组-26复制">
            <rect id="Rectangle-19" class="st0" width="16" height="16" />
            <rect id="矩形" x="3.5" y="4" class="st1" width="5" height="1.5" />
            <rect id="矩形_1_" x="3.5" y="7" class="st1" width="3" height="1.5" />
            <g id="分组-7" transform="translate(1.400000, 0.400000)">
                <path id="Rectangle-38" class="st2" d="M2.6,13.9c-1.4,0-2.1,0-2.1,0c-0.3,0-0.5-0.2-0.5-0.5v-12c0-0.3,0.2-0.5,0.5-0.5h11
                c0.3,0,0.5,0.2,0.5,0.5c0,0.8,0,1.4,0,1.7" />
                <path id="矩形_2_" class="st1" d="M13,5c0.6-0.3,1.3,0.4,1,1l-2.3,5c-0.2,0.4-0.5,0.7-0.9,0.9l-5,2.3c-0.6,0.3-1.3-0.4-1-1
                l2.3-5C7.3,7.8,7.6,7.5,8,7.3L13,5z M11.8,7.2L8.6,8.7c-0.1,0-0.1,0.1-0.1,0.1L7.1,12l3.2-1.4c0.1,0,0.1-0.1,0.1-0.1L11.8,7.2z
                 M11.8,7.2L8.6,8.7c-0.1,0-0.1,0.1-0.1,0.1l1.7,1.7c0.1,0,0.1-0.1,0.1-0.1L11.8,7.2z" />
            </g>
        </g>
    </g>
</svg>
